<svg width="328" height="265" viewBox="0 0 328 265" fill="none" xmlns="http://www.w3.org/2000/svg">
<path d="M34.6237 155.5C33.3118 153.52 34.7123 150.873 37.0876 150.843L60.2682 150.557C61.681 150.54 62.8901 149.539 63.1712 148.154L67.7834 125.435C68.256 123.107 71.1181 122.226 72.8184 123.885L89.4119 140.073C90.4233 141.06 91.9859 141.207 93.1638 140.427L112.49 127.624C114.47 126.312 117.117 127.712 117.146 130.088L117.433 153.268C117.45 154.681 118.451 155.89 119.836 156.171L142.555 160.783C144.882 161.256 145.764 164.118 144.105 165.818L127.916 182.412C126.93 183.423 126.782 184.986 127.563 186.164L140.366 205.49C141.678 207.47 140.277 210.117 137.902 210.146L114.721 210.433C113.309 210.45 112.1 211.451 111.818 212.836L107.206 235.555C106.734 237.882 103.872 238.764 102.171 237.105L85.5777 220.916C84.5664 219.93 83.0037 219.782 81.8259 220.563L62.4998 233.366C60.5195 234.678 57.8725 233.277 57.8432 230.902L57.557 207.721C57.5395 206.309 56.5387 205.1 55.1541 204.818L32.4351 200.206C30.1072 199.734 29.2258 196.872 30.8846 195.171L47.0734 178.578C48.0601 177.566 48.2074 176.004 47.427 174.826L34.6237 155.5Z" fill="url(#paint0_linear_1146_8410)"/>
<path d="M90.3079 36.1007C91.1775 11.85 125.496 20.3289 140.368 27.7206L138.44 104.6C134.772 105.993 122.225 105.368 116.41 104.882C107.048 103.713 95.3687 97.4862 90.3734 90.7368C85.3781 83.9874 92.6294 77.6056 96.8795 75.2583L82.1987 73.0658C57.2015 69.1226 45.7799 53.0334 43.1938 45.4817C42.1033 41.594 42.4723 32.4102 52.6726 26.7768C62.8728 21.1434 82.0129 30.6455 90.3079 36.1007Z" fill="url(#paint1_linear_1146_8410)"/>
<circle cx="237.584" cy="73.5836" r="60.2228" transform="rotate(26.1156 237.584 73.5836)" fill="url(#paint2_linear_1146_8410)"/>
<circle cx="190.172" cy="50.172" r="32.3972" transform="rotate(13.6686 190.172 50.172)" fill="url(#paint3_linear_1146_8410)"/>
<path d="M59.8877 56.4157C60.0434 55.0975 61.9566 55.0975 62.1123 56.4157L62.3403 58.3459C62.8444 62.6131 66.0657 66.0562 70.2899 66.8429V66.8429C71.2618 67.0239 71.2618 68.4161 70.2899 68.5971V68.5971C66.0657 69.3838 62.8444 72.8269 62.3403 77.0941L62.1123 79.0243C61.9566 80.3425 60.0434 80.3425 59.8877 79.0243L59.6597 77.0941C59.1556 72.8269 55.9343 69.3838 51.71 68.5971V68.5971C50.7382 68.4161 50.7382 67.0239 51.71 66.8429V66.8429C55.9343 66.0562 59.1556 62.6131 59.6597 58.3459L59.8877 56.4157Z" fill="white"/>
<circle cx="111.5" cy="44.5" r="5.5" fill="#FF2156"/>
<circle cx="99.4381" cy="56.4381" r="3.43811" fill="white"/>
<circle cx="253" cy="230" r="3" fill="white"/>
<circle cx="240" cy="225" r="2" fill="white"/>
<circle cx="282" cy="47" r="2" fill="white"/>
<circle cx="282" cy="33" r="3" fill="#FF4444"/>
<path d="M266.073 218.97C265.273 221.105 262.479 221.602 260.991 219.875L251.271 208.59C250.285 207.446 248.603 207.212 247.343 208.045L234.918 216.257C233.016 217.514 230.462 216.274 230.274 214.002L229.043 199.159C228.918 197.654 227.695 196.476 226.186 196.41L211.306 195.75C209.029 195.649 207.692 193.145 208.875 191.196L216.604 178.464C217.387 177.173 217.09 175.501 215.909 174.56L204.259 165.28C202.475 163.86 202.866 161.048 204.968 160.167L218.705 154.41C220.097 153.826 220.839 152.298 220.437 150.843L216.466 136.488C215.858 134.291 217.827 132.245 220.046 132.768L234.543 136.184C236.013 136.531 237.511 135.731 238.04 134.317L243.266 120.369C244.066 118.235 246.861 117.737 248.348 119.464L258.069 130.749C259.054 131.893 260.736 132.127 261.996 131.294L274.422 123.082C276.324 121.825 278.877 123.065 279.066 125.337L280.296 140.18C280.421 141.685 281.645 142.863 283.153 142.93L298.033 143.59C300.311 143.691 301.648 146.195 300.465 148.143L292.735 160.875C291.952 162.166 292.25 163.838 293.431 164.779L305.081 174.059C306.864 175.479 306.474 178.291 304.371 179.172L290.635 184.929C289.242 185.513 288.5 187.041 288.903 188.496L292.873 202.851C293.481 205.049 291.513 207.094 289.294 206.571L274.796 203.155C273.327 202.808 271.829 203.608 271.299 205.022L266.073 218.97Z" fill="url(#paint4_linear_1146_8410)"/>
<path d="M240.557 164.736C236.847 178.71 221.579 227.113 188.357 204.63C155.497 182.392 196.996 145.565 217.303 182.448C237.61 219.33 183.116 248.27 155.121 224.899" stroke="url(#paint5_linear_1146_8410)" stroke-width="16.0609" stroke-linecap="round"/>
<path d="M166.084 72.248C164.818 73.0774 163.181 73.0774 161.916 72.248L144.197 60.6353C141.038 58.5649 142.504 53.6534 146.281 53.6534L181.719 53.6534C185.496 53.6534 186.962 58.5649 183.803 60.6353L166.084 72.248Z" fill="url(#paint6_linear_1146_8410)"/>
<path d="M251.252 84.7331C250.131 82.7916 247.648 82.1264 245.707 83.2473L189.781 115.536L200.558 134.204L244.848 108.633C253.216 103.802 256.083 93.1014 251.252 84.7331V84.7331Z" fill="url(#paint7_linear_1146_8410)"/>
<path d="M201.708 60.0202C200.587 58.0787 198.105 57.4135 196.163 58.5344L169.947 73.6704L180.725 92.3378L195.304 83.9204C203.673 79.089 206.54 68.3885 201.708 60.0202V60.0202Z" fill="url(#paint8_linear_1146_8410)"/>
<path d="M128.084 61.0785C129.207 59.0399 131.769 58.297 133.807 59.419L163.049 75.5146L152.26 95.116L135.237 85.7461C126.45 80.9096 123.248 69.8655 128.084 61.0785V61.0785Z" fill="url(#paint9_linear_1146_8410)"/>
<path d="M247.332 116.086C246.211 114.145 243.728 113.48 241.787 114.6L185.861 146.889L196.639 165.557L240.928 139.986C249.296 135.155 252.163 124.455 247.332 116.086V116.086Z" fill="url(#paint10_linear_1146_8410)"/>
<path d="M76.7478 84.7331C77.8687 82.7916 80.3512 82.1264 82.2926 83.2473L138.219 115.536L127.441 134.204L83.1518 108.633C74.7835 103.802 71.9163 93.1014 76.7478 84.7331V84.7331Z" fill="url(#paint11_linear_1146_8410)"/>
<path d="M80.668 116.086C81.7888 114.145 84.2714 113.48 86.2128 114.6L142.139 146.889L131.361 165.557L87.072 139.986C78.7037 135.155 75.8365 124.455 80.668 116.086V116.086Z" fill="url(#paint12_linear_1146_8410)"/>
<path d="M161.149 69.5571C162.913 68.5383 165.087 68.5383 166.851 69.5571L213.007 96.205C214.772 97.2237 215.859 99.1065 215.859 101.144V154.44C215.859 156.477 214.772 158.36 213.007 159.379L166.851 186.027C165.087 187.045 162.913 187.045 161.149 186.027L114.993 159.379C113.228 158.36 112.141 156.477 112.141 154.44V101.144C112.141 99.1065 113.228 97.2237 114.993 96.205L161.149 69.5571Z" fill="#FF685F"/>
<path d="M162.099 82.3153C163.275 81.6362 164.724 81.6362 165.901 82.3153L202.433 103.407C203.61 104.086 204.334 105.342 204.334 106.7V148.884C204.334 150.242 203.61 151.497 202.433 152.177L165.901 173.269C164.724 173.948 163.275 173.948 162.099 173.269L125.566 152.177C124.39 151.497 123.665 150.242 123.665 148.884V106.7C123.665 105.342 124.39 104.086 125.566 103.407L162.099 82.3153Z" fill="url(#paint13_radial_1146_8410)"/>
<mask id="path-23-outside-1_1146_8410" maskUnits="userSpaceOnUse" x="128.733" y="96.3267" width="71" height="65" fill="black">
<rect fill="white" x="128.733" y="96.3267" width="71" height="65"/>
<path fill-rule="evenodd" clip-rule="evenodd" d="M140.238 121.139C140.238 108.54 150.451 98.3268 163.049 98.3268C175.648 98.3268 185.861 108.54 185.861 121.139V124.941C185.877 124.941 185.892 124.941 185.907 124.941C190.887 124.962 197.267 126.013 197.267 130.139C197.267 135.163 193.964 134.615 191.282 134.171C190.578 134.054 189.918 133.944 189.371 133.944H186.3C186.152 133.944 186.005 133.937 185.861 133.924V159.158H140.238V133.936C140.146 133.942 140.053 133.944 139.96 133.944H137.752C137.265 133.944 136.678 134.054 136.053 134.171C133.669 134.615 130.733 135.163 130.733 130.139C130.733 126.195 135.915 125.061 140.238 124.95V121.139Z"/>
</mask>
<path fill-rule="evenodd" clip-rule="evenodd" d="M140.238 121.139C140.238 108.54 150.451 98.3268 163.049 98.3268C175.648 98.3268 185.861 108.54 185.861 121.139V124.941C185.877 124.941 185.892 124.941 185.907 124.941C190.887 124.962 197.267 126.013 197.267 130.139C197.267 135.163 193.964 134.615 191.282 134.171C190.578 134.054 189.918 133.944 189.371 133.944H186.3C186.152 133.944 186.005 133.937 185.861 133.924V159.158H140.238V133.936C140.146 133.942 140.053 133.944 139.96 133.944H137.752C137.265 133.944 136.678 134.054 136.053 134.171C133.669 134.615 130.733 135.163 130.733 130.139C130.733 126.195 135.915 125.061 140.238 124.95V121.139Z" fill="url(#paint14_linear_1146_8410)"/>
<path d="M185.861 124.941H183.96V126.856L185.875 126.842L185.861 124.941ZM185.907 124.941L185.916 123.04L185.915 123.04L185.907 124.941ZM191.282 134.17L190.971 136.046L191.282 134.17ZM185.861 133.924L186.038 132.031L183.96 131.837V133.924H185.861ZM185.861 159.158V161.059H187.762V159.158H185.861ZM140.238 159.158H138.337V161.059H140.238V159.158ZM140.238 133.936H142.139V131.92L140.127 132.038L140.238 133.936ZM136.053 134.17L136.401 136.039H136.401L136.053 134.17ZM140.238 124.95L140.286 126.85L142.139 126.802V124.95H140.238ZM163.05 96.4257C149.401 96.4257 138.337 107.49 138.337 121.139H142.139C142.139 109.59 151.501 100.228 163.05 100.228V96.4257ZM187.762 121.139C187.762 107.49 176.698 96.4257 163.05 96.4257V100.228C174.598 100.228 183.96 109.59 183.96 121.139H187.762ZM187.762 124.941V121.139H183.96V124.941H187.762ZM185.915 123.04C185.893 123.04 185.87 123.04 185.848 123.04L185.875 126.842C185.883 126.842 185.891 126.842 185.899 126.842L185.915 123.04ZM199.168 130.139C199.168 126.814 196.519 125.065 194.086 124.207C191.575 123.323 188.489 123.051 185.916 123.04L185.899 126.842C188.305 126.852 190.899 127.116 192.823 127.793C194.825 128.498 195.366 129.337 195.366 130.139H199.168ZM190.971 136.046C191.621 136.154 192.438 136.291 193.251 136.333C194.06 136.375 195.02 136.333 195.948 135.985C196.932 135.616 197.798 134.931 198.38 133.857C198.934 132.835 199.168 131.581 199.168 130.139H195.366C195.366 131.209 195.187 131.77 195.038 132.044C194.917 132.267 194.79 132.359 194.613 132.426C194.379 132.513 194.01 132.565 193.446 132.536C192.885 132.507 192.283 132.409 191.593 132.295L190.971 136.046ZM189.371 135.845C189.727 135.845 190.216 135.921 190.971 136.046L191.593 132.295C190.941 132.187 190.108 132.043 189.371 132.043V135.845ZM186.3 135.845H189.371V132.043H186.3V135.845ZM185.684 135.816C185.887 135.835 186.093 135.845 186.3 135.845V132.043C186.211 132.043 186.123 132.039 186.038 132.031L185.684 135.816ZM187.762 159.158V133.924H183.96V159.158H187.762ZM140.238 161.059H185.861V157.257H140.238V161.059ZM138.337 133.936V159.158H142.139V133.936H138.337ZM139.96 135.845C140.091 135.845 140.22 135.841 140.349 135.834L140.127 132.038C140.072 132.041 140.016 132.043 139.96 132.043V135.845ZM137.752 135.845H139.96V132.043H137.752V135.845ZM136.401 136.039C137.085 135.912 137.479 135.845 137.752 135.845V132.043C137.052 132.043 136.271 132.196 135.704 132.302L136.401 136.039ZM128.832 130.139C128.832 132.959 129.681 135.08 131.76 135.957C132.654 136.334 133.574 136.376 134.326 136.332C135.078 136.289 135.828 136.146 136.401 136.039L135.704 132.302C135.086 132.417 134.575 132.51 134.106 132.537C133.637 132.564 133.376 132.512 133.238 132.454C133.16 132.421 133.058 132.368 132.941 132.125C132.798 131.827 132.634 131.234 132.634 130.139H128.832ZM140.189 123.049C137.931 123.107 135.273 123.43 133.112 124.361C130.922 125.304 128.832 127.093 128.832 130.139H132.634C132.634 129.24 133.134 128.491 134.616 127.853C136.127 127.203 138.222 126.903 140.286 126.85L140.189 123.049ZM138.337 121.139V124.95H142.139V121.139H138.337Z" fill="url(#paint15_linear_1146_8410)" mask="url(#path-23-outside-1_1146_8410)"/>
<rect x="153.544" y="113.535" width="5.70296" height="9.50494" rx="2.85148" fill="#C81B1B"/>
<rect x="159.247" y="124.941" width="7.60395" height="13.3069" rx="3.80197" fill="url(#paint16_linear_1146_8410)"/>
<rect x="166.852" y="113.535" width="5.70296" height="9.50494" rx="2.85148" fill="#C81B1B"/>
<path d="M153.544 109.733L158.297 111.634" stroke="#9E1C1C" stroke-width="1.90099" stroke-linecap="round"/>
<path d="M166.852 111.634L172.555 109.733" stroke="#9E1C1C" stroke-width="1.90099" stroke-linecap="round"/>
<path d="M277.794 191.893C277.894 191.058 279.106 191.058 279.206 191.893L279.93 197.937C280.799 205.19 286.288 211.033 293.473 212.352C294.192 212.484 294.192 213.516 293.473 213.648C286.288 214.967 280.799 220.81 279.93 228.063L279.206 234.107C279.106 234.942 277.894 234.942 277.794 234.107L277.07 228.063C276.201 220.81 270.712 214.967 263.527 213.648C262.808 213.516 262.808 212.484 263.527 212.352C270.712 211.033 276.201 205.19 277.07 197.937L277.794 191.893Z" fill="#D06DFF"/>
<defs>
<linearGradient id="paint0_linear_1146_8410" x1="35.073" y1="211.282" x2="108.494" y2="117.452" gradientUnits="userSpaceOnUse">
<stop stop-color="#C04A8A"/>
<stop offset="1" stop-color="#630C3B" stop-opacity="0"/>
</linearGradient>
<linearGradient id="paint1_linear_1146_8410" x1="42.9151" y1="20.6634" x2="132.52" y2="51.3257" gradientUnits="userSpaceOnUse">
<stop stop-color="#CA396D"/>
<stop offset="1" stop-color="#D72B2B" stop-opacity="0"/>
</linearGradient>
<linearGradient id="paint2_linear_1146_8410" x1="237.584" y1="21.6993" x2="237.584" y2="133.806" gradientUnits="userSpaceOnUse">
<stop stop-color="#FF4921" stop-opacity="0.46"/>
<stop offset="1" stop-color="#FF4C24" stop-opacity="0"/>
</linearGradient>
<linearGradient id="paint3_linear_1146_8410" x1="190.172" y1="22.2606" x2="190.172" y2="82.5692" gradientUnits="userSpaceOnUse">
<stop stop-color="#BD5077" stop-opacity="0.46"/>
<stop offset="1" stop-color="#552040" stop-opacity="0"/>
</linearGradient>
<linearGradient id="paint4_linear_1146_8410" x1="303.726" y1="189.082" x2="200.334" y2="188.976" gradientUnits="userSpaceOnUse">
<stop stop-color="#C131C4"/>
<stop offset="1" stop-color="#630C3B" stop-opacity="0"/>
</linearGradient>
<linearGradient id="paint5_linear_1146_8410" x1="249.831" y1="179.709" x2="143.965" y2="229.907" gradientUnits="userSpaceOnUse">
<stop stop-color="#FF7C7C"/>
<stop offset="0.502946" stop-color="#CF75D1" stop-opacity="0.579344"/>
<stop offset="1" stop-color="#7F5E80" stop-opacity="0"/>
</linearGradient>
<linearGradient id="paint6_linear_1146_8410" x1="164" y1="73.6138" x2="164" y2="46.9999" gradientUnits="userSpaceOnUse">
<stop stop-color="#C73737"/>
<stop offset="1" stop-color="#FF6847"/>
</linearGradient>
<linearGradient id="paint7_linear_1146_8410" x1="252.162" y1="91.0156" x2="221.788" y2="116.49" gradientUnits="userSpaceOnUse">
<stop stop-color="#FF4747"/>
<stop offset="1" stop-color="#A51818"/>
</linearGradient>
<linearGradient id="paint8_linear_1146_8410" x1="203.637" y1="65.7146" x2="187.215" y2="77.2277" gradientUnits="userSpaceOnUse">
<stop stop-color="#FF4747"/>
<stop offset="1" stop-color="#A51818"/>
</linearGradient>
<linearGradient id="paint9_linear_1146_8410" x1="126.263" y1="67.0614" x2="144.432" y2="79.3802" gradientUnits="userSpaceOnUse">
<stop stop-color="#FF4747"/>
<stop offset="1" stop-color="#A51818"/>
</linearGradient>
<linearGradient id="paint10_linear_1146_8410" x1="248.242" y1="122.369" x2="217.868" y2="147.843" gradientUnits="userSpaceOnUse">
<stop stop-color="#FF4747"/>
<stop offset="1" stop-color="#A51818"/>
</linearGradient>
<linearGradient id="paint11_linear_1146_8410" x1="75.838" y1="91.0156" x2="106.211" y2="116.49" gradientUnits="userSpaceOnUse">
<stop stop-color="#FF4747"/>
<stop offset="1" stop-color="#A51818"/>
</linearGradient>
<linearGradient id="paint12_linear_1146_8410" x1="79.7582" y1="122.369" x2="110.132" y2="147.843" gradientUnits="userSpaceOnUse">
<stop stop-color="#FF4747"/>
<stop offset="1" stop-color="#A51818"/>
</linearGradient>
<radialGradient id="paint13_radial_1146_8410" cx="0" cy="0" r="1" gradientUnits="userSpaceOnUse" gradientTransform="translate(164 127.792) rotate(90) scale(46.5742)">
<stop stop-color="#FF8989"/>
<stop offset="1" stop-color="#DF1818"/>
</radialGradient>
<linearGradient id="paint14_linear_1146_8410" x1="164" y1="98.3267" x2="164" y2="159.158" gradientUnits="userSpaceOnUse">
<stop stop-color="white" stop-opacity="0.84"/>
<stop offset="1" stop-color="white" stop-opacity="0"/>
</linearGradient>
<linearGradient id="paint15_linear_1146_8410" x1="164" y1="115.436" x2="164" y2="159.158" gradientUnits="userSpaceOnUse">
<stop offset="0.416667" stop-color="#A40000"/>
<stop offset="1" stop-color="#C81E1E" stop-opacity="0"/>
</linearGradient>
<linearGradient id="paint16_linear_1146_8410" x1="163.049" y1="124.941" x2="163.049" y2="138.247" gradientUnits="userSpaceOnUse">
<stop stop-color="#911A1A"/>
<stop offset="1" stop-color="#FF1E1E"/>
</linearGradient>
</defs>
</svg>
