<svg width="328" height="265" viewBox="0 0 328 265" fill="none" xmlns="http://www.w3.org/2000/svg">
<path fill-rule="evenodd" clip-rule="evenodd" d="M190.451 49.0345C190.813 48.413 191.141 47.7708 191.432 47.1082C197.371 33.5576 185.527 16.6406 164.976 9.32311C144.426 2.00558 122.951 7.05846 117.012 20.609C116.978 20.686 116.945 20.7631 116.912 20.8403C114.114 19.4224 111.106 18.1785 107.918 17.1472C85.2787 9.82365 62.1221 15.9933 56.1959 30.9275C51.1528 43.6362 60.2125 58.5965 76.976 67.2862C67.8301 69.1278 61.1109 73.7264 60.1468 79.6928C58.724 88.4974 70.3732 96.9462 86.1658 98.5638C87.933 98.7448 89.6771 98.8326 91.3833 98.8334C90.5119 100.84 89.996 102.958 89.8841 105.161C89.1436 119.742 106.396 132.468 128.419 133.587C138.286 134.088 147.437 132.174 154.599 128.596L196.969 130.748L201.092 49.575L190.451 49.0345Z" fill="url(#paint0_linear_1146_8348)"/>
<circle cx="263.497" cy="187.774" r="52.9797" transform="rotate(105.58 263.497 187.774)" fill="url(#paint1_linear_1146_8348)"/>
<circle cx="187.146" cy="226.147" r="30.6187" transform="rotate(-139.846 187.146 226.147)" fill="url(#paint2_linear_1146_8348)"/>
<path d="M89.4887 134.217C88.3887 103.345 132.737 110.992 152.292 119.026L156.832 216.822C152.3 218.923 136.312 219.27 128.884 219.182C116.891 218.548 101.494 211.703 94.538 203.587C87.5815 195.471 96.2091 186.708 101.392 183.341L82.5517 181.891C50.4524 179.157 34.4871 159.765 30.5169 150.411C28.7788 145.574 28.4127 133.879 40.8527 125.798C53.2927 117.718 78.46 128.044 89.4887 134.217Z" fill="url(#paint3_linear_1146_8348)"/>
<path d="M41.8878 150.355C42.0444 149.038 43.9556 149.038 44.1122 150.355L44.6237 154.658C45.238 159.825 49.1433 163.991 54.2601 164.938V164.938C55.4383 165.156 55.4383 166.844 54.2601 167.062V167.062C49.1433 168.009 45.238 172.175 44.6237 177.342L44.1122 181.645C43.9556 182.962 42.0444 182.962 41.8878 181.645L41.3763 177.342C40.762 172.175 36.8567 168.009 31.7399 167.062V167.062C30.5617 166.844 30.5617 165.156 31.7399 164.938V164.938C36.8567 163.991 40.762 159.825 41.3763 154.658L41.8878 150.355Z" fill="white"/>
<path d="M54.0348 85.281C54.1683 84.1354 55.8317 84.1354 55.9652 85.281L56.1545 86.905C56.5833 90.5838 59.3537 93.5568 62.9931 94.2437V94.2437C63.829 94.4015 63.829 95.5985 62.9931 95.7563V95.7563C59.3537 96.4432 56.5833 99.4161 56.1545 103.095L55.9652 104.719C55.8317 105.865 54.1683 105.865 54.0348 104.719L53.8455 103.095C53.4167 99.4162 50.6463 96.4432 47.0069 95.7563V95.7563C46.171 95.5985 46.171 94.4015 47.0069 94.2437V94.2437C50.6463 93.5568 53.4167 90.5838 53.8455 86.905L54.0348 85.281Z" fill="#9867FF"/>
<circle cx="214.5" cy="24.5" r="5.5" fill="#6E3CFF"/>
<circle cx="244.438" cy="33.4381" r="3.43811" fill="white"/>
<circle cx="107" cy="66" r="2" fill="white"/>
<circle cx="155" cy="207" r="2" fill="white"/>
<circle cx="163.5" cy="223.5" r="2.5" fill="white"/>
<circle cx="89.5" cy="74.5" r="3.5" fill="#58AFFF"/>
<path d="M127 23L64 86" stroke="url(#paint4_linear_1146_8348)" stroke-width="3"/>
<path d="M152 55L49 158" stroke="url(#paint5_linear_1146_8348)" stroke-width="3"/>
<path d="M320 135L201 254" stroke="url(#paint6_linear_1146_8348)" stroke-width="8"/>
<path d="M283.122 52.7807C288.3 73.1743 257.618 74.2306 243.418 71.5937L226.313 7.13785C229.033 5.11162 239.648 2.66455 244.615 1.6943C252.706 0.453727 263.961 2.876 269.77 7.31348C275.578 11.751 271.084 18.7782 268.111 21.7372L280.887 20.0912C294.55 17.2755 309.665 19.2161 313.66 24.8912C317.868 28.0352 319.863 37.4008 312.728 44.5023C305.593 51.6038 291.367 55.3607 283.122 52.7807Z" fill="url(#paint7_linear_1146_8348)"/>
<path d="M217.26 187.742C215.263 187.742 213.643 186.123 213.643 184.125L213.643 151.247L232.851 151.247L232.851 172.151C232.851 180.762 225.871 187.742 217.26 187.742V187.742Z" fill="url(#paint8_linear_1146_8348)"/>
<path d="M192.739 187.742C194.737 187.742 196.356 186.123 196.356 184.125L196.356 151.247L177.149 151.247L177.149 172.151C177.149 180.762 184.129 187.742 192.739 187.742V187.742Z" fill="url(#paint9_linear_1146_8348)"/>
<path d="M207.105 61.5111C205.826 62.3491 204.172 62.3491 202.893 61.5111L184.99 49.7774C181.797 47.6854 183.279 42.7228 187.095 42.7228L222.903 42.7228C226.719 42.7228 228.201 47.6854 225.009 49.7774L207.105 61.5111Z" fill="url(#paint10_linear_1146_8348)"/>
<path d="M243.1 49.1559C241.967 47.1943 239.459 46.5221 237.497 47.6547L211.008 62.9483L221.898 81.8102L236.629 73.3051C245.085 68.4234 247.982 57.6114 243.1 49.1559V49.1559Z" fill="url(#paint11_linear_1146_8348)"/>
<path d="M293.161 74.1261C292.028 72.1645 289.52 71.4923 287.558 72.6249L231.049 105.25L241.939 124.112L286.69 98.2753C295.145 93.3936 298.042 82.5816 293.161 74.1261V74.1261Z" fill="url(#paint12_linear_1146_8348)"/>
<path d="M289.2 105.806C288.067 103.844 285.559 103.172 283.597 104.305L227.089 136.93L237.979 155.792L282.729 129.955C291.185 125.073 294.082 114.261 289.2 105.806V105.806Z" fill="url(#paint13_linear_1146_8348)"/>
<path d="M116.839 74.1261C117.972 72.1645 120.48 71.4923 122.442 72.6249L178.95 105.25L168.06 124.112L123.31 98.2753C114.854 93.3936 111.957 82.5816 116.839 74.1261V74.1261Z" fill="url(#paint14_linear_1146_8348)"/>
<path d="M121.991 80.9206C122.482 80.071 123.568 79.7799 124.418 80.2704L176.134 110.129L171.417 118.298L124.794 91.3801C121.132 89.2657 119.877 84.5828 121.991 80.9206V80.9206Z" fill="url(#paint15_linear_1146_8348)"/>
<path d="M286.996 81.7206C286.504 80.8687 285.415 80.5768 284.563 81.0687L232.852 110.924L237.581 119.116L284.186 92.2078C287.858 90.0878 289.116 85.3925 286.996 81.7206V81.7206Z" fill="url(#paint16_linear_1146_8348)"/>
<path d="M120.8 105.806C121.932 103.844 124.441 103.172 126.402 104.305L182.911 136.93L172.021 155.792L127.27 129.955C118.815 125.073 115.918 114.261 120.8 105.806V105.806Z" fill="url(#paint17_linear_1146_8348)"/>
<path d="M168.709 50.2252C169.843 48.1654 172.432 47.4147 174.492 48.5485L204.038 64.8117L193.137 84.6173L175.937 75.1498C167.058 70.2629 163.822 59.1037 168.709 50.2252V50.2252Z" fill="url(#paint18_linear_1146_8348)"/>
<path d="M202.119 58.7922C203.901 57.7629 206.098 57.7629 207.881 58.7922L254.517 85.7178C256.3 86.7471 257.398 88.6494 257.398 90.7081V144.559C257.398 146.618 256.3 148.52 254.517 149.55L207.881 176.475C206.098 177.504 203.901 177.504 202.119 176.475L155.482 149.55C153.699 148.52 152.601 146.618 152.601 144.559V90.7081C152.601 88.6494 153.699 86.7471 155.482 85.7178L202.119 58.7922Z" fill="#7CB1FF"/>
<path d="M203.079 71.6832C204.268 70.997 205.732 70.997 206.921 71.6832L243.834 92.9949C245.022 93.6811 245.755 94.9494 245.755 96.3218V138.945C245.755 140.318 245.022 141.586 243.834 142.272L206.921 163.584C205.732 164.27 204.268 164.27 203.079 163.584L166.166 142.272C164.978 141.586 164.245 140.318 164.245 138.945V96.3218C164.245 94.9494 164.978 93.6811 166.166 92.9949L203.079 71.6832Z" fill="url(#paint19_radial_1146_8348)"/>
<path d="M184.214 128.541V141.403C184.214 142.824 185.366 143.976 186.787 143.976V143.976C188.207 143.976 189.359 142.824 189.359 141.403V131.971" stroke="#8EBBFF" stroke-width="1.92079" stroke-linecap="round"/>
<path d="M189.359 131.971V144.833C189.359 146.254 190.511 147.406 191.932 147.406V147.406C193.352 147.406 194.504 146.254 194.504 144.833V135.401" stroke="#8EBBFF" stroke-width="1.92079" stroke-linecap="round"/>
<path d="M187.644 116.536V129.398C187.644 130.819 188.796 131.971 190.217 131.971V131.971C191.638 131.971 192.789 130.819 192.789 129.398V119.966" stroke="#8EBBFF" stroke-width="1.92079" stroke-linecap="round"/>
<path d="M192.789 119.966V132.828C192.789 134.249 193.941 135.401 195.362 135.401V135.401C196.782 135.401 197.934 134.249 197.934 132.828V123.396" stroke="#8EBBFF" stroke-width="1.92079" stroke-linecap="round"/>
<path d="M191.074 99.3862V99.3862C184.444 99.3862 179.069 104.761 179.069 111.391V134.544C179.069 135.964 180.221 137.116 181.642 137.116V137.116C183.062 137.116 184.214 135.964 184.214 134.544V127.238" stroke="#8EBBFF" stroke-width="1.92079" stroke-linecap="round"/>
<path d="M223.223 127.905V140.487C223.223 141.876 222.096 143.003 220.707 143.003V143.003C219.317 143.003 218.19 141.876 218.19 140.487V131.26" stroke="#8EBBFF" stroke-width="1.92079" stroke-linecap="round"/>
<path d="M218.191 131.26V143.841C218.191 145.231 217.064 146.358 215.675 146.358V146.358C214.285 146.358 213.158 145.231 213.158 143.841V134.615" stroke="#8EBBFF" stroke-width="1.92079" stroke-linecap="round"/>
<path d="M219.868 116.162V128.744C219.868 130.133 218.742 131.26 217.352 131.26V131.26C215.962 131.26 214.835 130.133 214.835 128.744V119.517" stroke="#8EBBFF" stroke-width="1.92079" stroke-linecap="round"/>
<path d="M214.834 119.517V132.099C214.834 133.488 213.708 134.615 212.318 134.615V134.615C210.928 134.615 209.802 133.488 209.802 132.099V122.872" stroke="#8EBBFF" stroke-width="1.92079" stroke-linecap="round"/>
<path d="M216.513 99.3862V99.3862C222.998 99.3862 228.256 104.644 228.256 111.129V133.776C228.256 135.166 227.129 136.293 225.739 136.293V136.293C224.35 136.293 223.223 135.166 223.223 133.776V128.198" stroke="#8EBBFF" stroke-width="1.92079" stroke-linecap="round"/>
<rect x="195.78" y="87.285" width="16.5188" height="6.91484" rx="3.45742" stroke="url(#paint20_linear_1146_8348)" stroke-width="2.6891"/>
<path d="M68 248L177 139" stroke="url(#paint21_linear_1146_8348)" stroke-width="5"/>
<defs>
<linearGradient id="paint0_linear_1146_8348" x1="24.5857" y1="65.6275" x2="152.946" y2="143.574" gradientUnits="userSpaceOnUse">
<stop stop-color="#C059FF" stop-opacity="0.31"/>
<stop offset="1" stop-color="#324BCE" stop-opacity="0"/>
</linearGradient>
<linearGradient id="paint1_linear_1146_8348" x1="263.497" y1="142.13" x2="263.497" y2="240.754" gradientUnits="userSpaceOnUse">
<stop stop-color="#3A89FF" stop-opacity="0.35"/>
<stop offset="1" stop-color="#0D4AA6" stop-opacity="0"/>
</linearGradient>
<linearGradient id="paint2_linear_1146_8348" x1="187.146" y1="199.767" x2="187.146" y2="256.765" gradientUnits="userSpaceOnUse">
<stop stop-color="white" stop-opacity="0.26"/>
<stop offset="1" stop-color="white" stop-opacity="0"/>
</linearGradient>
<linearGradient id="paint3_linear_1146_8348" x1="35.5" y1="178" x2="150.919" y2="146.621" gradientUnits="userSpaceOnUse">
<stop stop-color="#4E67ED"/>
<stop offset="1" stop-color="#336DC4" stop-opacity="0"/>
</linearGradient>
<linearGradient id="paint4_linear_1146_8348" x1="95.5" y1="23" x2="95.5" y2="86" gradientUnits="userSpaceOnUse">
<stop stop-color="white" stop-opacity="0"/>
<stop offset="0.286458" stop-color="white" stop-opacity="0.28"/>
<stop offset="1" stop-color="white" stop-opacity="0"/>
</linearGradient>
<linearGradient id="paint5_linear_1146_8348" x1="100.5" y1="55" x2="100.5" y2="158" gradientUnits="userSpaceOnUse">
<stop stop-color="white" stop-opacity="0"/>
<stop offset="0.286458" stop-color="white" stop-opacity="0.28"/>
<stop offset="1" stop-color="white" stop-opacity="0"/>
</linearGradient>
<linearGradient id="paint6_linear_1146_8348" x1="260.5" y1="135" x2="260.5" y2="254" gradientUnits="userSpaceOnUse">
<stop stop-color="white" stop-opacity="0"/>
<stop offset="0.286458" stop-color="white" stop-opacity="0.28"/>
<stop offset="1" stop-color="white" stop-opacity="0"/>
</linearGradient>
<linearGradient id="paint7_linear_1146_8348" x1="316.558" y1="59.8976" x2="232.805" y2="34.0403" gradientUnits="userSpaceOnUse">
<stop stop-color="#5558A6"/>
<stop offset="1" stop-color="#4B2A82" stop-opacity="0"/>
</linearGradient>
<linearGradient id="paint8_linear_1146_8348" x1="222.514" y1="186.491" x2="224.738" y2="165.322" gradientUnits="userSpaceOnUse">
<stop stop-color="#559AFF"/>
<stop offset="1" stop-color="#3373D1"/>
</linearGradient>
<linearGradient id="paint9_linear_1146_8348" x1="187.486" y1="186.491" x2="185.261" y2="165.322" gradientUnits="userSpaceOnUse">
<stop stop-color="#559AFF"/>
<stop offset="1" stop-color="#3373D1"/>
</linearGradient>
<linearGradient id="paint10_linear_1146_8348" x1="204.999" y1="62.8911" x2="204.999" y2="36.0001" gradientUnits="userSpaceOnUse">
<stop stop-color="#1F69D6"/>
<stop offset="1" stop-color="#7CB1FF"/>
</linearGradient>
<linearGradient id="paint11_linear_1146_8348" x1="245.049" y1="54.9097" x2="228.456" y2="66.5427" gradientUnits="userSpaceOnUse">
<stop stop-color="#4691FF"/>
<stop offset="1" stop-color="#235BAD"/>
</linearGradient>
<linearGradient id="paint12_linear_1146_8348" x1="294.08" y1="80.4741" x2="263.39" y2="106.214" gradientUnits="userSpaceOnUse">
<stop stop-color="#5D99F1"/>
<stop offset="1" stop-color="#003380"/>
</linearGradient>
<linearGradient id="paint13_linear_1146_8348" x1="290.119" y1="112.154" x2="259.429" y2="137.894" gradientUnits="userSpaceOnUse">
<stop stop-color="#5D99F1"/>
<stop offset="1" stop-color="#003380"/>
</linearGradient>
<linearGradient id="paint14_linear_1146_8348" x1="115.92" y1="80.4741" x2="146.609" y2="106.214" gradientUnits="userSpaceOnUse">
<stop stop-color="#5D99F1"/>
<stop offset="1" stop-color="#003380"/>
</linearGradient>
<linearGradient id="paint15_linear_1146_8348" x1="122.527" y1="84.2093" x2="144.414" y2="110.13" gradientUnits="userSpaceOnUse">
<stop stop-color="#0057D7"/>
<stop offset="1" stop-color="#0C121C"/>
</linearGradient>
<linearGradient id="paint16_linear_1146_8348" x1="286.464" y1="85.0152" x2="264.549" y2="110.926" gradientUnits="userSpaceOnUse">
<stop stop-color="#0057D7"/>
<stop offset="1" stop-color="#0C121C"/>
</linearGradient>
<linearGradient id="paint17_linear_1146_8348" x1="119.88" y1="112.154" x2="150.57" y2="137.894" gradientUnits="userSpaceOnUse">
<stop stop-color="#5D99F1"/>
<stop offset="1" stop-color="#003380"/>
</linearGradient>
<linearGradient id="paint18_linear_1146_8348" x1="166.869" y1="56.2704" x2="185.227" y2="68.7176" gradientUnits="userSpaceOnUse">
<stop stop-color="#4691FF"/>
<stop offset="1" stop-color="#235BAD"/>
</linearGradient>
<radialGradient id="paint19_radial_1146_8348" cx="0" cy="0" r="1" gradientUnits="userSpaceOnUse" gradientTransform="translate(205 117.634) rotate(90) scale(47.0593)">
<stop stop-color="#3D8BFF"/>
<stop offset="1" stop-color="#155EC9"/>
</radialGradient>
<linearGradient id="paint20_linear_1146_8348" x1="195.396" y1="87.8612" x2="210.762" y2="94.584" gradientUnits="userSpaceOnUse">
<stop stop-color="#FFEC41"/>
<stop offset="1" stop-color="#FFC226"/>
</linearGradient>
<linearGradient id="paint21_linear_1146_8348" x1="122.5" y1="248" x2="122.5" y2="139" gradientUnits="userSpaceOnUse">
<stop stop-color="white" stop-opacity="0"/>
<stop offset="0.286458" stop-color="white" stop-opacity="0.28"/>
<stop offset="1" stop-color="white" stop-opacity="0"/>
</linearGradient>
</defs>
</svg>
