<svg width="32" height="32" viewBox="0 0 32 32" fill="none" xmlns="http://www.w3.org/2000/svg">
<path fill-rule="evenodd" clip-rule="evenodd" d="M17.9216 3.15341C17.9216 2.29145 17.2229 1.5927 16.3609 1.5927V1.5927C15.499 1.5927 14.8002 2.29145 14.8002 3.15341V7.53649C14.8002 9.19336 13.5999 10.6013 12.6987 11.9917C12.2567 12.6736 12 13.4868 12 14.36V29.6059C12 30.9281 13.0719 32 14.3941 32H18.3259C19.6481 32 20.72 30.9281 20.72 29.6059V14.36C20.72 13.4871 20.4635 12.674 20.0217 11.9922C19.121 10.6023 17.9216 9.19478 17.9216 7.53859V3.15341Z" fill="url(#paint0_linear_788_7727)"/>
<rect x="14.5601" width="3.60162" height="2.16097" rx="0.532014" fill="#E43FFF"/>
<rect x="14.7852" y="1.80078" width="3.12141" height="5.04227" fill="url(#paint1_linear_788_7727)"/>
<path opacity="0.4" d="M15.723 1.80078C15.819 1.80078 15.907 3.75978 15.971 6.92638C15.987 7.70014 16.031 8.63045 15.811 9.58311C15.5951 10.5224 15.1752 11.5063 14.5474 12.3338C14.3995 12.5395 14.2515 12.7452 14.1036 12.951C13.9836 13.1612 13.8516 13.358 13.7397 13.5727C13.5477 14.0244 13.3838 14.5074 13.3558 15.0263L13.3278 15.4154V15.8492C13.3278 16.1399 13.3278 16.4307 13.3278 16.7259C13.3278 17.3162 13.3278 17.9111 13.3278 18.5149C13.3278 23.3498 13.3161 23.2279 13.2521 26.3945C13.1881 29.5611 13.128 30.0669 13.032 30.0669C12.936 30.0669 12.8202 29.5611 12.7562 26.3945C12.6923 23.2279 12.624 23.3498 12.624 18.5149C12.624 17.9111 12.624 17.3118 12.624 16.7259C12.624 16.4307 12.624 16.1399 12.624 15.8492V15.4154L12.664 14.9502C12.708 14.3285 12.9039 13.7471 13.1439 13.2193C13.2758 12.9644 13.4398 12.7229 13.5837 12.4903C13.7357 12.2846 13.8876 12.0788 14.0396 11.8776C14.6394 11.1172 15.0153 10.2674 15.2432 9.41762C15.4631 8.56336 15.4551 7.73593 15.4711 6.93086C15.5351 3.76425 15.6231 1.80525 15.7191 1.80525L15.723 1.80078Z" fill="white"/>
<path d="M12.0239 15.967H18.455C18.7489 15.967 18.9871 16.2052 18.9871 16.4991V26.48C18.9871 26.7738 18.7489 27.012 18.455 27.012H12.0239V15.967Z" fill="#862DDF"/>
<path fill-rule="evenodd" clip-rule="evenodd" d="M12.024 26.5833V20.0706C12.7273 19.5031 13.8566 18.8387 15.2113 18.6808C16.7809 18.4977 18.213 17.5065 18.9872 16.8076V23.6835C18.3207 24.0329 17.023 24.5473 15.2113 24.8289C13.6954 25.0646 12.6463 25.862 12.024 26.5833Z" fill="url(#paint2_radial_788_7727)"/>
<defs>
<linearGradient id="paint0_linear_788_7727" x1="16.3609" y1="1.55263" x2="16.3609" y2="26.8513" gradientUnits="userSpaceOnUse">
<stop stop-color="#FF9C4B"/>
<stop offset="1" stop-color="#D120F0"/>
</linearGradient>
<linearGradient id="paint1_linear_788_7727" x1="16.3459" y1="1.80078" x2="16.3459" y2="6.84305" gradientUnits="userSpaceOnUse">
<stop stop-color="#E43FFF"/>
<stop offset="0.916667" stop-color="#8200BF"/>
</linearGradient>
<radialGradient id="paint2_radial_788_7727" cx="0" cy="0" r="1" gradientUnits="userSpaceOnUse" gradientTransform="translate(15.5027 21.6724) rotate(90) scale(4.62208 3.49932)">
<stop stop-color="#FFC634"/>
<stop offset="1" stop-color="#FFF8E7"/>
</radialGradient>
</defs>
</svg>
