<svg width="92" height="92" viewBox="0 0 92 92" fill="none" xmlns="http://www.w3.org/2000/svg">
<circle cx="46" cy="46" r="46" fill="url(#paint0_radial_1010_7460)"/>
<g filter="url(#filter0_d_1010_7460)">
<path fill-rule="evenodd" clip-rule="evenodd" d="M48.1892 15.8456C48.1892 13.8713 46.5887 12.2709 44.6145 12.2709C42.6403 12.2709 41.0398 13.8713 41.0398 15.8456V28.1489C41.0398 30.9031 39.1588 33.2433 37.2868 35.2635C35.6357 37.0452 34.6265 39.4301 34.6265 42.0508V78.0399C34.6265 79.3621 35.6983 80.434 37.0205 80.434H52.209C53.5312 80.434 54.6031 79.3621 54.6031 78.0399V42.0508C54.6031 39.43 53.5937 37.045 51.9425 35.2632C50.0703 33.243 48.1892 30.9027 48.1892 28.1484V15.8456Z" fill="url(#paint1_linear_1010_7460)"/>
<rect x="40.4897" y="8.6228" width="8.24921" height="4.94952" rx="0.532014" fill="#E43FFF"/>
<rect x="41.0059" y="12.7475" width="7.14931" height="11.5489" fill="url(#paint2_linear_1010_7460)"/>
<path opacity="0.4" d="M43.1542 12.7474C43.374 12.7474 43.5755 17.2344 43.7221 24.4872C43.7587 26.2594 43.8594 28.3902 43.3557 30.5722C42.8611 32.7235 41.8995 34.9772 40.4615 36.8723C40.1227 37.3436 39.7838 37.8148 39.4449 38.286C39.1701 38.7675 38.8679 39.2182 38.6115 39.7099C38.1718 40.7446 37.7963 41.851 37.7322 43.0393L37.6681 43.9305V44.9242C37.6681 45.5901 37.6681 46.2559 37.6681 46.932C37.6681 48.2843 37.6681 49.6467 37.6681 51.0297C37.6681 62.1036 37.6412 61.8244 37.4947 69.0772C37.3481 76.3301 37.2104 77.4886 36.9906 77.4886C36.7707 77.4886 36.5055 76.3301 36.359 69.0772C36.2124 61.8244 36.0562 62.1036 36.0562 51.0297C36.0562 49.6467 36.0562 48.274 36.0562 46.932C36.0562 46.2559 36.0562 45.5901 36.0562 44.9242V43.9305L36.1477 42.8651C36.2485 41.4412 36.6973 40.1095 37.2468 38.9007C37.549 38.3167 37.9245 37.7636 38.2543 37.2309C38.6023 36.7596 38.9503 36.2884 39.2984 35.8274C40.6722 34.0859 41.5331 32.1395 42.0552 30.1932C42.5589 28.2365 42.5406 26.3414 42.5772 24.4974C42.7237 17.2446 42.9252 12.7577 43.145 12.7577L43.1542 12.7474Z" fill="white"/>
<path d="M34.6807 45.1942H50.0971C50.3909 45.1942 50.6291 45.4324 50.6291 45.7262V69.9598C50.6291 70.2536 50.3909 70.4918 50.0971 70.4918H34.6807V45.1942Z" fill="#862DDF"/>
<path fill-rule="evenodd" clip-rule="evenodd" d="M34.6812 69.5096V54.5928C36.2919 53.2932 38.8785 51.7714 41.9813 51.4096C45.5763 50.9904 48.8564 48.7201 50.6296 47.1193V62.8679C49.1032 63.6683 46.1309 64.8463 41.9813 65.4915C38.5094 66.0313 36.1064 67.8576 34.6812 69.5096Z" fill="url(#paint3_radial_1010_7460)"/>
</g>
<defs>
<filter id="filter0_d_1010_7460" x="29.3063" y="4.36669" width="30.6168" height="82.4515" filterUnits="userSpaceOnUse" color-interpolation-filters="sRGB">
<feFlood flood-opacity="0" result="BackgroundImageFix"/>
<feColorMatrix in="SourceAlpha" type="matrix" values="0 0 0 0 0 0 0 0 0 0 0 0 0 0 0 0 0 0 127 0" result="hardAlpha"/>
<feOffset dy="1.06403"/>
<feGaussianBlur stdDeviation="2.66007"/>
<feComposite in2="hardAlpha" operator="out"/>
<feColorMatrix type="matrix" values="0 0 0 0 0.388235 0 0 0 0 0.188235 0 0 0 0 0.545098 0 0 0 1 0"/>
<feBlend mode="normal" in2="BackgroundImageFix" result="effect1_dropShadow_1010_7460"/>
<feBlend mode="normal" in="SourceGraphic" in2="effect1_dropShadow_1010_7460" result="shape"/>
</filter>
<radialGradient id="paint0_radial_1010_7460" cx="0" cy="0" r="1" gradientUnits="userSpaceOnUse" gradientTransform="translate(46 46) rotate(90) scale(46)">
<stop offset="0.223958" stop-color="#1C1E24" stop-opacity="0"/>
<stop offset="1" stop-color="#A72ABE"/>
</radialGradient>
<linearGradient id="paint1_linear_1010_7460" x1="44.6147" y1="12.1792" x2="44.6147" y2="70.1237" gradientUnits="userSpaceOnUse">
<stop stop-color="#FF9C4B"/>
<stop offset="1" stop-color="#D120F0"/>
</linearGradient>
<linearGradient id="paint2_linear_1010_7460" x1="44.5805" y1="12.7475" x2="44.5805" y2="24.2964" gradientUnits="userSpaceOnUse">
<stop stop-color="#E43FFF"/>
<stop offset="0.916667" stop-color="#8200BF"/>
</linearGradient>
<radialGradient id="paint3_radial_1010_7460" cx="0" cy="0" r="1" gradientUnits="userSpaceOnUse" gradientTransform="translate(42.6491 58.2617) rotate(90) scale(10.5865 8.01491)">
<stop stop-color="#FFC634"/>
<stop offset="1" stop-color="#FFF8E7"/>
</radialGradient>
</defs>
</svg>
