<svg width="35" height="55" viewBox="0 0 35 55" fill="none" xmlns="http://www.w3.org/2000/svg">
<g filter="url(#filter0_d_788_7698)">
<path fill-rule="evenodd" clip-rule="evenodd" d="M15.6459 19.3668C15.6461 19.3668 15.6462 19.3667 15.6462 19.3665L15.6374 13.0001C15.6364 12.2502 16.2435 11.6414 16.9934 11.6404L18.1854 11.6387C18.9353 11.6377 19.5441 12.2448 19.5452 12.9947L19.5526 18.3596C19.5534 18.9552 19.9423 19.4808 20.5117 19.6557L22.2976 20.2043C22.867 20.3792 23.2559 20.9048 23.2567 21.5004L23.2839 41.1405C23.2853 42.1589 22.4609 42.9855 21.4426 42.987L13.8874 42.9974C12.8691 42.9988 12.0424 42.1744 12.041 41.1561L12.0138 21.5107C12.0129 20.9176 12.3972 20.3926 12.9628 20.214L15.6459 19.3668C15.6459 19.3668 15.6459 19.3668 15.6459 19.3668V19.3668Z" fill="url(#paint0_linear_788_7698)"/>
</g>
<rect x="15.1802" y="11.0067" width="4.81651" height="3.6351" rx="0.460975" transform="rotate(-0.0793308 15.1802 11.0067)" fill="url(#paint1_linear_788_7698)"/>
<path d="M13.0835 20.9142L15.9673 20.9102C16.5922 20.9093 17.0995 21.4152 17.1004 22.0402L17.1294 42.993L13.1141 42.9986L13.0835 20.9142Z" fill="url(#paint2_linear_788_7698)"/>
<rect x="17.5005" y="20.9081" width="5.62148" height="0.535379" rx="0.26769" transform="rotate(-0.0793308 17.5005 20.9081)" fill="url(#paint3_linear_788_7698)"/>
<rect x="18.0396" y="23.4503" width="5.21995" height="17.1321" transform="rotate(-0.0793308 18.0396 23.4503)" fill="url(#paint4_linear_788_7698)"/>
<rect x="18.5757" y="23.985" width="4.68457" height="15.9275" transform="rotate(-0.0793308 18.5757 23.985)" fill="url(#paint5_linear_788_7698)"/>
<g clip-path="url(#clip0_788_7698)">
<rect x="19.3813" y="25.59" width="8.82603" height="14.0311" rx="4.41302" transform="rotate(-0.0793308 19.3813 25.59)" fill="url(#paint6_radial_788_7698)"/>
</g>
<defs>
<filter id="filter0_d_788_7698" x="0.698243" y="0.323243" width="33.9011" height="53.9895" filterUnits="userSpaceOnUse" color-interpolation-filters="sRGB">
<feFlood flood-opacity="0" result="BackgroundImageFix"/>
<feColorMatrix in="SourceAlpha" type="matrix" values="0 0 0 0 0 0 0 0 0 0 0 0 0 0 0 0 0 0 127 0" result="hardAlpha"/>
<feOffset/>
<feGaussianBlur stdDeviation="5.65771"/>
<feComposite in2="hardAlpha" operator="out"/>
<feColorMatrix type="matrix" values="0 0 0 0 0.404167 0 0 0 0 0.331181 0 0 0 0 0.0724132 0 0 0 0.25 0"/>
<feBlend mode="normal" in2="BackgroundImageFix" result="effect1_dropShadow_788_7698"/>
<feBlend mode="normal" in="SourceGraphic" in2="effect1_dropShadow_788_7698" result="shape"/>
</filter>
<linearGradient id="paint0_linear_788_7698" x1="17.589" y1="11.6395" x2="17.6324" y2="42.9922" gradientUnits="userSpaceOnUse">
<stop stop-color="#2A3C26"/>
<stop offset="0.333333" stop-color="#47A230"/>
<stop offset="1" stop-color="#FFDA16"/>
</linearGradient>
<linearGradient id="paint1_linear_788_7698" x1="15.1802" y1="11.6126" x2="20.0433" y2="13.9386" gradientUnits="userSpaceOnUse">
<stop stop-color="#FFAD31"/>
<stop offset="1" stop-color="#FF4848"/>
</linearGradient>
<linearGradient id="paint2_linear_788_7698" x1="18.0389" y1="23.1827" x2="13.4881" y2="23.1221" gradientUnits="userSpaceOnUse">
<stop stop-color="#FBFF27" stop-opacity="0.47"/>
<stop offset="1" stop-color="white" stop-opacity="0"/>
</linearGradient>
<linearGradient id="paint3_linear_788_7698" x1="17.8909" y1="21.1758" x2="22.4974" y2="21.1758" gradientUnits="userSpaceOnUse">
<stop stop-color="#FFEF63" stop-opacity="0.52"/>
<stop offset="1" stop-color="white" stop-opacity="0"/>
</linearGradient>
<linearGradient id="paint4_linear_788_7698" x1="20.6495" y1="23.4503" x2="20.6495" y2="40.5825" gradientUnits="userSpaceOnUse">
<stop stop-color="#FFF740"/>
<stop offset="1" stop-color="#97B544"/>
</linearGradient>
<linearGradient id="paint5_linear_788_7698" x1="20.918" y1="23.985" x2="20.918" y2="39.9125" gradientUnits="userSpaceOnUse">
<stop stop-color="#FF4B40"/>
<stop offset="1" stop-color="#FF6E1D"/>
</linearGradient>
<radialGradient id="paint6_radial_788_7698" cx="0" cy="0" r="1" gradientUnits="userSpaceOnUse" gradientTransform="translate(23.7944 32.6055) rotate(90) scale(7.01557 4.41302)">
<stop stop-color="#FFCB14"/>
<stop offset="1" stop-color="#F4FFB4"/>
</radialGradient>
<clipPath id="clip0_788_7698">
<rect width="3.8815" height="8.29838" fill="white" transform="translate(19.3813 25.59) rotate(-0.0793308)"/>
</clipPath>
</defs>
</svg>
