<svg viewBox="0 0 272 384" fill="none" xmlns="http://www.w3.org/2000/svg">
<g clip-path="url(#clip0_1263_15801)">
<circle cx="211.557" cy="102.557" r="48.8387" transform="rotate(122.993 211.557 102.557)" fill="url(#paint0_linear_1263_15801)"/>
<circle cx="39.0107" cy="231.011" r="31.0036" transform="rotate(-61.6349 39.0107 231.011)" fill="url(#paint1_linear_1263_15801)"/>
<path fill-rule="evenodd" clip-rule="evenodd" d="M122.086 88.8024C122.59 88.4902 123.081 88.1498 123.555 87.7806C133.267 80.2306 132.918 63.535 122.776 50.49C112.634 37.445 96.54 32.9905 86.8287 40.5405C85.6465 41.4596 84.6133 42.5143 83.7288 43.6814C83.2407 43.0498 82.7239 42.4262 82.1789 41.8134C74.218 32.8633 63.2517 29.6218 57.685 34.5732C55.1788 36.8024 54.1943 40.3122 54.5957 44.3144C53.6705 43.5758 52.6994 42.868 51.6844 42.196C37.9063 33.075 21.2325 33.9959 14.4424 44.2529C7.65234 54.5099 13.3172 70.2189 27.0953 79.3399C31.4011 82.1903 35.9897 84.06 40.471 84.9705C37.2756 86.3624 34.5788 88.5109 32.6662 91.4C25.8761 101.657 31.541 117.366 45.3191 126.487C51.4926 130.574 58.2475 132.645 64.4341 132.763L90.9425 150.311L128.744 93.2094L122.086 88.8024Z" fill="url(#paint2_linear_1263_15801)"/>
<g clip-path="url(#clip1_1263_15801)">
<path d="M147.765 54.9047C149.054 59.891 154.188 62.8762 159.234 61.5725C164.279 60.2687 167.325 55.1697 166.037 50.1834C164.748 45.1972 159.614 42.2119 154.568 43.5157C149.523 44.8194 146.477 49.9185 147.765 54.9047Z" fill="#24859B"/>
<path d="M147.776 54.1198C149.064 59.106 154.199 62.0913 159.244 60.7876C164.29 59.4838 167.335 54.3848 166.047 49.3985C164.759 44.4123 159.624 41.427 154.578 42.7308C149.533 44.0345 146.487 49.1335 147.776 54.1198Z" fill="#24869B"/>
<path d="M147.756 53.3175C149.045 58.3038 154.179 61.2891 159.225 59.9853C164.27 58.6816 167.316 53.5825 166.027 48.5963C164.739 43.61 159.604 40.6248 154.559 41.9285C149.513 43.2322 146.468 48.3313 147.756 53.3175Z" fill="#24879B"/>
<path d="M147.694 52.5065C148.982 57.4928 154.117 60.478 159.162 59.1743C164.208 57.8705 167.253 52.7715 165.965 47.7852C164.677 42.799 159.542 39.8137 154.496 41.1175C149.451 42.4212 146.405 47.5203 147.694 52.5065Z" fill="#23889B"/>
<path d="M147.598 51.684C148.886 56.6703 154.021 59.6555 159.066 58.3518C164.112 57.048 167.158 51.949 165.869 46.9627C164.581 41.9765 159.446 38.9912 154.4 40.295C149.355 41.5987 146.309 46.6978 147.598 51.684Z" fill="#23899B"/>
<path d="M147.465 50.8559C148.754 55.8421 153.888 58.8274 158.934 57.5236C163.979 56.2199 167.025 51.1209 165.736 46.1346C164.448 41.1484 159.313 38.1631 154.268 39.4668C149.222 40.7706 146.177 45.8696 147.465 50.8559Z" fill="#238A9B"/>
<path d="M147.294 50.0177C148.583 55.004 153.717 57.9893 158.763 56.6855C163.808 55.3818 166.854 50.2827 165.565 45.2965C164.277 40.3102 159.142 37.325 154.097 38.6287C149.051 39.9324 146.006 45.0315 147.294 50.0177Z" fill="#238B9C"/>
<path d="M147.092 49.1774C148.381 54.1637 153.515 57.1489 158.561 55.8452C163.606 54.5414 166.652 49.4424 165.363 44.4561C164.075 39.4699 158.94 36.4846 153.895 37.7884C148.849 39.0921 145.804 44.1912 147.092 49.1774Z" fill="#238C9C"/>
<path d="M146.859 48.3351C148.148 53.3214 153.282 56.3066 158.328 55.0029C163.373 53.6992 166.419 48.6001 165.131 43.6139C163.842 38.6276 158.708 35.6423 153.662 36.9461C148.617 38.2498 145.571 43.3489 146.859 48.3351Z" fill="#238D9C"/>
<path d="M146.591 47.4921C147.879 52.4784 153.014 55.4636 158.059 54.1599C163.105 52.8561 166.15 47.7571 164.862 42.7708C163.574 37.7846 158.439 34.7993 153.393 36.1031C148.348 37.4068 145.302 42.5059 146.591 47.4921Z" fill="#228E9C"/>
<path d="M146.287 46.6484C147.575 51.6346 152.71 54.6199 157.755 53.3161C162.801 52.0124 165.846 46.9133 164.558 41.9271C163.269 36.9408 158.135 33.9556 153.089 35.2593C148.044 36.5631 144.998 41.6621 146.287 46.6484Z" fill="#228F9C"/>
<path d="M145.952 45.807C147.241 50.7933 152.375 53.7786 157.421 52.4748C162.466 51.1711 165.512 46.072 164.224 41.0858C162.935 36.0995 157.801 33.1143 152.755 34.418C147.71 35.7218 144.664 40.8208 145.952 45.807Z" fill="#22909C"/>
<path d="M145.587 44.9638C146.876 49.95 152.011 52.9353 157.056 51.6316C162.101 50.3278 165.147 45.2288 163.859 40.2425C162.57 35.2563 157.436 32.271 152.39 33.5747C147.345 34.8785 144.299 39.9775 145.587 44.9638Z" fill="#22919C"/>
<path d="M145.189 44.1291C146.478 49.1153 151.612 52.1006 156.658 50.7968C161.703 49.4931 164.749 44.3941 163.46 39.4078C162.172 34.4215 157.037 31.4363 151.992 32.74C146.946 34.0438 143.901 39.1428 145.189 44.1291Z" fill="#22929C"/>
<path d="M144.762 43.3019C146.051 48.2882 151.185 51.2734 156.231 49.9697C161.276 48.666 164.322 43.5669 163.033 38.5807C161.745 33.5944 156.61 30.6091 151.565 31.9129C146.519 33.2166 143.474 38.3157 144.762 43.3019Z" fill="#22939C"/>
<path d="M144.307 42.4821C145.595 47.4683 150.73 50.4536 155.775 49.1499C160.821 47.8461 163.867 42.7471 162.578 37.7608C161.29 32.7746 156.155 29.7893 151.11 31.0931C146.064 32.3968 143.018 37.4958 144.307 42.4821Z" fill="#21949C"/>
<path d="M143.824 41.6742C145.113 46.6605 150.247 49.6457 155.293 48.342C160.338 47.0383 163.384 41.9392 162.095 36.953C160.807 31.9667 155.672 28.9815 150.627 30.2852C145.581 31.5889 142.536 36.688 143.824 41.6742Z" fill="#21959C"/>
<path d="M143.313 40.8737C144.601 45.8599 149.736 48.8452 154.782 47.5415C159.827 46.2377 162.873 41.1387 161.584 36.1524C160.296 31.1662 155.161 28.1809 150.116 29.4847C145.07 30.7884 142.025 35.8874 143.313 40.8737Z" fill="#21969D"/>
<path d="M142.77 40.0866C144.058 45.0728 149.193 48.0581 154.238 46.7544C159.284 45.4506 162.329 40.3516 161.041 35.3653C159.752 30.3791 154.618 27.3938 149.572 28.6975C144.527 30.0013 141.481 35.1003 142.77 40.0866Z" fill="#21979D"/>
<path d="M142.2 39.3163C143.489 44.3026 148.623 47.2878 153.669 45.9841C158.714 44.6804 161.76 39.5813 160.471 34.5951C159.183 29.6088 154.048 26.6235 149.003 27.9273C143.957 29.231 140.912 34.3301 142.2 39.3163Z" fill="#21989D"/>
<path d="M141.608 38.5568C142.897 43.5431 148.031 46.5283 153.077 45.2246C158.122 43.9208 161.168 38.8218 159.88 33.8355C158.591 28.8493 153.456 25.864 148.411 27.1678C143.366 28.4715 140.32 33.5706 141.608 38.5568Z" fill="#20999D"/>
<path d="M140.987 37.82C142.275 42.8062 147.41 45.7915 152.455 44.4878C157.501 43.184 160.546 38.085 159.258 33.0987C157.97 28.1125 152.835 25.1272 147.789 26.4309C142.744 27.7347 139.698 32.8337 140.987 37.82Z" fill="#209A9D"/>
<path d="M140.339 37.0998C141.627 42.086 146.762 45.0713 151.808 43.7675C156.853 42.4638 159.899 37.3648 158.61 32.3785C157.322 27.3923 152.187 24.407 147.142 25.7107C142.096 27.0145 139.051 32.1135 140.339 37.0998Z" fill="#209B9D"/>
<path d="M139.671 36.4001C140.959 41.3863 146.094 44.3716 151.14 43.0678C156.185 41.7641 159.231 36.665 157.942 31.6788C156.654 26.6925 151.519 23.7073 146.474 25.011C141.428 26.3148 138.383 31.4138 139.671 36.4001Z" fill="#209C9D"/>
<path d="M138.978 35.7218C140.267 40.7081 145.401 43.6934 150.447 42.3896C155.492 41.0859 158.538 35.9868 157.25 31.0006C155.961 26.0143 150.827 23.0291 145.781 24.3328C140.736 25.6365 137.69 30.7356 138.978 35.7218Z" fill="#209D9D"/>
<path d="M138.256 35.0661C139.544 40.0523 144.679 43.0376 149.725 41.7339C154.77 40.4301 157.816 35.3311 156.527 30.3448C155.239 25.3586 150.104 22.3733 145.059 23.677C140.013 24.9808 136.968 30.0798 138.256 35.0661Z" fill="#209E9D"/>
<path d="M137.516 34.4401C138.804 39.4264 143.939 42.4116 148.984 41.1079C154.03 39.8041 157.076 34.7051 155.787 29.7188C154.499 24.7326 149.364 21.7473 144.319 23.0511C139.273 24.3548 136.227 29.4539 137.516 34.4401Z" fill="#1F9F9D"/>
<path d="M136.756 33.8344C138.044 38.8206 143.179 41.8059 148.224 40.5022C153.27 39.1984 156.315 34.0994 155.027 29.1131C153.738 24.1269 148.604 21.1416 143.558 22.4454C138.513 23.7491 135.467 28.8481 136.756 33.8344Z" fill="#1FA09E"/>
<path d="M135.969 33.2655C137.258 38.2518 142.392 41.2371 147.438 39.9333C152.483 38.6296 155.529 33.5305 154.241 28.5443C152.952 23.558 147.818 20.5728 142.772 21.8765C137.727 23.1802 134.681 28.2793 135.969 33.2655Z" fill="#1FA19E"/>
<path d="M135.164 32.7214C136.453 37.7076 141.587 40.6929 146.633 39.3891C151.678 38.0854 154.724 32.9863 153.435 28.0001C152.147 23.0138 147.012 20.0286 141.967 21.3323C136.921 22.6361 133.876 27.7351 135.164 32.7214Z" fill="#1FA29E"/>
<path d="M134.337 32.2084C135.625 37.1947 140.76 40.1799 145.805 38.8762C150.851 37.5724 153.896 32.4734 152.608 27.4871C151.319 22.5009 146.185 19.5156 141.139 20.8194C136.094 22.1231 133.048 27.2222 134.337 32.2084Z" fill="#1FA39E"/>
<path d="M133.492 31.7297C134.781 36.7159 139.916 39.7012 144.961 38.3974C150.006 37.0937 153.052 31.9946 151.764 27.0084C150.475 22.0221 145.341 19.0369 140.295 20.3406C135.25 21.6444 132.204 26.7434 133.492 31.7297Z" fill="#1EA49E"/>
<path d="M132.627 31.2863C133.916 36.2725 139.05 39.2578 144.096 37.9541C149.141 36.6503 152.187 31.5513 150.898 26.565C149.61 21.5788 144.475 18.5935 139.43 19.8973C134.384 21.201 131.339 26.3 132.627 31.2863Z" fill="#1EA59E"/>
<path d="M131.74 30.8786C133.029 35.8648 138.164 38.8501 143.209 37.5464C148.255 36.2426 151.3 31.1436 150.012 26.1573C148.723 21.1711 143.589 18.1858 138.543 19.4895C133.498 20.7933 130.452 25.8923 131.74 30.8786Z" fill="#1EA69E"/>
<path d="M130.839 30.5102C132.127 35.4964 137.262 38.4817 142.307 37.1779C147.353 35.8742 150.398 30.7752 149.11 25.7889C147.821 20.8027 142.687 17.8174 137.641 19.1211C132.596 20.4249 129.55 25.5239 130.839 30.5102Z" fill="#1EA79E"/>
<path d="M129.922 30.1806C131.21 35.1668 136.345 38.1521 141.39 36.8484C146.436 35.5446 149.481 30.4456 148.193 25.4593C146.904 20.4731 141.77 17.4878 136.724 18.7915C131.679 20.0953 128.633 25.1943 129.922 30.1806Z" fill="#1EA89E"/>
<path d="M128.984 29.8913C130.273 34.8775 135.407 37.8628 140.453 36.559C145.498 35.2553 148.544 30.1563 147.256 25.17C145.967 20.1838 140.832 17.1985 135.787 18.5022C130.741 19.806 127.696 24.905 128.984 29.8913Z" fill="#1EA99E"/>
<path d="M128.033 29.6457C129.322 34.6319 134.456 37.6172 139.502 36.3134C144.547 35.0097 147.593 29.9106 146.304 24.9244C145.016 19.9381 139.881 16.9529 134.836 18.2566C129.79 19.5604 126.745 24.6594 128.033 29.6457Z" fill="#1DAA9E"/>
<path d="M127.068 29.444C128.356 34.4303 133.491 37.4155 138.536 36.1118C143.582 34.808 146.627 29.709 145.339 24.7227C144.051 19.7365 138.916 16.7512 133.87 18.055C128.825 19.3587 125.779 24.4578 127.068 29.444Z" fill="#1DAB9F"/>
<path d="M126.084 29.287C127.372 34.2733 132.507 37.2585 137.552 35.9548C142.598 34.6511 145.643 29.552 144.355 24.5658C143.066 19.5795 137.932 16.5942 132.886 17.898C127.841 19.2017 124.795 24.3008 126.084 29.287Z" fill="#1DAC9F"/>
<path d="M125.087 29.1786C126.375 34.1649 131.51 37.1501 136.555 35.8464C141.601 34.5427 144.646 29.4436 143.358 24.4574C142.069 19.4711 136.935 16.4858 131.889 17.7896C126.844 19.0933 123.798 24.1924 125.087 29.1786Z" fill="#1DAD9F"/>
<path d="M124.077 29.1188C125.365 34.1051 130.5 37.0903 135.545 35.7866C140.591 34.4828 143.637 29.3838 142.348 24.3975C141.06 19.4113 135.925 16.426 130.88 17.7298C125.834 19.0335 122.788 24.1326 124.077 29.1188Z" fill="#1DAE9F"/>
<path d="M123.054 29.1073C124.343 34.0936 129.477 37.0789 134.523 35.7751C139.568 34.4714 142.614 29.3723 141.325 24.3861C140.037 19.3998 134.902 16.4146 129.857 17.7183C124.811 19.022 121.766 24.1211 123.054 29.1073Z" fill="#1DAF9F"/>
<path d="M122.02 29.1491C123.308 34.1353 128.443 37.1206 133.488 35.8169C138.534 34.5131 141.579 29.4141 140.291 24.4278C139.003 19.4416 133.868 16.4563 128.822 17.76C123.777 19.0638 120.731 24.1628 122.02 29.1491Z" fill="#1CB09F"/>
<path d="M120.97 29.2497C122.259 34.2359 127.393 37.2212 132.439 35.9174C137.484 34.6137 140.53 29.5147 139.241 24.5284C137.953 19.5422 132.818 16.5569 127.773 17.8606C122.727 19.1644 119.682 24.2634 120.97 29.2497Z" fill="#1CB19F"/>
<path d="M119.913 29.3976C121.201 34.3839 126.336 37.3691 131.381 36.0654C136.427 34.7617 139.472 29.6626 138.184 24.6764C136.896 19.6901 131.761 16.7048 126.715 18.0086C121.67 19.3123 118.624 24.4114 119.913 29.3976Z" fill="#1CB29F"/>
<path d="M118.841 29.6093C120.13 34.5955 125.264 37.5808 130.31 36.2771C135.355 34.9733 138.401 29.8743 137.112 24.888C135.824 19.9018 130.689 16.9165 125.644 18.2203C120.598 19.524 117.553 24.623 118.841 29.6093Z" fill="#1CB39F"/>
<path d="M117.763 29.873C119.051 34.8592 124.186 37.8445 129.231 36.5407C134.277 35.237 137.322 30.1379 136.034 25.1517C134.746 20.1654 129.611 17.1802 124.565 18.4839C119.52 19.7877 116.474 24.8867 117.763 29.873Z" fill="#1CB49F"/>
<path d="M116.675 30.1991C117.963 35.1854 123.098 38.1707 128.144 36.8669C133.189 35.5632 136.235 30.4641 134.946 25.4779C133.658 20.4916 128.523 17.5064 123.478 18.8101C118.432 20.1138 115.387 25.2129 116.675 30.1991Z" fill="#1BB59F"/>
<path d="M115.578 30.5878C116.867 35.5741 122.001 38.5593 127.047 37.2556C132.092 35.9518 135.138 30.8528 133.85 25.8665C132.561 20.8803 127.426 17.895 122.381 19.1988C117.335 20.5025 114.29 25.6016 115.578 30.5878Z" fill="#1BB6A0"/>
<path d="M114.472 31.039C115.761 36.0252 120.895 39.0105 125.941 37.7068C130.986 36.403 134.032 31.304 132.743 26.3177C131.455 21.3315 126.32 18.3462 121.275 19.6499C116.229 20.9537 113.184 26.0527 114.472 31.039Z" fill="#1BB7A0"/>
<path d="M113.357 31.5529C114.645 36.5391 119.78 39.5244 124.826 38.2207C129.871 36.9169 132.917 31.8179 131.628 26.8316C130.34 21.8454 125.205 18.8601 120.16 20.1639C115.114 21.4676 112.069 26.5666 113.357 31.5529Z" fill="#1BB8A0"/>
<path d="M112.239 32.1327C113.527 37.119 118.662 40.1042 123.707 38.8005C128.753 37.4968 131.798 32.3977 130.51 27.4115C129.221 22.4252 124.087 19.4399 119.041 20.7437C113.996 22.0474 110.95 27.1465 112.239 32.1327Z" fill="#1BB9A0"/>
<path d="M111.109 32.7856C112.397 37.7718 117.532 40.7571 122.577 39.4533C127.623 38.1496 130.668 33.0505 129.38 28.0643C128.091 23.078 122.957 20.0928 117.911 21.3965C112.866 22.7003 109.82 27.7993 111.109 32.7856Z" fill="#1BBAA0"/>
<path d="M109.975 33.5046C111.264 38.4908 116.398 41.4761 121.444 40.1723C126.489 38.8686 129.535 33.7695 128.247 28.7833C126.958 23.797 121.823 20.8118 116.778 22.1155C111.732 23.4193 108.687 28.5183 109.975 33.5046Z" fill="#1ABAA0"/>
<path d="M108.84 34.2944C110.128 39.2806 115.263 42.2659 120.309 40.9621C125.354 39.6584 128.4 34.5593 127.111 29.5731C125.823 24.5868 120.688 21.6016 115.643 22.9053C110.597 24.2091 107.552 29.3081 108.84 34.2944Z" fill="#1ABBA0"/>
<path d="M107.698 35.1559C108.986 40.1422 114.121 43.1274 119.166 41.8237C124.212 40.52 127.258 35.4209 125.969 30.4347C124.681 25.4484 119.546 22.4631 114.501 23.7669C109.455 25.0706 106.409 30.1697 107.698 35.1559Z" fill="#1ABCA0"/>
<path d="M106.55 36.0944C107.839 41.0807 112.973 44.0659 118.019 42.7622C123.064 41.4584 126.11 36.3594 124.822 31.3731C123.533 26.3869 118.398 23.4016 113.353 24.7054C108.308 26.0091 105.262 31.1082 106.55 36.0944Z" fill="#1ABDA0"/>
<path d="M105.401 37.1032C106.689 42.0894 111.824 45.0747 116.869 43.771C121.915 42.4672 124.96 37.3682 123.672 32.3819C122.383 27.3957 117.249 24.4104 112.203 25.7142C107.158 27.0179 104.112 32.1169 105.401 37.1032Z" fill="#1ABEA0"/>
<path d="M104.251 38.1923C105.54 43.1786 110.675 46.1638 115.72 44.8601C120.766 43.5563 123.811 38.4573 122.523 33.471C121.234 28.4848 116.1 25.4995 111.054 26.8033C106.009 28.107 102.963 33.2061 104.251 38.1923Z" fill="#1ABFA1"/>
<path d="M103.098 39.363C104.386 44.3492 109.521 47.3345 114.566 46.0307C119.612 44.727 122.658 39.6279 121.369 34.6417C120.081 29.6554 114.946 26.6702 109.901 27.9739C104.855 29.2777 101.809 34.3767 103.098 39.363Z" fill="#19C0A1"/>
<path d="M101.939 40.61C103.227 45.5963 108.362 48.5815 113.407 47.2778C118.453 45.9741 121.498 40.875 120.21 35.8888C118.922 30.9025 113.787 27.9172 108.741 29.221C103.696 30.5247 100.65 35.6238 101.939 40.61Z" fill="#19C1A1"/>
<path d="M100.786 41.9406C102.074 46.9268 107.209 49.9121 112.255 48.6084C117.3 47.3046 120.346 42.2056 119.057 37.2193C117.769 32.2331 112.634 29.2478 107.589 30.5516C102.543 31.8553 99.4976 36.9543 100.786 41.9406Z" fill="#19C2A1"/>
<path d="M99.6289 43.3527C100.917 48.339 106.052 51.3242 111.097 50.0205C116.143 48.7167 119.189 43.6177 117.9 38.6314C116.612 33.6452 111.477 30.6599 106.432 31.9637C101.386 33.2674 98.3405 38.3665 99.6289 43.3527Z" fill="#19C3A1"/>
<path d="M98.47 44.8554C99.7584 49.8416 104.893 52.8269 109.939 51.5232C114.984 50.2194 118.03 45.1204 116.741 40.1341C115.453 35.1479 110.318 32.1626 105.273 33.4663C100.227 34.7701 97.1815 39.8691 98.47 44.8554Z" fill="#19C4A1"/>
<path d="M97.3752 46.3717C98.6637 51.358 103.798 54.3433 108.844 53.0395C113.889 51.7358 116.935 46.6367 115.647 41.6505C114.358 36.6642 109.223 33.679 104.178 34.9827C99.1325 36.2864 96.0868 41.3855 97.3752 46.3717Z" fill="#18C5A1"/>
<path d="M96.39 47.8595C97.6785 52.8458 102.813 55.8311 107.859 54.5273C112.904 53.2236 115.95 48.1245 114.661 43.1383C113.373 38.152 108.238 35.1668 103.193 36.4705C98.1473 37.7742 95.1016 42.8733 96.39 47.8595Z" fill="#18C6A1"/>
<path d="M95.5045 49.3217C96.793 54.3079 101.928 57.2932 106.973 55.9895C112.019 54.6857 115.064 49.5867 113.776 44.6004C112.487 39.6142 107.353 36.6289 102.307 37.9327C97.2618 39.2364 94.2161 44.3354 95.5045 49.3217Z" fill="#18C7A1"/>
<path d="M94.7273 50.7509C96.0157 55.7371 101.15 58.7224 106.196 57.4187C111.241 56.1149 114.287 51.0159 112.999 46.0296C111.71 41.0434 106.575 38.0581 101.53 39.3619C96.4845 40.6656 93.4389 45.7646 94.7273 50.7509Z" fill="#18C8A1"/>
<path d="M94.044 52.1508C95.3324 57.137 100.467 60.1223 105.513 58.8186C110.558 57.5148 113.604 52.4158 112.315 47.4295C111.027 42.4433 105.892 39.458 100.847 40.7618C95.8012 42.0655 92.7555 47.1645 94.044 52.1508Z" fill="#18C9A1"/>
<path d="M93.458 53.5155C94.7465 58.5018 99.8811 61.4871 104.927 60.1833C109.972 58.8796 113.018 53.7805 111.729 48.7943C110.441 43.808 105.306 40.8228 100.261 42.1265C95.2153 43.4302 92.1696 48.5293 93.458 53.5155Z" fill="#18CAA2"/>
<path d="M92.9661 54.851C94.2545 59.8372 99.3892 62.8225 104.435 61.5188C109.48 60.215 112.526 55.116 111.237 50.1297C109.949 45.1435 104.814 42.1582 99.7688 43.462C94.7233 44.7657 91.6776 49.8647 92.9661 54.851Z" fill="#17CBA2"/>
<path d="M92.562 56.1537C93.8505 61.14 98.9851 64.1252 104.031 62.8215C109.076 61.5178 112.122 56.4187 110.833 51.4325C109.545 46.4462 104.41 43.4609 99.3647 44.7647C94.3193 46.0684 91.2736 51.1675 92.562 56.1537Z" fill="#17CCA2"/>
<path d="M92.2494 57.4176C93.5378 62.4039 98.6725 65.3892 103.718 64.0854C108.763 62.7817 111.809 57.6826 110.521 52.6964C109.232 47.7101 104.098 44.7249 99.0521 46.0286C94.0066 47.3323 90.961 52.4314 92.2494 57.4176Z" fill="#17CDA2"/>
<path d="M92.0164 58.6559C93.3048 63.6422 98.4395 66.6274 103.485 65.3237C108.53 64.02 111.576 58.9209 110.288 53.9347C108.999 48.9484 103.865 45.9631 98.8191 47.2669C93.7736 48.5706 90.7279 53.6697 92.0164 58.6559Z" fill="#17CEA2"/>
<path d="M91.8689 59.8522C93.1573 64.8385 98.292 67.8237 103.337 66.52C108.383 65.2162 111.429 60.1172 110.14 55.1309C108.852 50.1447 103.717 47.1594 98.6716 48.4632C93.6261 49.7669 90.5805 54.866 91.8689 59.8522Z" fill="#17CFA2"/>
<path d="M91.794 61.0148C93.0824 66.0011 98.217 68.9863 103.263 67.6826C108.308 66.3788 111.354 61.2798 110.065 56.2935C108.777 51.3073 103.642 48.322 98.5967 49.6258C93.5512 50.9295 90.5055 56.0286 91.794 61.0148Z" fill="#17D0A2"/>
<path d="M91.8008 62.141C93.0892 67.1273 98.2239 70.1125 103.269 68.8088C108.315 67.5051 111.361 62.406 110.072 57.4198C108.784 52.4335 103.649 49.4483 98.6035 50.752C93.558 52.0557 90.5124 57.1548 91.8008 62.141Z" fill="#16D1A2"/>
<path d="M91.8755 63.2348C93.1639 68.221 98.2986 71.2063 103.344 69.9026C108.39 68.5988 111.435 63.4998 110.147 58.5135C108.858 53.5273 103.724 50.542 98.6782 51.8457C93.6327 53.1495 90.5871 58.2485 91.8755 63.2348Z" fill="#16D2A2"/>
<path d="M92.0202 64.2853C93.3086 69.2716 98.4432 72.2568 103.489 70.9531C108.534 69.6493 111.58 64.5503 110.291 59.564C109.003 54.5778 103.868 51.5925 98.8229 52.8963C93.7774 54.2 90.7317 59.2991 92.0202 64.2853Z" fill="#16D3A2"/>
<path d="M92.2312 65.2987C93.5196 70.285 98.6543 73.2703 103.7 71.9665C108.745 70.6628 111.791 65.5637 110.502 60.5775C109.214 55.5912 104.079 52.606 99.0339 53.9097C93.9884 55.2134 90.9428 60.3125 92.2312 65.2987Z" fill="#16D4A2"/>
<path d="M92.5088 66.2748C93.7972 71.2611 98.9319 74.2463 103.977 72.9426C109.023 71.6389 112.069 66.5398 110.78 61.5536C109.492 56.5673 104.357 53.582 99.3115 54.8858C94.266 56.1895 91.2204 61.2886 92.5088 66.2748Z" fill="#16D5A3"/>
<path d="M92.8422 67.2116C94.1306 72.1978 99.2653 75.1831 104.311 73.8794C109.356 72.5756 112.402 67.4766 111.113 62.4903C109.825 57.5041 104.69 54.5188 99.6449 55.8225C94.5994 57.1263 91.5537 62.2253 92.8422 67.2116Z" fill="#15D6A3"/>
<path d="M93.2407 68.1064C94.5292 73.0926 99.6638 76.0779 104.709 74.7741C109.755 73.4704 112.8 68.3713 111.512 63.3851C110.224 58.3988 105.089 55.4136 100.043 56.7173C94.998 58.0211 91.9523 63.1201 93.2407 68.1064Z" fill="#15D7A3"/>
<path d="M93.6843 68.9592C94.9728 73.9454 100.107 76.9307 105.153 75.6269C110.198 74.3232 113.244 69.2241 111.956 64.2379C110.667 59.2516 105.533 56.2664 100.487 57.5701C95.4416 58.8739 92.3959 63.9729 93.6843 68.9592Z" fill="#15D8A3"/>
<path d="M94.1885 69.7716C95.4769 74.7579 100.612 77.7432 105.657 76.4394C110.703 75.1357 113.748 70.0366 112.46 65.0504C111.171 60.0641 106.037 57.0789 100.991 58.3826C95.9457 59.6864 92.9 64.7854 94.1885 69.7716Z" fill="#15D9A3"/>
<path d="M94.7377 70.5422C96.0261 75.5284 101.161 78.5137 106.206 77.2099C111.252 75.9062 114.297 70.8071 113.009 65.8209C111.721 60.8346 106.586 57.8494 101.54 59.1531C96.4949 60.4569 93.4492 65.5559 94.7377 70.5422Z" fill="#15DAA3"/>
<path d="M95.3307 71.2663C96.6191 76.2525 101.754 79.2378 106.799 77.9341C111.845 76.6303 114.89 71.5313 113.602 66.545C112.314 61.5588 107.179 58.5735 102.133 59.8772C97.0879 61.181 94.0423 66.28 95.3307 71.2663Z" fill="#15DBA3"/>
<path d="M95.9686 71.9487C97.2571 76.9349 102.392 79.9202 107.437 78.6164C112.483 77.3127 115.528 72.2136 114.24 67.2274C112.951 62.2411 107.817 59.2559 102.771 60.5596C97.7259 61.8634 94.6802 66.9624 95.9686 71.9487Z" fill="#14DCA3"/>
<path d="M96.6517 72.5895C97.9402 77.5758 103.075 80.561 108.12 79.2573C113.166 77.9535 116.211 72.8545 114.923 67.8683C113.635 62.882 108.5 59.8967 103.454 61.2005C98.409 62.5042 95.3633 67.6033 96.6517 72.5895Z" fill="#14DDA3"/>
<path d="M97.363 73.1828C98.6515 78.169 103.786 81.1543 108.832 79.8506C113.877 78.5468 116.923 73.4478 115.634 68.4615C114.346 63.4753 109.211 60.49 104.166 61.7937C99.1203 63.0975 96.0746 68.1965 97.363 73.1828Z" fill="#14DEA3"/>
<path d="M98.1135 73.7309C99.402 78.7171 104.537 81.7024 109.582 80.3986C114.628 79.0949 117.673 73.9959 116.385 69.0096C115.096 64.0234 109.962 61.0381 104.916 62.3418C99.8708 63.6456 96.8251 68.7446 98.1135 73.7309Z" fill="#14DFA4"/>
<path d="M98.897 74.2304C100.185 79.2166 105.32 82.2019 110.366 80.8982C115.411 79.5944 118.457 74.4954 117.168 69.5091C115.88 64.5229 110.745 61.5376 105.7 62.8413C100.654 64.1451 97.6085 69.2441 98.897 74.2304Z" fill="#14E0A4"/>
<path d="M99.7041 74.6835C100.993 79.6698 106.127 82.655 111.173 81.3513C116.218 80.0475 119.264 74.9485 117.975 69.9622C116.687 64.976 111.552 61.9907 106.507 63.2945C101.461 64.5982 98.4157 69.6973 99.7041 74.6835Z" fill="#13E1A4"/>
<path d="M100.539 75.0895C101.828 80.0758 106.963 83.061 112.008 81.7573C117.053 80.4535 120.099 75.3545 118.811 70.3682C117.522 65.382 112.388 62.3967 107.342 63.7005C102.297 65.0042 99.251 70.1033 100.539 75.0895Z" fill="#13E2A4"/>
<path d="M101.397 75.4443C102.686 80.4305 107.82 83.4158 112.866 82.112C117.911 80.8083 120.957 75.7092 119.668 70.723C118.38 65.7367 113.245 62.7515 108.2 64.0552C103.154 65.359 100.109 70.458 101.397 75.4443Z" fill="#13E3A4"/>
<path d="M102.274 75.7543C103.562 80.7406 108.697 83.7258 113.742 82.4221C118.788 81.1183 121.834 76.0193 120.545 71.033C119.257 66.0468 114.122 63.0615 109.077 64.3653C104.031 65.669 100.985 70.7681 102.274 75.7543Z" fill="#13E4A4"/>
<path d="M103.167 76.0099C104.455 80.9962 109.59 83.9815 114.635 82.6777C119.681 81.374 122.726 76.2749 121.438 71.2887C120.15 66.3024 115.015 63.3171 109.969 64.6209C104.924 65.9246 101.878 71.0237 103.167 76.0099Z" fill="#13E5A4"/>
<path d="M104.073 76.217C105.361 81.2032 110.496 84.1885 115.541 82.8847C120.587 81.581 123.632 76.4819 122.344 71.4957C121.055 66.5094 115.921 63.5242 110.875 64.8279C105.83 66.1317 102.784 71.2307 104.073 76.217Z" fill="#13E6A4"/>
<path d="M104.991 76.3756C106.28 81.3619 111.414 84.3472 116.46 83.0434C121.505 81.7397 124.551 76.6406 123.263 71.6544C121.974 66.6681 116.84 63.6829 111.794 64.9866C106.749 66.2904 103.703 71.3894 104.991 76.3756Z" fill="#12E7A4"/>
<path d="M105.916 76.4777C107.204 81.464 112.339 84.4492 117.384 83.1455C122.43 81.8417 125.475 76.7427 124.187 71.7564C122.898 66.7702 117.764 63.7849 112.718 65.0887C107.673 66.3924 104.627 71.4915 105.916 76.4777Z" fill="#12E8A4"/>
<path d="M106.842 76.5292C108.13 81.5155 113.265 84.5007 118.311 83.197C123.356 81.8932 126.402 76.7942 125.113 71.8079C123.825 66.8217 118.69 63.8364 113.645 65.1402C108.599 66.4439 105.554 71.543 106.842 76.5292Z" fill="#12E9A4"/>
<path d="M107.775 76.5287C109.064 81.515 114.198 84.5002 119.244 83.1965C124.289 81.8928 127.335 76.7937 126.047 71.8075C124.758 66.8212 119.624 63.8359 114.578 65.1397C109.533 66.4434 106.487 71.5425 107.775 76.5287Z" fill="#12EAA5"/>
<path d="M108.704 76.4694C109.992 81.4557 115.127 84.4409 120.172 83.1372C125.218 81.8334 128.263 76.7344 126.975 71.7481C125.687 66.7619 120.552 63.7766 115.506 65.0804C110.461 66.3841 107.415 71.4832 108.704 76.4694Z" fill="#12EBA5"/>
<path d="M109.634 76.3593C110.922 81.3455 116.057 84.3308 121.103 83.0271C126.148 81.7233 129.194 76.6243 127.905 71.638C126.617 66.6518 121.482 63.6665 116.437 64.9703C111.391 66.274 108.346 71.373 109.634 76.3593Z" fill="#12ECA5"/>
<path d="M110.55 76.1928C111.838 81.179 116.973 84.1643 122.018 82.8606C127.064 81.5568 130.11 76.4578 128.821 71.4715C127.533 66.4853 122.398 63.5 117.353 64.8038C112.307 66.1075 109.261 71.2065 110.55 76.1928Z" fill="#11EDA5"/>
<path d="M111.462 75.9721C112.75 80.9583 117.885 83.9436 122.93 82.6399C127.976 81.3361 131.022 76.2371 129.733 71.2508C128.445 66.2646 123.31 63.2793 118.265 64.583C113.219 65.8868 110.173 70.9858 111.462 75.9721Z" fill="#11EEA5"/>
<path d="M111.689 75.9086C112.977 80.8949 118.112 83.8801 123.158 82.5764C128.203 81.2726 131.249 76.1736 129.96 71.1873C128.672 66.2011 123.537 63.2158 118.492 64.5196C113.446 65.8233 110.401 70.9224 111.689 75.9086Z" fill="#11EFA5"/>
<path d="M113.079 75.4189C114.368 80.4051 119.502 83.3904 124.548 82.0866C129.593 80.7829 132.639 75.6838 131.351 70.6976C130.062 65.7113 124.928 62.7261 119.882 64.0298C114.837 65.3336 111.791 70.4326 113.079 75.4189Z" fill="#11EEA6"/>
<path d="M113.786 75.111C115.075 80.0973 120.209 83.0825 125.255 81.7788C130.3 80.475 133.346 75.376 132.057 70.3897C130.769 65.4035 125.634 62.4182 120.589 63.722C115.543 65.0257 112.498 70.1247 113.786 75.111Z" fill="#12EDA6"/>
<path d="M114.483 74.7653C115.772 79.7516 120.906 82.7368 125.952 81.4331C130.997 80.1293 134.043 75.0303 132.754 70.044C131.466 65.0578 126.331 62.0725 121.286 63.3763C116.24 64.68 113.195 69.7791 114.483 74.7653Z" fill="#12ECA7"/>
<path d="M115.163 74.3739C116.452 79.3602 121.586 82.3455 126.632 81.0417C131.677 79.738 134.723 74.6389 133.435 69.6527C132.146 64.6664 127.012 61.6812 121.966 62.9849C116.921 64.2886 113.875 69.3877 115.163 74.3739Z" fill="#12EBA8"/>
<path d="M115.824 73.9474C117.113 78.9337 122.247 81.9189 127.293 80.6152C132.338 79.3115 135.384 74.2124 134.096 69.2262C132.807 64.2399 127.672 61.2546 122.627 62.5584C117.581 63.8621 114.536 68.9612 115.824 73.9474Z" fill="#13EAA8"/>
<path d="M116.469 73.4799C117.758 78.4661 122.893 81.4514 127.938 80.1477C132.984 78.8439 136.029 73.7449 134.741 68.7586C133.452 63.7724 128.318 60.7871 123.272 62.0909C118.227 63.3946 115.181 68.4936 116.469 73.4799Z" fill="#13E9A9"/>
<path d="M117.094 72.9726C118.383 77.9588 123.517 80.9441 128.563 79.6403C133.608 78.3366 136.654 73.2376 135.366 68.2513C134.077 63.2651 128.942 60.2798 123.897 61.5835C118.851 62.8873 115.806 67.9863 117.094 72.9726Z" fill="#13E8AA"/>
<path d="M117.693 72.4218C118.981 77.408 124.116 80.3933 129.161 79.0896C134.207 77.7858 137.252 72.6868 135.964 67.7005C134.675 62.7143 129.541 59.729 124.495 61.0328C119.45 62.3365 116.404 67.4355 117.693 72.4218Z" fill="#14E7AA"/>
<path d="M118.271 71.8315C119.559 76.8177 124.694 79.803 129.739 78.4992C134.785 77.1955 137.83 72.0964 136.542 67.1102C135.253 62.1239 130.119 59.1387 125.073 60.4424C120.028 61.7462 116.982 66.8452 118.271 71.8315Z" fill="#14E6AB"/>
<path d="M118.828 71.2011C120.117 76.1873 125.251 79.1726 130.297 77.8689C135.342 76.5651 138.388 71.4661 137.099 66.4798C135.811 61.4936 130.676 58.5083 125.631 59.8121C120.585 61.1158 117.54 66.2148 118.828 71.2011Z" fill="#14E5AC"/>
<path d="M119.354 70.5285C120.643 75.5147 125.777 78.5 130.823 77.1963C135.868 75.8925 138.914 70.7935 137.626 65.8072C136.337 60.821 131.203 57.8357 126.157 59.1394C121.112 60.4432 118.066 65.5422 119.354 70.5285Z" fill="#14E4AC"/>
<path d="M119.853 69.808C121.142 74.7943 126.276 77.7795 131.322 76.4758C136.367 75.1721 139.413 70.073 138.124 65.0868C136.836 60.1005 131.701 57.1152 126.656 58.419C121.61 59.7227 118.565 64.8218 119.853 69.808Z" fill="#15E3AD"/>
<path d="M120.322 69.0502C121.61 74.0365 126.745 77.0217 131.79 75.718C136.836 74.4142 139.882 69.3152 138.593 64.3289C137.305 59.3427 132.17 56.3574 127.125 57.6612C122.079 58.9649 119.033 64.064 120.322 69.0502Z" fill="#15E2AE"/>
<path d="M120.76 68.2502C122.048 73.2364 127.183 76.2217 132.228 74.9179C137.274 73.6142 140.319 68.5151 139.031 63.5289C137.742 58.5426 132.608 55.5574 127.562 56.8611C122.517 58.1649 119.471 63.2639 120.76 68.2502Z" fill="#15E1AE"/>
<path d="M121.165 67.4035C122.453 72.3897 127.588 75.375 132.633 74.0713C137.679 72.7675 140.724 67.6685 139.436 62.6822C138.148 57.696 133.013 54.7107 127.967 56.0144C122.922 57.3182 119.876 62.4172 121.165 67.4035Z" fill="#16E0AF"/>
<path d="M121.533 66.5112C122.821 71.4974 127.956 74.4827 133.001 73.1789C138.047 71.8752 141.092 66.7761 139.804 61.7899C138.516 56.8036 133.381 53.8184 128.335 55.1221C123.29 56.4259 120.244 61.5249 121.533 66.5112Z" fill="#16DFB0"/>
<path d="M121.87 65.5768C123.158 70.5631 128.293 73.5483 133.338 72.2446C138.384 70.9409 141.429 65.8418 140.141 60.8556C138.852 55.8693 133.718 52.884 128.672 54.1878C123.627 55.4915 120.581 60.5906 121.87 65.5768Z" fill="#16DEB1"/>
<path d="M122.177 64.5851C123.465 69.5714 128.6 72.5566 133.645 71.2529C138.691 69.9492 141.736 64.8501 140.448 59.8639C139.159 54.8776 134.025 51.8923 128.979 53.1961C123.934 54.4998 120.888 59.5989 122.177 64.5851Z" fill="#17DDB1"/>
<path d="M122.461 63.5842C123.749 68.5704 128.884 71.5557 133.929 70.2519C138.975 68.9482 142.02 63.8491 140.732 58.8629C139.444 53.8766 134.309 50.8914 129.263 52.1951C124.218 53.4989 121.172 58.5979 122.461 63.5842Z" fill="#17DCB2"/>
<path d="M122.713 62.5964C124.001 67.5826 129.136 70.5679 134.181 69.2641C139.227 67.9604 142.272 62.8613 140.984 57.8751C139.696 52.8888 134.561 49.9036 129.515 51.2073C124.47 52.5111 121.424 57.6101 122.713 62.5964Z" fill="#17DBB3"/>
<path d="M122.94 61.6103C124.228 66.5965 129.363 69.5818 134.409 68.278C139.454 66.9743 142.5 61.8753 141.211 56.889C139.923 51.9028 134.788 48.9175 129.743 50.2212C124.697 51.525 121.652 56.624 122.94 61.6103Z" fill="#18DAB3"/>
<path d="M123.143 60.6303C124.432 65.6165 129.566 68.6018 134.612 67.2981C139.657 65.9943 142.703 60.8953 141.415 55.909C140.126 50.9228 134.992 47.9375 129.946 49.2413C124.901 50.545 121.855 55.644 123.143 60.6303Z" fill="#18D9B4"/>
<path d="M123.313 59.6586C124.602 64.6449 129.736 67.6301 134.782 66.3264C139.827 65.0226 142.873 59.9236 141.585 54.9373C140.296 49.9511 135.162 46.9658 130.116 48.2696C125.071 49.5733 122.025 54.6724 123.313 59.6586Z" fill="#18D8B5"/>
<path d="M123.458 58.6886C124.747 63.6749 129.881 66.6602 134.927 65.3564C139.972 64.0527 143.018 58.9536 141.73 53.9674C140.441 48.9811 135.307 45.9959 130.261 47.2996C125.216 48.6033 122.17 53.7024 123.458 58.6886Z" fill="#19D7B5"/>
<path d="M123.581 57.7294C124.869 62.7157 130.004 65.7009 135.05 64.3972C140.095 63.0934 143.141 57.9944 141.852 53.0081C140.564 48.0219 135.429 45.0366 130.384 46.3404C125.338 47.6441 122.293 52.7432 123.581 57.7294Z" fill="#19D6B6"/>
<path d="M123.675 56.7778C124.963 61.764 130.098 64.7493 135.143 63.4455C140.189 62.1418 143.235 57.0427 141.946 52.0565C140.658 47.0702 135.523 44.085 130.478 45.3887C125.432 46.6925 122.386 51.7915 123.675 56.7778Z" fill="#19D5B7"/>
<path d="M123.74 55.8332C125.029 60.8194 130.163 63.8047 135.209 62.5009C140.254 61.1972 143.3 56.0982 142.012 51.1119C140.723 46.1257 135.588 43.1404 130.543 44.4441C125.497 45.7479 122.452 50.8469 123.74 55.8332Z" fill="#1AD4B7"/>
<path d="M123.787 54.8937C125.075 59.88 130.21 62.8652 135.255 61.5615C140.301 60.2577 143.346 55.1587 142.058 50.1724C140.769 45.1862 135.635 42.2009 130.589 43.5047C125.544 44.8084 122.498 49.9075 123.787 54.8937Z" fill="#1AD3B8"/>
<path d="M123.805 53.9616C125.093 58.9478 130.228 61.9331 135.273 60.6294C140.319 59.3256 143.364 54.2266 142.076 49.2403C140.787 44.2541 135.653 41.2688 130.607 42.5725C125.562 43.8763 122.516 48.9753 123.805 53.9616Z" fill="#1AD2B9"/>
<path d="M123.799 53.0356C125.087 58.0218 130.222 61.0071 135.267 59.7033C140.313 58.3996 143.358 53.3005 142.07 48.3143C140.781 43.328 135.647 40.3428 130.601 41.6465C125.556 42.9503 122.51 48.0493 123.799 53.0356Z" fill="#1AD1B9"/>
<path d="M123.765 52.1217C125.054 57.108 130.188 60.0933 135.234 58.7895C140.279 57.4858 143.325 52.3867 142.037 47.4005C140.748 42.4142 135.614 39.429 130.568 40.7327C125.523 42.0364 122.477 47.1355 123.765 52.1217Z" fill="#1BD0BA"/>
<path d="M123.713 51.2126C125.002 56.1988 130.136 59.1841 135.182 57.8803C140.227 56.5766 143.273 51.4775 141.984 46.4913C140.696 41.505 135.561 38.5198 130.516 39.8235C125.47 41.1273 122.425 46.2263 123.713 51.2126Z" fill="#1BCFBB"/>
<path d="M123.637 50.3097C124.926 55.296 130.06 58.2812 135.106 56.9775C140.151 55.6738 143.197 50.5747 141.908 45.5885C140.62 40.6022 135.485 37.617 130.44 38.9207C125.394 40.2244 122.349 45.3235 123.637 50.3097Z" fill="#1BCEBB"/>
<path d="M123.537 49.413C124.826 54.3993 129.96 57.3845 135.006 56.0808C140.051 54.777 143.097 49.678 141.809 44.6917C140.52 39.7055 135.386 36.7202 130.34 38.024C125.295 39.3277 122.249 44.4268 123.537 49.413Z" fill="#1CCDBC"/>
<path d="M123.42 48.526C124.708 53.5123 129.843 56.4976 134.888 55.1938C139.934 53.8901 142.979 48.791 141.691 43.8048C140.403 38.8185 135.268 35.8333 130.222 37.137C125.177 38.4407 122.131 43.5398 123.42 48.526Z" fill="#1CCCBD"/>
<path d="M123.274 47.6462C124.562 52.6324 129.697 55.6177 134.742 54.3139C139.788 53.0102 142.833 47.9111 141.545 42.9249C140.256 37.9386 135.122 34.9534 130.076 36.2571C125.031 37.5609 121.985 42.6599 123.274 47.6462Z" fill="#1CCBBD"/>
<path d="M123.11 46.776C124.398 51.7623 129.533 54.7476 134.578 53.4438C139.624 52.1401 142.669 47.041 141.381 42.0548C140.092 37.0685 134.958 34.0833 129.912 35.387C124.867 36.6907 121.821 41.7898 123.11 46.776Z" fill="#1DCABE"/>
<path d="M122.927 45.9111C124.215 50.8973 129.35 53.8826 134.395 52.5788C139.441 51.2751 142.486 46.176 141.198 41.1898C139.909 36.2035 134.775 33.2183 129.729 34.522C124.684 35.8258 121.638 40.9248 122.927 45.9111Z" fill="#1DC9BF"/>
<path d="M122.716 45.0578C124.005 50.044 129.139 53.0293 134.185 51.7256C139.23 50.4218 142.276 45.3228 140.988 40.3365C139.699 35.3503 134.564 32.365 129.519 33.6687C124.474 34.9725 121.428 40.0715 122.716 45.0578Z" fill="#1DC8BF"/>
<path d="M122.492 44.2084C123.78 49.1947 128.915 52.1799 133.96 50.8762C139.006 49.5724 142.051 44.4734 140.763 39.4871C139.475 34.5009 134.34 31.5156 129.294 32.8194C124.249 34.1231 121.203 39.2222 122.492 44.2084Z" fill="#1EC7C0"/>
<path d="M122.245 43.3698C123.533 48.356 128.668 51.3413 133.713 50.0376C138.759 48.7338 141.804 43.6348 140.516 38.6485C139.227 33.6623 134.093 30.677 129.047 31.9808C124.002 33.2845 120.956 38.3835 122.245 43.3698Z" fill="#1EC6C1"/>
<path d="M121.98 42.5407C123.268 47.5269 128.403 50.5122 133.448 49.2085C138.494 47.9047 141.539 42.8057 140.251 37.8194C138.962 32.8332 133.828 29.8479 128.782 31.1517C123.737 32.4554 120.691 37.5544 121.98 42.5407Z" fill="#1EC5C1"/>
<path d="M121.692 41.7226C122.981 46.7088 128.115 49.6941 133.161 48.3903C138.206 47.0866 141.252 41.9876 139.963 37.0013C138.675 32.0151 133.54 29.0298 128.495 30.3335C123.449 31.6373 120.404 36.7363 121.692 41.7226Z" fill="#1FC4C2"/>
<path d="M121.39 40.9081C122.679 45.8944 127.813 48.8796 132.859 47.5759C137.904 46.2722 140.95 41.1731 139.662 36.1869C138.373 31.2006 133.239 28.2153 128.193 29.5191C123.148 30.8228 120.102 35.9219 121.39 40.9081Z" fill="#1FC3C3"/>
<path d="M121.066 40.1047C122.354 45.0909 127.489 48.0762 132.535 46.7724C137.58 45.4687 140.626 40.3696 139.337 35.3834C138.049 30.3971 132.914 27.4119 127.869 28.7156C122.823 30.0194 119.778 35.1184 121.066 40.1047Z" fill="#1FC2C3"/>
<path d="M120.729 39.3092C122.017 44.2955 127.152 47.2808 132.197 45.977C137.243 44.6733 140.288 39.5742 139 34.588C137.711 29.6017 132.577 26.6165 127.531 27.9202C122.486 29.2239 119.44 34.323 120.729 39.3092Z" fill="#20C1C4"/>
<path d="M120.368 38.5202C121.656 43.5064 126.791 46.4917 131.836 45.188C136.882 43.8842 139.927 38.7852 138.639 33.7989C137.35 28.8127 132.216 25.8274 127.17 27.1311C122.125 28.4349 119.079 33.5339 120.368 38.5202Z" fill="#20C0C5"/>
<path d="M119.995 37.7443C121.283 42.7306 126.418 45.7158 131.463 44.4121C136.509 43.1083 139.554 38.0093 138.266 33.023C136.977 28.0368 131.843 25.0515 126.797 26.3553C121.752 27.659 118.706 32.7581 119.995 37.7443Z" fill="#20BFC5"/>
<path d="M119.602 36.9733C120.891 41.9596 126.026 44.9448 131.071 43.6411C136.116 42.3373 139.162 37.2383 137.874 32.252C136.585 27.2658 131.451 24.2805 126.405 25.5843C121.36 26.888 118.314 31.9871 119.602 36.9733Z" fill="#20BEC6"/>
<path d="M119.194 36.2165C120.482 41.2027 125.617 44.188 130.662 42.8842C135.708 41.5805 138.754 36.4815 137.465 31.4952C136.177 26.509 131.042 23.5237 125.997 24.8274C120.951 26.1312 117.905 31.2302 119.194 36.2165Z" fill="#21BDC7"/>
<path d="M118.767 35.4694C120.056 40.4557 125.191 43.4409 130.236 42.1372C135.282 40.8334 138.327 35.7344 137.039 30.7481C135.75 25.7619 130.616 22.7766 125.57 24.0804C120.525 25.3841 117.479 30.4832 118.767 35.4694Z" fill="#21BCC8"/>
<path d="M118.327 34.7258C119.615 39.712 124.75 42.6973 129.795 41.3935C134.841 40.0898 137.887 34.9907 136.598 30.0045C135.31 25.0182 130.175 22.033 125.129 23.3367C120.084 24.6405 117.038 29.7395 118.327 34.7258Z" fill="#21BBC8"/>
<path d="M117.874 33.9955C119.163 38.9818 124.297 41.967 129.343 40.6633C134.388 39.3596 137.434 34.2605 136.145 29.2743C134.857 24.288 129.722 21.3027 124.677 22.6065C119.631 23.9102 116.586 29.0093 117.874 33.9955Z" fill="#22BAC9"/>
<path d="M117.404 33.2748C118.692 38.2611 123.827 41.2463 128.872 39.9426C133.918 38.6389 136.964 33.5398 135.675 28.5536C134.387 23.5673 129.252 20.582 124.207 21.8858C119.161 23.1895 116.115 28.2886 117.404 33.2748Z" fill="#22B9CA"/>
<path d="M116.92 32.5624C118.209 37.5487 123.344 40.5339 128.389 39.2302C133.434 37.9264 136.48 32.8274 135.192 27.8411C133.903 22.8549 128.769 19.8696 123.723 21.1734C118.678 22.4771 115.632 27.5762 116.92 32.5624Z" fill="#22B8CA"/>
<path d="M116.42 31.8642C117.709 36.8504 122.844 39.8357 127.889 38.5319C132.934 37.2282 135.98 32.1292 134.692 27.1429C133.403 22.1567 128.269 19.1714 123.223 20.4751C118.178 21.7789 115.132 26.8779 116.42 31.8642Z" fill="#23B7CB"/>
<path d="M115.911 31.1686C117.199 36.1549 122.334 39.1401 127.38 37.8364C132.425 36.5326 135.471 31.4336 134.182 26.4474C132.894 21.4611 127.759 18.4758 122.714 19.7796C117.668 21.0833 114.623 26.1824 115.911 31.1686Z" fill="#23B6CC"/>
<path d="M115.385 30.4875C116.673 35.4737 121.808 38.459 126.853 37.1552C131.899 35.8515 134.945 30.7525 133.656 25.7662C132.368 20.7799 127.233 17.7947 122.188 19.0984C117.142 20.4022 114.096 25.5012 115.385 30.4875Z" fill="#23B5CC"/>
<path d="M114.847 29.8193C116.135 34.8055 121.27 37.7908 126.315 36.487C131.361 35.1833 134.407 30.0842 133.118 25.098C131.83 20.1117 126.695 17.1265 121.65 18.4302C116.604 19.734 113.558 24.833 114.847 29.8193Z" fill="#24B4CD"/>
<path d="M114.296 29.1593C115.584 34.1456 120.719 37.1309 125.764 35.8271C130.81 34.5234 133.856 29.4243 132.567 24.4381C131.279 19.4518 126.144 16.4666 121.099 17.7703C116.053 19.074 113.007 24.1731 114.296 29.1593Z" fill="#24B3CE"/>
<path d="M113.732 28.508C115.02 33.4942 120.155 36.4795 125.201 35.1757C130.246 33.872 133.292 28.773 132.003 23.7867C130.715 18.8005 125.58 15.8152 120.535 17.1189C115.489 18.4227 112.444 23.5217 113.732 28.508Z" fill="#24B2CE"/>
<path d="M113.161 27.8683C114.449 32.8546 119.584 35.8398 124.629 34.5361C129.675 33.2324 132.72 28.1333 131.432 23.1471C130.144 18.1608 125.009 15.1755 119.963 16.4793C114.918 17.783 111.872 22.8821 113.161 27.8683Z" fill="#25B1CF"/>
<path d="M112.572 27.2384C113.86 32.2247 118.995 35.21 124.04 33.9062C129.086 32.6025 132.132 27.5034 130.843 22.5172C129.555 17.5309 124.42 14.5457 119.375 15.8494C114.329 17.1531 111.283 22.2522 112.572 27.2384Z" fill="#25B0D0"/>
<path d="M111.976 26.6203C113.264 31.6065 118.399 34.5918 123.444 33.2881C128.49 31.9843 131.536 26.8853 130.247 21.899C128.959 16.9128 123.824 13.9275 118.779 15.2312C113.733 16.535 110.687 21.634 111.976 26.6203Z" fill="#25AFD0"/>
<path d="M111.372 26.0094C112.66 30.9957 117.795 33.981 122.84 32.6772C127.886 31.3735 130.931 26.2744 129.643 21.2882C128.354 16.3019 123.22 13.3167 118.174 14.6204C113.129 15.9241 110.083 21.0232 111.372 26.0094Z" fill="#26AED1"/>
<path d="M110.755 25.4115C112.044 30.3978 117.178 33.3831 122.224 32.0793C127.269 30.7756 130.315 25.6765 129.027 20.6903C127.738 15.704 122.604 12.7188 117.558 14.0225C112.513 15.3262 109.467 20.4253 110.755 25.4115Z" fill="#26ADD2"/>
<path d="M110.127 24.8268C111.416 29.8131 116.551 32.7983 121.596 31.4946C126.641 30.1909 129.687 25.0918 128.399 20.1056C127.11 15.1193 121.976 12.134 116.93 13.4378C111.885 14.7415 108.839 19.8406 110.127 24.8268Z" fill="#26ACD2"/>
<path d="M109.491 24.2492C110.78 29.2354 115.914 32.2207 120.96 30.917C126.005 29.6132 129.051 24.5142 127.762 19.5279C126.474 14.5417 121.339 11.5564 116.294 12.8601C111.248 14.1639 108.203 19.2629 109.491 24.2492Z" fill="#26ABD3"/>
<path d="M108.849 23.6882C110.137 28.6744 115.272 31.6597 120.318 30.3559C125.363 29.0522 128.409 23.9531 127.12 18.9669C125.832 13.9806 120.697 10.9954 115.652 12.2991C110.606 13.6029 107.561 18.7019 108.849 23.6882Z" fill="#27AAD4"/>
<path d="M108.194 23.1354C109.482 28.1217 114.617 31.1069 119.662 29.8032C124.708 28.4994 127.754 23.4004 126.465 18.4141C125.177 13.4279 120.042 10.4426 114.997 11.7464C109.951 13.0501 106.905 18.1492 108.194 23.1354Z" fill="#27A9D4"/>
<path d="M107.532 22.5946C108.82 27.5809 113.955 30.5662 119 29.2624C124.046 27.9587 127.091 22.8596 125.803 17.8734C124.514 12.8871 119.38 9.90186 114.334 11.2056C109.289 12.5093 106.243 17.6084 107.532 22.5946Z" fill="#27A8D5"/>
<path d="M106.862 22.0658C108.151 27.0521 113.285 30.0374 118.331 28.7336C123.376 27.4299 126.422 22.3308 125.133 17.3446C123.845 12.3583 118.71 9.37305 113.665 10.6768C108.619 11.9805 105.574 17.0796 106.862 22.0658Z" fill="#28A7D6"/>
<path d="M106.184 21.5439C107.473 26.5301 112.608 29.5154 117.653 28.2116C122.698 26.9079 125.744 21.8088 124.456 16.8226C123.167 11.8363 118.033 8.85108 112.987 10.1548C107.942 11.4586 104.896 16.5576 106.184 21.5439Z" fill="#28A6D6"/>
<path d="M105.501 21.0387C106.789 26.025 111.924 29.0103 116.97 27.7065C122.015 26.4028 125.061 21.3037 123.772 16.3175C122.484 11.3312 117.349 8.34595 112.304 9.6497C107.258 10.9534 104.213 16.0525 105.501 21.0387Z" fill="#28A5D7"/>
<path d="M104.815 20.5441C106.104 25.5304 111.238 28.5156 116.284 27.2119C121.329 25.9081 124.375 20.8091 123.086 15.8228C121.798 10.8366 116.663 7.85133 111.618 9.15507C106.572 10.4588 103.527 15.5579 104.815 20.5441Z" fill="#29A4D8"/>
<path d="M104.117 20.0627C105.406 25.0489 110.541 28.0342 115.586 26.7304C120.631 25.4267 123.677 20.3276 122.389 15.3414C121.1 10.3551 115.966 7.36988 110.92 8.67362C105.875 9.97737 102.829 15.0764 104.117 20.0627Z" fill="#29A3D8"/>
<path d="M103.417 19.5917C104.706 24.578 109.84 27.5632 114.886 26.2595C119.931 24.9557 122.977 19.8567 121.689 14.8704C120.4 9.8842 115.266 6.89893 110.22 8.20268C105.175 9.50642 102.129 14.6055 103.417 19.5917Z" fill="#29A2D9"/>
<path d="M102.71 19.1327C103.999 24.119 109.133 27.1042 114.179 25.8005C119.224 24.4968 122.27 19.3977 120.982 14.4115C119.693 9.42521 114.559 6.43995 109.513 7.74369C104.468 9.04743 101.422 14.1465 102.71 19.1327Z" fill="#2AA1DA"/>
<path d="M101.996 18.6855C103.285 23.6717 108.419 26.657 113.465 25.3532C118.51 24.0495 121.556 18.9504 120.267 13.9642C118.979 8.97795 113.844 5.99268 108.799 7.29643C103.753 8.60017 100.708 13.6992 101.996 18.6855Z" fill="#2AA0DA"/>
<path d="M101.28 18.2489C102.568 23.2352 107.703 26.2205 112.748 24.9167C117.794 23.613 120.839 18.5139 119.551 13.5277C118.262 8.54142 113.128 5.55616 108.082 6.8599C103.037 8.16364 99.9911 13.2627 101.28 18.2489Z" fill="#2A9FDB"/>
<path d="M100.557 17.829C101.846 22.8153 106.98 25.8005 112.026 24.4968C117.071 23.193 120.117 18.094 118.829 13.1078C117.54 8.1215 112.405 5.13624 107.36 6.43998C102.314 7.74372 99.2688 12.8428 100.557 17.829Z" fill="#2B9EDC"/>
<path d="M99.8325 17.4196C101.121 22.4058 106.256 25.3911 111.301 24.0874C116.347 22.7836 119.392 17.6846 118.104 12.6983C116.815 7.71208 111.681 4.72681 106.635 6.03056C101.59 7.3343 98.5441 12.4333 99.8325 17.4196Z" fill="#2B9DDC"/>
<path d="M99.1067 17.0256C100.395 22.0118 105.53 24.9971 110.575 23.6933C115.621 22.3896 118.666 17.2905 117.378 12.3043C116.09 7.31803 110.955 4.33277 105.909 5.63651C100.864 6.94026 97.8183 12.0393 99.1067 17.0256Z" fill="#2B9CDD"/>
<path d="M98.3773 16.6374C99.6658 21.6236 104.8 24.6089 109.846 23.3051C114.891 22.0014 117.937 16.9024 116.649 11.9161C115.36 6.92985 110.226 3.94459 105.18 5.24833C100.135 6.55207 97.0889 11.6511 98.3773 16.6374Z" fill="#2C9BDE"/>
<path d="M97.1552 16.0307C98.4436 21.0169 103.578 24.0022 108.624 22.6985C113.669 21.3947 116.715 16.2957 115.426 11.3094C114.138 6.32316 109.003 3.3379 103.958 4.64164C98.9124 5.94538 95.8667 11.0444 97.1552 16.0307Z" fill="#2C9ADF"/>
<path d="M95.74 15.3837C97.0284 20.37 102.163 23.3552 107.209 22.0515C112.254 20.7477 115.3 15.6487 114.011 10.6624C112.723 5.67619 107.588 2.69093 102.543 3.99467C97.4972 5.29841 94.4516 10.3975 95.74 15.3837Z" fill="#2C99DF"/>
<path d="M94.3358 14.799C95.6243 19.7852 100.759 22.7705 105.804 21.4668C110.85 20.163 113.896 15.064 112.607 10.0777C111.319 5.09147 106.184 2.10621 101.139 3.40995C96.0931 4.71369 93.0474 9.81274 94.3358 14.799Z" fill="#2C98E0"/>
<path d="M92.9498 14.2846C94.2383 19.2708 99.3729 22.2561 104.418 20.9524C109.464 19.6486 112.51 14.5496 111.221 9.56332C109.933 4.57707 104.798 1.59181 99.7525 2.89555C94.7071 4.19929 91.6614 9.29834 92.9498 14.2846Z" fill="#2D97E1"/>
<path d="M91.5796 13.8315C92.868 18.8177 98.0027 21.803 103.048 20.4992C108.094 19.1955 111.139 14.0964 109.851 9.11019C108.562 4.12394 103.428 1.13868 98.3823 2.44242C93.3368 3.74616 90.2912 8.84521 91.5796 13.8315Z" fill="#2D96E1"/>
<path d="M90.23 13.4382C91.5184 18.4244 96.6531 21.4097 101.699 20.1059C106.744 18.8022 109.79 13.7031 108.501 8.71688C107.213 3.73063 102.078 0.745369 97.0327 2.04911C91.9872 3.35285 88.9415 8.4519 90.23 13.4382Z" fill="#2D95E2"/>
<path d="M88.8997 13.1C90.1881 18.0863 95.3228 21.0715 100.368 19.7678C105.414 18.464 108.459 13.365 107.171 8.37875C105.882 3.3925 100.748 0.407234 95.7024 1.71098C90.6569 3.01472 87.6112 8.11377 88.8997 13.1Z" fill="#2E94E3"/>
<path d="M87.59 12.8219C88.8784 17.8082 94.0131 20.7935 99.0585 19.4897C104.104 18.186 107.15 13.0869 105.861 8.10067C104.573 3.11442 99.4382 0.129159 94.3927 1.4329C89.3472 2.73664 86.3015 7.83569 87.59 12.8219Z" fill="#2E93E3"/>
<path d="M86.2936 12.5954C87.582 17.5816 92.7167 20.5669 97.7622 19.2631C102.808 17.9594 105.853 12.8604 104.565 7.87411C103.276 2.88786 98.1418 -0.0974048 93.0963 1.20634C88.0508 2.51008 85.0051 7.60913 86.2936 12.5954Z" fill="#2E92E4"/>
<path d="M85.0212 12.4228C86.3097 17.409 91.4443 20.3943 96.4898 19.0905C101.535 17.7868 104.581 12.6878 103.293 7.7015C102.004 2.71525 96.8694 -0.270012 91.824 1.03373C86.7785 2.33747 83.7328 7.43652 85.0212 12.4228Z" fill="#2F91E5"/>
<path d="M83.7705 12.2946C85.059 17.2808 90.1936 20.2661 95.2391 18.9624C100.285 17.6586 103.33 12.5596 102.042 7.57333C100.753 2.58708 95.6187 -0.398186 90.5732 0.905557C85.5278 2.2093 82.4821 7.30835 83.7705 12.2946Z" fill="#2F90E5"/>
<path d="M82.5427 12.216C83.8312 17.2022 88.9658 20.1875 94.0113 18.8838C99.0568 17.58 102.102 12.481 100.814 7.49471C99.5256 2.50846 94.3909 -0.476799 89.3454 0.826943C84.3 2.13069 81.2543 7.22973 82.5427 12.216Z" fill="#2F8FE6"/>
<path d="M81.3307 12.1781C82.6191 17.1644 87.7538 20.1497 92.7993 18.8459C97.8447 17.5422 100.89 12.4431 99.602 7.45687C98.3135 2.47062 93.1789 -0.51464 88.1334 0.789103C83.0879 2.09285 80.0423 7.19189 81.3307 12.1781Z" fill="#308EE7"/>
<path d="M80.145 12.1838C81.4335 17.17 86.5681 20.1553 91.6136 18.8515C96.6591 17.5478 99.7047 12.4487 98.4163 7.46249C97.1279 2.47624 91.9932 -0.509026 86.9477 0.794717C81.9023 2.09846 78.8566 7.19751 80.145 12.1838Z" fill="#308DE7"/>
<path d="M78.9857 12.2326C80.2742 17.2188 85.4088 20.2041 90.4543 18.9004C95.4998 17.5966 98.5454 12.4976 97.257 7.51131C95.9686 2.52506 90.8339 -0.460198 85.7884 0.843545C80.743 2.14729 77.6973 7.24633 78.9857 12.2326Z" fill="#308CE8"/>
<path d="M77.8457 12.3166C79.1342 17.3028 84.2688 20.2881 89.3143 18.9843C94.3598 17.6806 97.4054 12.5816 96.117 7.5953C94.8285 2.60905 89.6939 -0.376214 84.6484 0.927528C79.603 2.23127 76.5573 7.33032 77.8457 12.3166Z" fill="#318BE9"/>
<path d="M76.7344 12.4333C78.0228 17.4195 83.1575 20.4048 88.203 19.101C93.2484 17.7973 96.2941 12.6983 95.0057 7.712C93.7172 2.72575 88.5826 -0.259515 83.5371 1.04423C78.4916 2.34797 75.4459 7.44702 76.7344 12.4333Z" fill="#318AE9"/>
<path d="M75.6422 12.5851C76.9307 17.5714 82.0653 20.5566 87.1108 19.2529C92.1563 17.9492 95.2019 12.8501 93.9135 7.86385C92.6251 2.8776 87.4904 -0.107658 82.4449 1.19609C77.3995 2.49983 74.3538 7.59887 75.6422 12.5851Z" fill="#3189EA"/>
<path d="M74.5836 12.7685C75.8721 17.7547 81.0067 20.74 86.0522 19.4362C91.0977 18.1325 94.1433 13.0335 92.8549 8.0472C91.5665 3.06095 86.4318 0.0756909 81.3863 1.37943C76.3409 2.68318 73.2952 7.78222 74.5836 12.7685Z" fill="#3288EB"/>
<path d="M73.5419 12.9775C74.8303 17.9637 79.965 20.949 85.0104 19.6452C90.0559 18.3415 93.1016 13.2424 91.8132 8.25619C90.5247 3.26994 85.3901 0.284675 80.3446 1.58842C75.2991 2.89216 72.2534 7.99121 73.5419 12.9775Z" fill="#3287EB"/>
<path d="M72.5324 13.2133C73.8208 18.1996 78.9554 21.1848 84.0009 19.8811C89.0464 18.5773 92.0921 13.4783 90.8036 8.49203C89.5152 3.50578 84.3805 0.520516 79.3351 1.82426C74.2896 3.128 71.2439 8.22705 72.5324 13.2133Z" fill="#3286EC"/>
<path d="M71.5491 13.4723C72.8375 18.4586 77.9722 21.4438 83.0176 20.1401C88.0631 18.8364 91.1088 13.7373 89.8204 8.75106C88.5319 3.76481 83.3973 0.779547 78.3518 2.08329C73.3063 3.38703 70.2606 8.48608 71.5491 13.4723Z" fill="#3285ED"/>
<path d="M70.5957 13.7487C71.8842 18.7349 77.0188 21.7202 82.0643 20.4165C87.1098 19.1127 90.1554 14.0137 88.867 9.02743C87.5785 4.04118 82.4439 1.05591 77.3984 2.35966C72.353 3.6634 69.3073 8.76245 70.5957 13.7487Z" fill="#3384ED"/>
<path d="M69.6687 14.0485C70.9572 19.0348 76.0918 22.02 81.1373 20.7163C86.1827 19.4125 89.2284 14.3135 87.94 9.32723C86.6515 4.34098 81.5169 1.35572 76.4714 2.65946C71.426 3.9632 68.3803 9.06225 69.6687 14.0485Z" fill="#3383EE"/>
<path d="M68.7715 14.3654C70.0599 19.3517 75.1946 22.3369 80.2401 21.0332C85.2855 19.7294 88.3312 14.6304 87.0428 9.64413C85.7543 4.65788 80.6197 1.67262 75.5742 2.97636C70.5287 4.2801 67.483 9.37915 68.7715 14.3654Z" fill="#3382EF"/>
<path d="M67.903 14.6952C69.1914 19.6815 74.3261 22.6667 79.3715 21.363C84.417 20.0593 87.4627 14.9602 86.1742 9.97396C84.8858 4.98771 79.7511 2.00245 74.7057 3.30619C69.6602 4.60993 66.6145 9.70898 67.903 14.6952Z" fill="#3481EF"/>
<path d="M67.0678 15.0363C68.3562 20.0225 73.4909 23.0078 78.5363 21.7041C83.5818 20.4003 86.6275 15.3013 85.339 10.315C84.0506 5.32878 78.9159 2.34351 73.8705 3.64725C68.825 4.951 65.7793 10.05 67.0678 15.0363Z" fill="#3480F0"/>
<path d="M66.2612 15.3901C67.5497 20.3763 72.6843 23.3616 77.7298 22.0578C82.7753 20.7541 85.821 15.655 84.5325 10.6688C83.2441 5.68254 78.1094 2.69727 73.0639 4.00102C68.0185 5.30476 64.9728 10.4038 66.2612 15.3901Z" fill="#347FF1"/>
<path d="M65.4857 15.746C66.7742 20.7323 71.9088 23.7175 76.9543 22.4138C81.9998 21.11 85.0454 16.011 83.757 11.0247C82.4686 6.03849 77.3339 3.05323 72.2884 4.35697C67.243 5.66071 64.1973 10.7598 65.4857 15.746Z" fill="#357EF1"/>
<path d="M64.7435 16.1132C66.032 21.0995 71.1666 24.0847 76.2121 22.781C81.2576 21.4772 84.3033 16.3782 83.0148 11.3919C81.7264 6.40568 76.5917 3.42042 71.5462 4.72416C66.5008 6.0279 63.4551 11.1269 64.7435 16.1132Z" fill="#357DF2"/>
<path d="M64.031 16.4779C65.3195 21.4642 70.4541 24.4495 75.4996 23.1457C80.5451 21.842 83.5907 16.7429 82.3023 11.7567C81.0138 6.77043 75.8792 3.78516 70.8337 5.08891C65.7883 6.39265 62.7426 11.4917 64.031 16.4779Z" fill="#357CF3"/>
<path d="M63.3544 16.8432C64.6428 21.8294 69.7775 24.8147 74.8229 23.511C79.8684 22.2072 82.9141 17.1082 81.6257 12.1219C80.3372 7.13566 75.2026 4.1504 70.1571 5.45414C65.1116 6.75788 62.0659 11.8569 63.3544 16.8432Z" fill="#367BF3"/>
<path d="M62.7134 17.2094C64.0018 22.1956 69.1365 25.1809 74.1819 23.8772C79.2274 22.5734 82.2731 17.4744 80.9847 12.4881C79.6962 7.50187 74.5616 4.51661 69.5161 5.82035C64.4706 7.1241 61.4249 12.2231 62.7134 17.2094Z" fill="#367AF4"/>
<path d="M62.1057 17.5671C63.3942 22.5533 68.5288 25.5386 73.5743 24.2348C78.6198 22.9311 81.6654 17.832 80.377 12.8458C79.0886 7.85954 73.9539 4.87428 68.9084 6.17802C63.863 7.48176 60.8173 12.5808 62.1057 17.5671Z" fill="#3679F5"/>
<path d="M61.5337 17.9255C62.8221 22.9117 67.9568 25.897 73.0023 24.5932C78.0477 23.2895 81.0934 18.1904 79.805 13.2042C78.5165 8.21794 73.3819 5.23267 68.3364 6.53642C63.2909 7.84016 60.2453 12.9392 61.5337 17.9255Z" fill="#3778F6"/>
<path d="M60.9938 18.2704C62.2822 23.2567 67.4169 26.2419 72.4624 24.9382C77.5078 23.6345 80.5535 18.5354 79.2651 13.5492C77.9766 8.56291 72.842 5.57764 67.7965 6.88139C62.751 8.18513 59.7053 13.2842 60.9938 18.2704Z" fill="#3777F6"/>
<path d="M60.4907 18.601C61.7792 23.5872 66.9138 26.5725 71.9593 25.2688C77.0048 23.965 80.0504 18.866 78.762 13.8797C77.4736 8.89347 72.3389 5.90821 67.2934 7.21195C62.248 8.5157 59.2023 13.6147 60.4907 18.601Z" fill="#3776F7"/>
<path d="M60.0256 18.9218C61.3141 23.908 66.4487 26.8933 71.4942 25.5896C76.5397 24.2858 79.5854 19.1868 78.2969 14.2005C77.0085 9.21427 71.8738 6.22901 66.8284 7.53275C61.7829 8.8365 58.7372 13.9355 60.0256 18.9218Z" fill="#3875F8"/>
<path d="M59.5974 19.2279C60.8859 24.2142 66.0205 27.1995 71.066 25.8957C76.1115 24.592 79.1571 19.4929 77.8687 14.5067C76.5803 9.52043 71.4456 6.53516 66.4001 7.83891C61.3547 9.14265 58.309 14.2417 59.5974 19.2279Z" fill="#3874F8"/>
<path d="M59.2096 19.5136C60.498 24.4998 65.6327 27.4851 70.6782 26.1814C75.7236 24.8776 78.7693 19.7786 77.4809 14.7923C76.1924 9.80607 71.0578 6.82081 66.0123 8.12455C60.9668 9.42829 57.9212 14.5273 59.2096 19.5136Z" fill="#3873F9"/>
<path d="M58.8574 19.7799C60.1459 24.7662 65.2805 27.7515 70.326 26.4477C75.3715 25.144 78.4171 20.0449 77.1287 15.0587C75.8403 10.0724 70.7056 7.08717 65.6601 8.39091C60.6147 9.69465 57.569 14.7937 58.8574 19.7799Z" fill="#3872FA"/>
<path d="M58.5455 20.026C59.834 25.0123 64.9686 27.9976 70.0141 26.6938C75.0596 25.3901 78.1053 20.291 76.8168 15.3048C75.5284 10.3185 70.3937 7.33326 65.3483 8.637C60.3028 9.94074 57.2571 15.0398 58.5455 20.026Z" fill="#3971FA"/>
<path d="M58.2716 20.2424C59.5601 25.2286 64.6947 28.2139 69.7402 26.9101C74.7856 25.6064 77.8313 20.5073 76.5429 15.5211C75.2544 10.5348 70.1198 7.54957 65.0743 8.85331C60.0288 10.1571 56.9832 15.2561 58.2716 20.2424Z" fill="#3970FB"/>
<path d="M58.0429 20.4367C59.3313 25.4229 64.4659 28.4082 69.5114 27.1045C74.5569 25.8007 77.6026 20.7017 76.3141 15.7154C75.0257 10.7292 69.891 7.7439 64.8456 9.04765C59.8001 10.3514 56.7544 15.4504 58.0429 20.4367Z" fill="#396FFC"/>
<path d="M57.8508 20.5966C59.1393 25.5828 64.2739 28.5681 69.3194 27.2644C74.3649 25.9606 77.4106 20.8616 76.1221 15.8753C74.8337 10.8891 69.699 7.90381 64.6536 9.20756C59.6081 10.5113 56.5624 15.6103 57.8508 20.5966Z" fill="#3A6EFC"/>
<path d="M57.6968 20.7267C58.9852 25.713 64.1199 28.6982 69.1654 27.3945C74.2108 26.0908 77.2565 20.9917 75.9681 16.0055C74.6796 11.0192 69.545 8.03394 64.4995 9.33768C59.454 10.6414 56.4083 15.7405 57.6968 20.7267Z" fill="#3A6DFD"/>
<path d="M57.5901 20.8244C58.8785 25.8106 64.0132 28.7959 69.0587 27.4922C74.1041 26.1884 77.1498 21.0894 75.8614 16.1031C74.5729 11.1169 69.4383 8.1316 64.3928 9.43534C59.3473 10.7391 56.3017 15.8381 57.5901 20.8244Z" fill="#3A6CFE"/>
<path d="M57.5285 20.8805C58.8169 25.8668 63.9515 28.852 68.997 27.5483C74.0425 26.2446 77.0882 21.1455 75.7997 16.1593C74.5113 11.173 69.3766 8.18775 64.3312 9.49149C59.2857 10.7952 56.24 15.8943 57.5285 20.8805Z" fill="#3B6BFE"/>
<path d="M57.5035 20.902C58.792 25.8883 63.9266 28.8735 68.9721 27.5698C74.0176 26.266 77.0633 21.167 75.7748 16.1807C74.4864 11.1945 69.3517 8.20923 64.3063 9.51298C59.2608 10.8167 56.2151 15.9158 57.5035 20.902Z" fill="#3B6AFF"/>
</g>
<g filter="url(#filter0_d_1263_15801)">
<path fill-rule="evenodd" clip-rule="evenodd" d="M52.4924 76.2888C55.1405 73.9923 54.4229 69.3884 52.9346 66.2149C52.2976 64.8565 51.9729 63.4318 51.9313 62.0219C51.8921 60.6916 51.8351 59.3433 51.3955 58.0872L45.5298 41.3264L38.5282 26.1604C36.6873 22.1729 38.4196 17.4477 42.4015 15.5949L48.3172 12.8423C52.2992 10.9895 57.0295 12.7077 58.8943 16.684L65.9574 31.7458L74.1956 46.3647C74.9687 47.7367 76.1858 48.7846 77.3939 49.7948C78.5463 50.7582 79.5116 51.9826 80.1914 53.4322C81.6726 56.5905 84.7028 60.0474 88.1505 59.5161L95.5703 58.3728C99.0751 57.8328 102.515 59.6736 104.01 62.8892L106.416 68.0639C106.898 69.1007 107.133 70.2352 107.102 71.3782C107.072 72.5152 107.304 73.644 107.782 74.6766L141.415 147.463C141.902 148.516 142.636 149.435 143.555 150.142C144.453 150.832 145.175 151.725 145.661 152.748L148.701 159.139C150.18 162.25 148.84 165.971 145.718 167.425L98.1356 189.581C95.0133 191.035 91.3059 189.663 89.881 186.528L87.025 180.242C86.5573 179.213 86.3351 178.089 86.3759 176.959C86.4178 175.8 86.1827 174.647 85.6901 173.597L51.6323 100.975C51.1571 99.9621 50.4685 99.0635 49.6136 98.3412C48.752 97.6134 48.0594 96.7066 47.5839 95.6839L45.0998 90.3411C43.6009 87.1171 44.4189 83.2902 47.105 80.9609L52.4924 76.2888Z" fill="url(#paint3_linear_1263_15801)"/>
</g>
<path fill-rule="evenodd" clip-rule="evenodd" d="M88.7054 86.1133C90.4704 89.8766 88.8503 94.3582 85.0869 96.1232C85.024 96.1527 84.9608 96.1813 84.8974 96.2089L109.9 150.027C110.023 149.961 110.149 149.898 110.278 149.838C114.041 148.073 118.523 149.693 120.288 153.456C120.344 153.575 120.396 153.695 120.445 153.816L140.245 144.591L108.562 76.3946L88.5151 85.7349C88.5816 85.8585 88.6451 85.9846 88.7054 86.1133Z" fill="url(#paint4_linear_1263_15801)"/>
<path opacity="0.2" d="M45.4418 86.0898L68.5295 75.3471C69.4162 74.9345 70.4696 75.3188 70.8822 76.2056L74.4989 83.9784C74.9115 84.8652 74.5271 85.9185 73.6404 86.3311L50.5527 97.0739L45.4418 86.0898Z" fill="url(#paint5_linear_1263_15801)"/>
<path opacity="0.2" d="M51.9357 99.9377L75.8314 88.819C76.7181 88.4064 77.7715 88.7908 78.1841 89.6775L112.13 162.632C112.543 163.519 112.158 164.572 111.271 164.985L87.3757 176.103L51.9357 99.9377Z" fill="url(#paint6_linear_1263_15801)"/>
<rect x="72.3346" y="73.7424" width="32.4963" height="3.09488" rx="1.54744" transform="rotate(-24.9527 72.3346 73.7424)" fill="url(#paint7_linear_1263_15801)"/>
<rect x="88.2184" y="176.809" width="59.4428" height="3.09488" rx="1.54744" transform="rotate(-24.9527 88.2184 176.809)" fill="url(#paint8_linear_1263_15801)"/>
<path fill-rule="evenodd" clip-rule="evenodd" d="M111.649 146.536L88.6614 97.0553C91.5635 94.6771 92.8585 90.7923 91.9226 87.1258L109.699 78.8434L138.988 141.888L121.382 150.09C119.097 147.14 115.294 145.753 111.649 146.536Z" fill="url(#paint9_radial_1263_15801)"/>
<path fill-rule="evenodd" clip-rule="evenodd" d="M34.2222 15.3447C32.8921 15.9636 32.3155 17.5436 32.9344 18.8737L39.5582 33.109C40.0242 34.1107 41.0353 34.685 42.0742 34.6433L46.7712 44.6587L50.4562 55.6443L73.3038 44.9294L67.4267 34.4828L62.9318 24.8985C63.5852 24.1321 63.772 23.0257 63.3193 22.0529L56.6956 7.81762C56.0767 6.4875 54.4967 5.91095 53.1666 6.52985L34.2222 15.3447Z" fill="url(#paint10_linear_1263_15801)"/>
<path fill-rule="evenodd" clip-rule="evenodd" d="M185.715 14.0072C184.424 14.1074 183.459 15.2353 183.559 16.5263L184.285 25.8771C184.369 26.9604 185.176 27.8143 186.197 28.002C186.367 28.3988 186.543 28.8067 186.726 29.2251C186.655 29.1998 186.582 29.1778 186.507 29.1592L177.405 26.8966C176.148 26.5842 174.876 27.3497 174.564 28.6064C174.252 29.8631 175.017 31.1351 176.274 31.4475L185.376 33.7101C186.516 33.9936 187.669 33.3897 188.106 32.3367L188.251 32.6627L188.252 32.6628L188.252 32.6628L188.252 32.663C188.763 33.8091 189.3 35.0099 189.848 36.2575C189.779 36.233 189.707 36.2116 189.634 36.1934L180.532 33.9308C179.275 33.6184 178.003 34.3839 177.691 35.6406C177.378 36.8973 178.144 38.1693 179.401 38.4817L188.503 40.7443C189.628 41.024 190.765 40.4399 191.215 39.4129C191.743 40.654 192.273 41.9308 192.796 43.2369L192.76 43.2276L183.658 40.965C182.401 40.6526 181.129 41.4181 180.817 42.6748C180.505 43.9315 181.27 45.2035 182.527 45.5159L191.629 47.7785C192.627 48.0266 193.634 47.595 194.163 46.7775C194.603 47.9626 195.028 49.1614 195.431 50.3684C195.327 50.3256 195.218 50.2898 195.105 50.2617L186.003 47.9991C184.746 47.6867 183.474 48.4522 183.162 49.7089C182.849 50.9656 183.615 52.2376 184.872 52.55L193.974 54.8126C194.974 55.0613 195.984 54.6271 196.512 53.8058C196.895 55.1128 197.246 56.4235 197.556 57.7313C197.303 57.5304 197.003 57.3792 196.668 57.296L187.566 55.0334C186.309 54.721 185.037 55.4865 184.725 56.7432C184.413 57.9999 185.178 59.2719 186.435 59.5844L195.537 61.8469C196.608 62.1134 197.691 61.5958 198.181 60.6582C198.66 63.2062 198.958 65.724 199.01 68.1618L200.572 68.1286C200.542 66.7072 200.432 65.2631 200.253 63.8057C201.356 64.4604 202.782 64.1079 203.452 63.0104L208.336 55.0035C209.01 53.8979 208.661 52.4551 207.555 51.7807C206.45 51.1064 205.007 51.456 204.332 52.5615L199.682 60.1857C199.291 58.1425 198.789 56.0885 198.209 54.0487C198.343 54.1855 198.496 54.3081 198.667 54.4123C199.772 55.0866 201.215 54.7371 201.889 53.6315L206.773 45.6246C207.448 44.5191 207.098 43.0762 205.992 42.4019C204.887 41.7275 203.444 42.0771 202.77 43.1826L197.886 51.1896C197.737 51.4329 197.639 51.6925 197.586 51.9568C197.039 50.1954 196.442 48.4513 195.816 46.7409C196.875 47.2089 198.143 46.8313 198.762 45.8157L203.646 37.8088C204.321 36.7033 203.971 35.2604 202.866 34.5861C201.76 33.9117 200.317 34.2613 199.643 35.3668L194.759 43.3737C194.71 43.4535 194.667 43.535 194.629 43.6178C194.125 42.3351 193.609 41.0737 193.093 39.8424C194.054 40.071 195.094 39.6708 195.636 38.7815L200.52 30.7746C201.195 29.669 200.845 28.2262 199.739 27.5518C198.634 26.8775 197.191 27.2271 196.517 28.3326L191.633 36.3395L191.62 36.3603L191.608 36.3804C191.07 35.1483 190.542 33.9593 190.036 32.8237C190.977 33.0174 191.981 32.6154 192.51 31.7474L197.394 23.7405C198.068 22.6349 197.719 21.1921 196.613 20.5177C195.508 19.8434 194.065 20.193 193.391 21.2985L188.507 29.3054C188.5 29.3172 188.492 29.329 188.485 29.3409C188.24 28.7849 188.005 28.2486 187.783 27.7336C188.547 27.298 189.033 26.4489 188.96 25.5141L188.234 16.1633C188.134 14.8723 187.006 13.9069 185.715 14.0072Z" fill="url(#paint11_linear_1263_15801)"/>
<path d="M154.576 62.8958C154.868 61.8063 155.894 61.079 157.019 61.1647L206.229 64.9129C207.693 65.0244 208.696 66.4392 208.315 67.8577L196.095 113.463C195.76 114.714 194.475 115.457 193.224 115.121L146.373 102.568C145.123 102.233 144.38 100.947 144.715 99.6961L154.576 62.8958Z" fill="url(#paint12_linear_1263_15801)"/>
<g filter="url(#filter1_b_1263_15801)">
<rect x="158.078" y="37.5327" width="59.6481" height="69.8472" rx="4" transform="rotate(15 158.078 37.5327)" fill="url(#paint13_linear_1263_15801)"/>
</g>
<rect x="162.795" y="44.8684" width="1.63669" height="57.5842" rx="0.818346" transform="rotate(15 162.795 44.8684)" fill="url(#paint14_linear_1263_15801)"/>
<rect x="168.329" y="46.3511" width="1.63669" height="57.5842" rx="0.818346" transform="rotate(15 168.329 46.3511)" fill="url(#paint15_linear_1263_15801)"/>
<rect x="173.862" y="47.8337" width="1.63669" height="57.5842" rx="0.818346" transform="rotate(15 173.862 47.8337)" fill="url(#paint16_linear_1263_15801)"/>
<rect x="179.395" y="49.3162" width="1.63669" height="57.5842" rx="0.818346" transform="rotate(15 179.395 49.3162)" fill="url(#paint17_linear_1263_15801)"/>
<rect x="184.928" y="50.7988" width="1.63669" height="57.5842" rx="0.818346" transform="rotate(15 184.928 50.7988)" fill="url(#paint18_linear_1263_15801)"/>
<rect x="190.462" y="52.2815" width="1.63669" height="57.5842" rx="0.818346" transform="rotate(15 190.462 52.2815)" fill="url(#paint19_linear_1263_15801)"/>
<rect x="195.995" y="53.7642" width="1.63669" height="57.5842" rx="0.818346" transform="rotate(15 195.995 53.7642)" fill="url(#paint20_linear_1263_15801)"/>
<rect x="201.528" y="55.2466" width="1.63669" height="57.5842" rx="0.818346" transform="rotate(15 201.528 55.2466)" fill="url(#paint21_linear_1263_15801)"/>
<rect x="207.062" y="56.7292" width="1.63669" height="57.5842" rx="0.818346" transform="rotate(15 207.062 56.7292)" fill="url(#paint22_linear_1263_15801)"/>
<path d="M232.857 331.338C249.217 315.081 221.154 296.607 206.4 291L154 341.957C155.396 345.415 163.928 353.767 168.02 357.511C174.877 363.289 186.759 367.42 194.692 366.55C202.625 365.68 202.398 356.502 201.293 352.021L212.297 360.85C231.18 375.748 249.777 373.335 256.715 370.266C260.131 368.518 266.301 362.334 263.65 351.581C260.998 340.829 242.016 333.605 232.857 331.338Z" fill="url(#paint23_linear_1263_15801)"/>
<g filter="url(#filter2_d_1263_15801)">
<path d="M45.4643 198.33C28 214 64.3028 224.84 75.5 226.5L115.876 192.554C114.357 190.331 103.88 178.835 86.676 169.751C80.9735 166.74 72.0166 165.675 66.6073 167.525C61.198 169.375 62.8001 175.819 64.2773 178.81L55.1955 174.291C39.6508 166.715 27.0288 171.316 22.6609 174.563C20.5474 176.329 17.2067 181.656 20.752 188.834C24.2973 196.013 38.7041 198.155 45.4643 198.33Z" fill="url(#paint24_radial_1263_15801)"/>
</g>
<path d="M146.143 10.1203C146.191 9.69526 146.809 9.69526 146.857 10.1203L147.564 16.2853C147.814 18.4723 149.456 20.2432 151.618 20.6583L154.16 21.1467C154.55 21.2214 154.55 21.7786 154.16 21.8533L151.618 22.3417C149.456 22.7568 147.814 24.5277 147.564 26.7147L146.857 32.8796C146.809 33.3047 146.191 33.3047 146.143 32.8797L145.436 26.7147C145.186 24.5277 143.544 22.7568 141.382 22.3417L138.84 21.8533C138.45 21.7786 138.45 21.2214 138.84 21.1467L141.382 20.6583C143.544 20.2432 145.186 18.4723 145.436 16.2853L146.143 10.1203Z" fill="white"/>
<circle cx="86.1585" cy="35.1585" r="2.15854" fill="#E6F1FF"/>
<circle cx="30.1585" cy="163.159" r="2.15854" fill="#E6F1FF"/>
<circle cx="22.1585" cy="158.159" r="2.15854" fill="#5ABA39"/>
<circle cx="243.5" cy="24.5" r="1.5" fill="#E6F1FF"/>
<circle cx="251" cy="31" r="1" fill="#4B9AFF"/>
<circle cx="205" cy="278" r="2" fill="#FFC191"/>
<circle cx="31" cy="268" r="3" fill="#99FF91"/>
<circle cx="211.5" cy="288.5" r="2.5" fill="#FFFAF5"/>
<circle cx="95.2378" cy="29.2378" r="3.2378" fill="#70FFDD"/>
<circle cx="250.238" cy="316.238" r="3.2378" fill="white"/>
<circle cx="245" cy="308" r="2" fill="#FFAD4D"/>
<circle cx="70" cy="316" r="51" transform="rotate(-45.5043 70 316)" fill="url(#paint25_linear_1263_15801)"/>
<path d="M197.218 41.8641C203.273 34.8952 217.795 21.1352 227.442 21.8471C239.098 22.7073 236.119 32.9067 226.927 35.3156C234.121 33.7718 248.175 32.6158 253.867 39.0704C261.318 47.5194 246.863 53.7018 234.35 49.5037C221.836 45.3056 209.245 43.8515 201.469 46.9272L197.218 41.8641Z" fill="url(#paint26_linear_1263_15801)"/>
<path d="M224.795 79.0324C224.845 78.6089 225.46 78.6089 225.51 79.0324L226.461 87.1106C226.719 89.3002 228.372 91.0676 230.539 91.4722L234.411 92.1951C234.802 92.2683 234.802 92.8293 234.411 92.9024L230.539 93.6253C228.372 94.03 226.719 95.7973 226.461 97.987L225.51 106.065C225.46 106.489 224.845 106.489 224.795 106.065L223.843 97.987C223.585 95.7973 221.933 94.03 219.766 93.6253L215.894 92.9024C215.502 92.8293 215.502 92.2683 215.894 92.1951L219.766 91.4723C221.933 91.0676 223.585 89.3002 223.843 87.1106L224.795 79.0324Z" fill="#8D8DFF"/>
<path d="M44.6428 123.992C44.6933 123.569 45.3067 123.569 45.3572 123.992L46.7479 135.64C47.0095 137.831 48.6666 139.596 50.8364 139.996L57.0797 141.146C57.4725 141.219 57.4725 141.781 57.0797 141.854L50.8364 143.004C48.6666 143.404 47.0095 145.169 46.7479 147.36L45.3572 159.008C45.3067 159.431 44.6933 159.431 44.6428 159.008L43.2521 147.36C42.9905 145.169 41.3334 143.404 39.1636 143.004L32.9203 141.854C32.5275 141.781 32.5275 141.219 32.9203 141.146L39.1636 139.996C41.3334 139.596 42.9905 137.831 43.2521 135.64L44.6428 123.992Z" fill="#33874B"/>
<path d="M260.581 289.763C260.71 288.673 262.29 288.673 262.419 289.763L262.556 290.918C262.904 293.854 265.122 296.222 268.029 296.762C268.846 296.914 268.846 298.086 268.029 298.238C265.122 298.778 262.904 301.146 262.556 304.082L262.419 305.237C262.29 306.327 260.71 306.327 260.581 305.237L260.444 304.082C260.096 301.146 257.878 298.778 254.971 298.238C254.154 298.086 254.154 296.914 254.971 296.762C257.878 296.222 260.096 293.854 260.444 290.918L260.581 289.763Z" fill="#FFE040"/>
<circle cx="29" cy="286" r="5" fill="white"/>
<g filter="url(#filter3_d_1263_15801)">
<rect x="49.0002" y="235.712" width="124.187" height="91.9059" rx="11" transform="rotate(-43.127 49.0002 235.712)" fill="#54B870"/>
</g>
<rect x="60.1893" y="236.185" width="100" height="76" rx="7" transform="rotate(-43.127 60.1893 236.185)" fill="#60D781"/>
<path d="M68.2146 229.63C66.1987 226.157 67.5117 221.704 71.0893 219.88L84.4861 213.05C85.0717 212.751 85.6123 212.372 86.092 211.922L133.903 167.139C136.725 164.496 141.155 164.641 143.797 167.463L186.182 212.713C188.825 215.534 188.68 219.964 185.858 222.607L121.632 282.765C118.811 285.408 114.381 285.263 111.738 282.442L81.5582 250.221C79.1265 247.625 76.9975 244.762 75.2119 241.685L68.2146 229.63Z" fill="url(#paint27_linear_1263_15801)"/>
<rect x="160.029" y="168.701" width="38" height="14" rx="4" transform="rotate(46.873 160.029 168.701)" fill="url(#paint28_linear_1263_15801)"/>
<rect x="137.82" y="177.172" width="56" height="7" rx="2" transform="rotate(46.873 137.82 177.172)" fill="#79D297"/>
<rect x="129.792" y="184.692" width="56" height="7" rx="2" transform="rotate(46.873 129.792 184.692)" fill="#9FE9B8"/>
<rect x="121.764" y="192.212" width="36.252" height="7" rx="2" transform="rotate(46.873 121.764 192.212)" fill="#9FE9B8"/>
<rect x="109.109" y="204" width="56.5101" height="7" rx="2" transform="rotate(46.873 109.109 204)" fill="#9FE9B8"/>
<rect x="100.109" y="212" width="56.5101" height="7" rx="2" transform="rotate(46.873 100.109 212)" fill="#9FE9B8"/>
<path d="M171.5 89L181.099 121.958L208.237 100.936L196.63 133.242L230.941 132.186L202.562 151.5L230.941 170.814L196.63 169.758L208.237 202.064L181.099 181.042L171.5 214L161.901 181.042L134.763 202.064L146.37 169.758L112.059 170.814L140.437 151.5L112.059 132.186L146.37 133.242L134.763 100.936L161.901 121.958L171.5 89Z" fill="url(#paint29_linear_1263_15801)"/>
<g filter="url(#filter4_d_1263_15801)">
<path fill-rule="evenodd" clip-rule="evenodd" d="M225.701 169.893C228.339 165.146 234.041 163.028 239.138 164.902C244.235 166.775 247.208 172.082 246.144 177.408L239.247 211.912C238.722 214.539 239.158 217.268 240.476 219.602L245.15 227.879C246.763 230.736 247.04 234.157 245.908 237.236L208.606 338.714C207.043 342.965 202.33 345.144 198.08 343.581L154.697 327.634C150.446 326.071 148.267 321.359 149.829 317.108L187.132 215.63C188.264 212.551 190.691 210.124 193.77 208.992L202.69 205.714C205.206 204.789 207.305 202.992 208.607 200.65L225.701 169.893Z" fill="url(#paint30_linear_1263_15801)"/>
<rect x="227.17" y="162.885" width="23.8559" height="4.47298" rx="2.23649" transform="rotate(20.1831 227.17 162.885)" fill="url(#paint31_linear_1263_15801)"/>
<rect x="228.714" y="158.687" width="23.8559" height="4.47298" rx="2.23649" transform="rotate(20.1831 228.714 158.687)" fill="url(#paint32_linear_1263_15801)"/>
</g>
<rect x="184.128" y="231.39" width="57.4033" height="80.5137" rx="28.7016" transform="rotate(20.1831 184.128 231.39)" fill="url(#paint33_linear_1263_15801)"/>
<rect x="196.17" y="212.648" width="43.2388" height="4.47298" rx="2.23649" transform="rotate(20.1831 196.17 212.648)" fill="url(#paint34_linear_1263_15801)"/>
<path fill-rule="evenodd" clip-rule="evenodd" d="M155.846 301.076L171.013 259.776C178.237 258.346 189.262 257.614 200.999 260.787C214.599 264.465 228.928 262.593 237.053 260.547L221.04 304.15C214.633 304.312 202.543 303.573 186.68 299.775C173.41 296.598 162.748 298.42 155.846 301.076Z" fill="url(#paint35_radial_1263_15801)"/>
<rect x="91.8923" y="291.618" width="54.8374" height="68.3062" rx="5.75755" transform="rotate(-15 91.8923 291.618)" fill="url(#paint36_linear_1263_15801)"/>
<g filter="url(#filter5_b_1263_15801)">
<path fill-rule="evenodd" clip-rule="evenodd" d="M85.4046 267.461C82.3331 268.284 80.5104 271.441 81.3334 274.512L84.8232 287.536L68.7415 291.845C64.7924 292.904 62.4489 296.963 63.5071 300.912L75.8602 347.014C76.9183 350.963 80.9774 353.307 84.9264 352.248L101.008 347.939L104.498 360.964C105.321 364.035 108.478 365.858 111.55 365.035L164.547 350.834C167.618 350.011 169.441 346.854 168.618 343.783L145.454 257.331C144.631 254.26 141.474 252.437 138.402 253.26L85.4046 267.461ZM98.2597 337.682L87.2662 296.654L75.6219 299.774C74.3055 300.127 73.5243 301.48 73.8771 302.796L83.5933 339.058C83.946 340.374 85.2991 341.155 86.6154 340.802L98.2597 337.682Z" fill="url(#paint37_linear_1263_15801)"/>
</g>
<rect x="92.0568" y="273.646" width="3.84824" height="83.6992" rx="1.92412" transform="rotate(-15 92.0568 273.646)" fill="url(#paint38_linear_1263_15801)"/>
<rect x="100.42" y="271.405" width="3.84824" height="83.6992" rx="1.92412" transform="rotate(-15 100.42 271.405)" fill="url(#paint39_linear_1263_15801)"/>
<rect x="108.784" y="269.164" width="3.84824" height="83.6992" rx="1.92412" transform="rotate(-15 108.784 269.164)" fill="url(#paint40_linear_1263_15801)"/>
<rect x="117.147" y="266.924" width="3.84824" height="83.6992" rx="1.92412" transform="rotate(-15 117.147 266.924)" fill="url(#paint41_linear_1263_15801)"/>
<rect x="125.511" y="264.682" width="3.84824" height="83.6992" rx="1.92412" transform="rotate(-15 125.511 264.682)" fill="url(#paint42_linear_1263_15801)"/>
<rect x="133.874" y="262.441" width="3.84824" height="83.6992" rx="1.92412" transform="rotate(-15 133.874 262.441)" fill="url(#paint43_linear_1263_15801)"/>
<path d="M216 252.5C248.227 233.842 250.606 228.49 260.039 182.158C263.233 166.471 279.159 156.925 294.5 161.5L281.5 393H178C158.5 353 168.5 280 216 252.5Z" fill="url(#paint44_linear_1263_15801)"/>
<path d="M206.5 190.5C257.3 166.1 276 106.667 279 80L259.5 36C247.5 66 224.5 90 160 120C95.5 150 118.5 210.5 108.5 258.5C100.5 296.9 -2 344.667 -25 346.5L39.5 401C46.8333 400 73.8 387.7 123 346.5C184.5 295 143 221 206.5 190.5Z" fill="url(#paint45_linear_1263_15801)"/>
<path d="M82.5 124C80.8585 97.0319 93.916 69.5483 109.099 47.7956C124.575 25.6224 129.166 -4.28238 114.5 -27H20.5L-58 8L-54.5 245C-37.5 247 1.3 249.8 20.5 245C44.5 239 86 181.5 82.5 124Z" fill="url(#paint46_linear_1263_15801)"/>
</g>
<defs>
<filter id="filter0_d_1263_15801" x="-25.1398" y="-50.8356" width="237.375" height="303.929" filterUnits="userSpaceOnUse" color-interpolation-filters="sRGB">
<feFlood flood-opacity="0" result="BackgroundImageFix"/>
<feColorMatrix in="SourceAlpha" type="matrix" values="0 0 0 0 0 0 0 0 0 0 0 0 0 0 0 0 0 0 127 0" result="hardAlpha"/>
<feOffset/>
<feGaussianBlur stdDeviation="31.4662"/>
<feComposite in2="hardAlpha" operator="out"/>
<feColorMatrix type="matrix" values="0 0 0 0 0.404167 0 0 0 0 0.331181 0 0 0 0 0.0724132 0 0 0 0.25 0"/>
<feBlend mode="normal" in2="BackgroundImageFix" result="effect1_dropShadow_1263_15801"/>
<feBlend mode="normal" in="SourceGraphic" in2="effect1_dropShadow_1263_15801" result="shape"/>
</filter>
<filter id="filter1_b_1263_15801" x="134.438" y="31.9703" width="86.8182" height="94.0301" filterUnits="userSpaceOnUse" color-interpolation-filters="sRGB">
<feFlood flood-opacity="0" result="BackgroundImageFix"/>
<feGaussianBlur in="BackgroundImageFix" stdDeviation="3.23019"/>
<feComposite in2="SourceAlpha" operator="in" result="effect1_backgroundBlur_1263_15801"/>
<feBlend mode="normal" in="SourceGraphic" in2="effect1_backgroundBlur_1263_15801" result="shape"/>
</filter>
<filter id="filter2_d_1263_15801" x="-10.8021" y="140.61" width="156.679" height="119.89" filterUnits="userSpaceOnUse" color-interpolation-filters="sRGB">
<feFlood flood-opacity="0" result="BackgroundImageFix"/>
<feColorMatrix in="SourceAlpha" type="matrix" values="0 0 0 0 0 0 0 0 0 0 0 0 0 0 0 0 0 0 127 0" result="hardAlpha"/>
<feOffset dy="4"/>
<feGaussianBlur stdDeviation="15"/>
<feComposite in2="hardAlpha" operator="out"/>
<feColorMatrix type="matrix" values="0 0 0 0 0.0513542 0 0 0 0 0.155975 0 0 0 0 0.425 0 0 0 0.25 0"/>
<feBlend mode="normal" in2="BackgroundImageFix" result="effect1_dropShadow_1263_15801"/>
<feBlend mode="normal" in="SourceGraphic" in2="effect1_dropShadow_1263_15801" result="shape"/>
</filter>
<filter id="filter3_d_1263_15801" x="13.5482" y="119.364" width="224.369" height="222.877" filterUnits="userSpaceOnUse" color-interpolation-filters="sRGB">
<feFlood flood-opacity="0" result="BackgroundImageFix"/>
<feColorMatrix in="SourceAlpha" type="matrix" values="0 0 0 0 0 0 0 0 0 0 0 0 0 0 0 0 0 0 127 0" result="hardAlpha"/>
<feOffset dy="4"/>
<feGaussianBlur stdDeviation="20"/>
<feComposite in2="hardAlpha" operator="out"/>
<feColorMatrix type="matrix" values="0 0 0 0 0.0801327 0 0 0 0 0.120833 0 0 0 0 0.0735069 0 0 0 0.25 0"/>
<feBlend mode="normal" in2="BackgroundImageFix" result="effect1_dropShadow_1263_15801"/>
<feBlend mode="normal" in="SourceGraphic" in2="effect1_dropShadow_1263_15801" result="shape"/>
</filter>
<filter id="filter4_d_1263_15801" x="126.959" y="136.956" width="145.877" height="229.496" filterUnits="userSpaceOnUse" color-interpolation-filters="sRGB">
<feFlood flood-opacity="0" result="BackgroundImageFix"/>
<feColorMatrix in="SourceAlpha" type="matrix" values="0 0 0 0 0 0 0 0 0 0 0 0 0 0 0 0 0 0 127 0" result="hardAlpha"/>
<feOffset/>
<feGaussianBlur stdDeviation="11.1825"/>
<feComposite in2="hardAlpha" operator="out"/>
<feColorMatrix type="matrix" values="0 0 0 0 0.266667 0 0 0 0 0.186693 0 0 0 0 0.113333 0 0 0 0.5 0"/>
<feBlend mode="normal" in2="BackgroundImageFix" result="effect1_dropShadow_1263_15801"/>
<feBlend mode="normal" in="SourceGraphic" in2="effect1_dropShadow_1263_15801" result="shape"/>
</filter>
<filter id="filter5_b_1263_15801" x="56.6729" y="246.483" width="118.723" height="125.33" filterUnits="userSpaceOnUse" color-interpolation-filters="sRGB">
<feFlood flood-opacity="0" result="BackgroundImageFix"/>
<feGaussianBlur in="BackgroundImageFix" stdDeviation="3.29003"/>
<feComposite in2="SourceAlpha" operator="in" result="effect1_backgroundBlur_1263_15801"/>
<feBlend mode="normal" in="SourceGraphic" in2="effect1_backgroundBlur_1263_15801" result="shape"/>
</filter>
<linearGradient id="paint0_linear_1263_15801" x1="211.557" y1="60.481" x2="211.557" y2="151.396" gradientUnits="userSpaceOnUse">
<stop stop-color="#76FF54" stop-opacity="0.35"/>
<stop offset="1" stop-color="#D9D9D9" stop-opacity="0"/>
</linearGradient>
<linearGradient id="paint1_linear_1263_15801" x1="39.0107" y1="204.3" x2="39.0107" y2="262.014" gradientUnits="userSpaceOnUse">
<stop stop-color="#FBFF34" stop-opacity="0.35"/>
<stop offset="1" stop-color="#91933D" stop-opacity="0"/>
</linearGradient>
<linearGradient id="paint2_linear_1263_15801" x1="7.48818" y1="38.1841" x2="66.604" y2="137.155" gradientUnits="userSpaceOnUse">
<stop stop-color="#4798E3"/>
<stop offset="1" stop-color="#33775A" stop-opacity="0"/>
</linearGradient>
<linearGradient id="paint3_linear_1263_15801" x1="45.4921" y1="14.1569" x2="121.959" y2="178.495" gradientUnits="userSpaceOnUse">
<stop offset="0.270833" stop-color="#224DD0"/>
<stop offset="1" stop-color="#5BDEAF"/>
</linearGradient>
<linearGradient id="paint4_linear_1263_15801" x1="94.9339" y1="82.7246" x2="126.886" y2="150.856" gradientUnits="userSpaceOnUse">
<stop stop-color="#93E0D1"/>
<stop offset="0.0001" stop-color="#99C7BE"/>
<stop offset="1" stop-color="#1B3F55"/>
</linearGradient>
<linearGradient id="paint5_linear_1263_15801" x1="76.5985" y1="72.5773" x2="71.9862" y2="91.7176" gradientUnits="userSpaceOnUse">
<stop stop-color="#D3DCFF"/>
<stop offset="1" stop-color="white" stop-opacity="0"/>
</linearGradient>
<linearGradient id="paint6_linear_1263_15801" x1="86.3348" y1="90.7602" x2="60.2177" y2="109.429" gradientUnits="userSpaceOnUse">
<stop stop-color="#B6C0E9"/>
<stop offset="1" stop-color="#AABAFF" stop-opacity="0"/>
</linearGradient>
<linearGradient id="paint7_linear_1263_15801" x1="74.5913" y1="75.2899" x2="101.22" y2="75.2899" gradientUnits="userSpaceOnUse">
<stop stop-color="white" stop-opacity="0.52"/>
<stop offset="1" stop-color="white" stop-opacity="0"/>
</linearGradient>
<linearGradient id="paint8_linear_1263_15801" x1="92.3464" y1="178.356" x2="141.056" y2="178.356" gradientUnits="userSpaceOnUse">
<stop stop-color="white" stop-opacity="0.52"/>
<stop offset="1" stop-color="white" stop-opacity="0"/>
</linearGradient>
<radialGradient id="paint9_radial_1263_15801" cx="0" cy="0" r="1" gradientUnits="userSpaceOnUse" gradientTransform="translate(124.351 109.986) rotate(64.8746) scale(36.7462 32.2464)">
<stop stop-color="#78B8A6"/>
<stop offset="1" stop-color="#EDF2FF"/>
</radialGradient>
<linearGradient id="paint10_linear_1263_15801" x1="43.6523" y1="10.9222" x2="62.0713" y2="50.1972" gradientUnits="userSpaceOnUse">
<stop stop-color="#2D654A"/>
<stop offset="1" stop-color="#61CDE4"/>
</linearGradient>
<linearGradient id="paint11_linear_1263_15801" x1="191.587" y1="14" x2="191.587" y2="63.065" gradientUnits="userSpaceOnUse">
<stop stop-color="#186C35"/>
<stop offset="0.528686" stop-color="#3F9C86"/>
<stop offset="1" stop-color="#134438"/>
</linearGradient>
<linearGradient id="paint12_linear_1263_15801" x1="180.77" y1="67.9006" x2="169.799" y2="108.845" gradientUnits="userSpaceOnUse">
<stop stop-color="#3CAC91" stop-opacity="0.81"/>
<stop offset="1" stop-color="#2A51B7"/>
</linearGradient>
<linearGradient id="paint13_linear_1263_15801" x1="187.902" y1="37.5327" x2="187.902" y2="107.38" gradientUnits="userSpaceOnUse">
<stop stop-color="#B4F1FF" stop-opacity="0.43"/>
<stop offset="1" stop-color="white" stop-opacity="0.2"/>
<stop offset="1" stop-color="white" stop-opacity="0.03"/>
</linearGradient>
<linearGradient id="paint14_linear_1263_15801" x1="163.614" y1="44.8684" x2="163.614" y2="102.453" gradientUnits="userSpaceOnUse">
<stop stop-color="white" stop-opacity="0.49"/>
<stop offset="1" stop-color="white" stop-opacity="0"/>
</linearGradient>
<linearGradient id="paint15_linear_1263_15801" x1="169.147" y1="46.3511" x2="169.147" y2="103.935" gradientUnits="userSpaceOnUse">
<stop stop-color="white" stop-opacity="0.49"/>
<stop offset="1" stop-color="white" stop-opacity="0"/>
</linearGradient>
<linearGradient id="paint16_linear_1263_15801" x1="174.68" y1="47.8337" x2="174.68" y2="105.418" gradientUnits="userSpaceOnUse">
<stop stop-color="white" stop-opacity="0.49"/>
<stop offset="1" stop-color="white" stop-opacity="0"/>
</linearGradient>
<linearGradient id="paint17_linear_1263_15801" x1="180.213" y1="49.3162" x2="180.213" y2="106.9" gradientUnits="userSpaceOnUse">
<stop stop-color="white" stop-opacity="0.49"/>
<stop offset="1" stop-color="white" stop-opacity="0"/>
</linearGradient>
<linearGradient id="paint18_linear_1263_15801" x1="185.747" y1="50.7988" x2="185.747" y2="108.383" gradientUnits="userSpaceOnUse">
<stop stop-color="white" stop-opacity="0.49"/>
<stop offset="1" stop-color="white" stop-opacity="0"/>
</linearGradient>
<linearGradient id="paint19_linear_1263_15801" x1="191.28" y1="52.2815" x2="191.28" y2="109.866" gradientUnits="userSpaceOnUse">
<stop stop-color="white" stop-opacity="0.49"/>
<stop offset="1" stop-color="white" stop-opacity="0"/>
</linearGradient>
<linearGradient id="paint20_linear_1263_15801" x1="196.813" y1="53.7642" x2="196.813" y2="111.348" gradientUnits="userSpaceOnUse">
<stop stop-color="white" stop-opacity="0.49"/>
<stop offset="1" stop-color="white" stop-opacity="0"/>
</linearGradient>
<linearGradient id="paint21_linear_1263_15801" x1="202.347" y1="55.2466" x2="202.347" y2="112.831" gradientUnits="userSpaceOnUse">
<stop stop-color="white" stop-opacity="0.49"/>
<stop offset="1" stop-color="white" stop-opacity="0"/>
</linearGradient>
<linearGradient id="paint22_linear_1263_15801" x1="207.88" y1="56.7292" x2="207.88" y2="114.313" gradientUnits="userSpaceOnUse">
<stop stop-color="white" stop-opacity="0.49"/>
<stop offset="1" stop-color="white" stop-opacity="0"/>
</linearGradient>
<linearGradient id="paint23_linear_1263_15801" x1="244.5" y1="352.5" x2="186" y2="305" gradientUnits="userSpaceOnUse">
<stop stop-color="#FF8F4E" stop-opacity="0.47"/>
<stop offset="1" stop-color="#E0BC77" stop-opacity="0"/>
</linearGradient>
<radialGradient id="paint24_radial_1263_15801" cx="0" cy="0" r="1" gradientUnits="userSpaceOnUse" gradientTransform="translate(59 169) rotate(59.1232) scale(56.5088 64.6283)">
<stop stop-color="#E6FF4E"/>
<stop offset="1" stop-color="#117059"/>
</radialGradient>
<linearGradient id="paint25_linear_1263_15801" x1="70" y1="265" x2="70" y2="367" gradientUnits="userSpaceOnUse">
<stop stop-color="#FFC94B"/>
<stop offset="0.583333" stop-color="#35B56A" stop-opacity="0.33"/>
<stop offset="1" stop-color="#FF2600" stop-opacity="0.37"/>
</linearGradient>
<linearGradient id="paint26_linear_1263_15801" x1="239.661" y1="36.4722" x2="200.889" y2="48.0093" gradientUnits="userSpaceOnUse">
<stop stop-color="#5EE2CB"/>
<stop offset="0.390625" stop-color="#88A3E8" stop-opacity="0.578125"/>
<stop offset="1" stop-color="#D9D9D9" stop-opacity="0"/>
</linearGradient>
<linearGradient id="paint27_linear_1263_15801" x1="120.88" y1="230.033" x2="72.7353" y2="220.323" gradientUnits="userSpaceOnUse">
<stop stop-color="#D6FFE1"/>
<stop offset="0.71132" stop-color="#99FFB6"/>
<stop offset="0.843323" stop-color="#88E1A1"/>
</linearGradient>
<linearGradient id="paint28_linear_1263_15801" x1="179.029" y1="168.701" x2="179.029" y2="182.701" gradientUnits="userSpaceOnUse">
<stop stop-color="#407986"/>
<stop offset="1" stop-color="#27AECC"/>
</linearGradient>
<linearGradient id="paint29_linear_1263_15801" x1="134" y1="102" x2="217" y2="191.5" gradientUnits="userSpaceOnUse">
<stop stop-color="#30FF83"/>
<stop offset="0.536458" stop-color="#FFB628"/>
<stop offset="1" stop-color="#FF2E11"/>
</linearGradient>
<linearGradient id="paint30_linear_1263_15801" x1="239.139" y1="164.902" x2="178.951" y2="328.637" gradientUnits="userSpaceOnUse">
<stop stop-color="#FF9736"/>
<stop offset="1" stop-color="#FF3D00"/>
</linearGradient>
<linearGradient id="paint31_linear_1263_15801" x1="228.661" y1="163.631" x2="248.044" y2="167.358" gradientUnits="userSpaceOnUse">
<stop stop-color="#FF691B"/>
<stop offset="1" stop-color="#FFC531"/>
</linearGradient>
<linearGradient id="paint32_linear_1263_15801" x1="249.215" y1="159.806" x2="227.223" y2="162.042" gradientUnits="userSpaceOnUse">
<stop stop-color="#FF691B"/>
<stop offset="1" stop-color="#FFC531"/>
</linearGradient>
<linearGradient id="paint33_linear_1263_15801" x1="212.83" y1="231.39" x2="212.83" y2="311.904" gradientUnits="userSpaceOnUse">
<stop stop-color="#5DB056"/>
<stop offset="1" stop-color="#FFC700"/>
</linearGradient>
<linearGradient id="paint34_linear_1263_15801" x1="189.518" y1="212.648" x2="213.644" y2="233.442" gradientUnits="userSpaceOnUse">
<stop stop-color="white"/>
<stop offset="1" stop-color="white" stop-opacity="0"/>
</linearGradient>
<radialGradient id="paint35_radial_1263_15801" cx="0" cy="0" r="1" gradientUnits="userSpaceOnUse" gradientTransform="translate(196.48 280.657) rotate(110.166) scale(31.2246 31.2873)">
<stop stop-color="#FFC634"/>
<stop offset="1" stop-color="#FFF8E7"/>
</radialGradient>
<linearGradient id="paint36_linear_1263_15801" x1="119.311" y1="291.618" x2="119.311" y2="359.925" gradientUnits="userSpaceOnUse">
<stop offset="0.125" stop-color="white"/>
<stop offset="0.244792" stop-color="#FF9213"/>
<stop offset="1" stop-color="#FFB800"/>
</linearGradient>
<linearGradient id="paint37_linear_1263_15801" x1="72.1689" y1="277.481" x2="95.8238" y2="365.763" gradientUnits="userSpaceOnUse">
<stop stop-color="#FFDCA8" stop-opacity="0.79"/>
<stop offset="1" stop-color="#FFC56F" stop-opacity="0.35"/>
</linearGradient>
<linearGradient id="paint38_linear_1263_15801" x1="93.9809" y1="273.646" x2="93.9809" y2="357.345" gradientUnits="userSpaceOnUse">
<stop stop-color="white"/>
<stop offset="1" stop-color="white" stop-opacity="0"/>
</linearGradient>
<linearGradient id="paint39_linear_1263_15801" x1="102.344" y1="271.405" x2="102.344" y2="355.104" gradientUnits="userSpaceOnUse">
<stop stop-color="white"/>
<stop offset="1" stop-color="white" stop-opacity="0"/>
</linearGradient>
<linearGradient id="paint40_linear_1263_15801" x1="110.708" y1="269.164" x2="110.708" y2="352.863" gradientUnits="userSpaceOnUse">
<stop stop-color="white"/>
<stop offset="1" stop-color="white" stop-opacity="0"/>
</linearGradient>
<linearGradient id="paint41_linear_1263_15801" x1="119.071" y1="266.924" x2="119.071" y2="350.623" gradientUnits="userSpaceOnUse">
<stop stop-color="white"/>
<stop offset="1" stop-color="white" stop-opacity="0"/>
</linearGradient>
<linearGradient id="paint42_linear_1263_15801" x1="127.435" y1="264.682" x2="127.435" y2="348.382" gradientUnits="userSpaceOnUse">
<stop stop-color="white"/>
<stop offset="1" stop-color="white" stop-opacity="0"/>
</linearGradient>
<linearGradient id="paint43_linear_1263_15801" x1="135.798" y1="262.441" x2="135.798" y2="346.141" gradientUnits="userSpaceOnUse">
<stop stop-color="white"/>
<stop offset="1" stop-color="white" stop-opacity="0"/>
</linearGradient>
<linearGradient id="paint44_linear_1263_15801" x1="127.5" y1="210" x2="239" y2="258.5" gradientUnits="userSpaceOnUse">
<stop stop-color="white"/>
<stop offset="1" stop-color="white" stop-opacity="0"/>
</linearGradient>
<linearGradient id="paint45_linear_1263_15801" x1="237.5" y1="110.5" x2="110.5" y2="396" gradientUnits="userSpaceOnUse">
<stop offset="0.0208333" stop-color="white" stop-opacity="0"/>
<stop offset="0.488633" stop-color="white" stop-opacity="0.27"/>
<stop offset="1" stop-color="white" stop-opacity="0"/>
</linearGradient>
<linearGradient id="paint46_linear_1263_15801" x1="185.5" y1="186" x2="58" y2="124.5" gradientUnits="userSpaceOnUse">
<stop stop-color="white" stop-opacity="0.4"/>
<stop offset="1" stop-color="white" stop-opacity="0"/>
</linearGradient>
<clipPath id="clip0_1263_15801">
<rect width="272" height="384" fill="white"/>
</clipPath>
<clipPath id="clip1_1263_15801">
<rect width="89.1525" height="98.537" fill="white" transform="translate(149.652 -16.3457) rotate(75.5118)"/>
</clipPath>
</defs>
</svg>
