<svg width="32" height="32" viewBox="0 0 32 32" fill="none" xmlns="http://www.w3.org/2000/svg">
<path fill-rule="evenodd" clip-rule="evenodd" d="M14.3146 2.41133C14.462 1.48324 15.2623 0.800049 16.202 0.800049V0.800049C17.1417 0.800049 17.942 1.48324 18.0894 2.41133L19.0656 8.55713C19.1414 9.03425 19.3873 9.46781 19.7579 9.7777L20.8996 10.7323C21.354 11.1123 21.6167 11.6743 21.6167 12.2667L21.6167 30.0001C21.6167 31.1046 20.7212 32.0001 19.6167 32.0001L12.7869 32.0001C11.6823 32.0001 10.7869 31.1046 10.7869 30.0001L10.7869 12.2667C10.7869 11.6743 11.0495 11.1123 11.5039 10.7323L12.6462 9.77726C13.0168 9.46737 13.2627 9.03381 13.3385 8.55669L14.3146 2.41133Z" fill="url(#paint0_linear_788_7740)"/>
<rect x="14.1389" y="0.761108" width="4.12564" height="0.760964" rx="0.380482" fill="url(#paint1_linear_788_7740)"/>
<rect x="14.1392" y="-0.00012207" width="4.12564" height="0.760964" rx="0.380482" fill="url(#paint2_linear_788_7740)"/>
<rect x="11.24" y="15.1509" width="9.92731" height="13.924" rx="4.96365" fill="url(#paint3_linear_788_7740)"/>
<rect x="12.0764" y="11.3903" width="7.47771" height="0.773556" rx="0.386778" fill="url(#paint4_linear_788_7740)"/>
<defs>
<linearGradient id="paint0_linear_788_7740" x1="16.2018" y1="1.05859" x2="16.2018" y2="30.7364" gradientUnits="userSpaceOnUse">
<stop stop-color="#FF9736"/>
<stop offset="1" stop-color="#FF3D00"/>
</linearGradient>
<linearGradient id="paint1_linear_788_7740" x1="14.3968" y1="0.887936" x2="17.7449" y2="1.54245" gradientUnits="userSpaceOnUse">
<stop stop-color="#FF691B"/>
<stop offset="1" stop-color="#FFC531"/>
</linearGradient>
<linearGradient id="paint2_linear_788_7740" x1="17.6846" y1="0.19012" x2="13.8826" y2="0.583164" gradientUnits="userSpaceOnUse">
<stop stop-color="#FF691B"/>
<stop offset="1" stop-color="#FFC531"/>
</linearGradient>
<linearGradient id="paint3_linear_788_7740" x1="16.2036" y1="15.1509" x2="16.2036" y2="29.0749" gradientUnits="userSpaceOnUse">
<stop stop-color="#5DB056"/>
<stop offset="1" stop-color="#FFC700"/>
</linearGradient>
<linearGradient id="paint4_linear_788_7740" x1="10.926" y1="11.3903" x2="15.0984" y2="14.9864" gradientUnits="userSpaceOnUse">
<stop stop-color="white"/>
<stop offset="1" stop-color="white" stop-opacity="0"/>
</linearGradient>
</defs>
</svg>
