<svg width="40" height="40" viewBox="0 0 40 40" fill="none" xmlns="http://www.w3.org/2000/svg">
<path fill-rule="evenodd" clip-rule="evenodd" d="M19.4562 12.7191C19.0927 13.0301 19.0682 13.5572 19.4014 13.8965L25.396 20L19.4016 26.1036C19.0684 26.4428 19.093 26.97 19.4565 27.281C19.82 27.592 20.3847 27.569 20.7179 27.2298L27.2653 20.5631C27.5782 20.2445 27.5782 19.7555 27.2653 19.4369L20.7176 12.7702C20.3844 12.431 19.8197 12.4081 19.4562 12.7191Z" fill="#DDDDE4"/>
<path fill-rule="evenodd" clip-rule="evenodd" d="M13.6228 12.7191C13.2593 13.0301 13.2348 13.5572 13.568 13.8965L19.5626 20L13.5683 26.1036C13.2351 26.4428 13.2596 26.97 13.6231 27.281C13.9866 27.592 14.5514 27.569 14.8846 27.2298L21.432 20.5631C21.7449 20.2445 21.7449 19.7555 21.4319 19.4369L14.8843 12.7702C14.5511 12.431 13.9863 12.4081 13.6228 12.7191Z" fill="#DDDDE4"/>
</svg>
