<svg width="40" height="40" viewBox="0 0 40 40" fill="none" xmlns="http://www.w3.org/2000/svg">
<path fill-rule="evenodd" clip-rule="evenodd" d="M20.5438 12.7191C20.9073 13.0301 20.9318 13.5572 20.5986 13.8965L14.604 20L20.5984 26.1036C20.9316 26.4428 20.907 26.97 20.5435 27.281C20.18 27.592 19.6153 27.569 19.2821 27.2298L12.7347 20.5631C12.4218 20.2445 12.4218 19.7555 12.7347 19.4369L19.2824 12.7702C19.6156 12.431 20.1803 12.4081 20.5438 12.7191Z" fill="#DDDDE4"/>
<path fill-rule="evenodd" clip-rule="evenodd" d="M26.3773 12.7191C26.7408 13.0301 26.7653 13.5572 26.4321 13.8965L20.4375 20L26.4319 26.1036C26.7651 26.4428 26.7405 26.97 26.377 27.281C26.0135 27.592 25.4488 27.569 25.1156 27.2298L18.5682 20.5631C18.2553 20.2445 18.2553 19.7555 18.5682 19.4369L25.1159 12.7702C25.4491 12.431 26.0138 12.4081 26.3773 12.7191Z" fill="#DDDDE4"/>
</svg>
