<svg width="40" height="40" viewBox="0 0 40 40" fill="none" xmlns="http://www.w3.org/2000/svg">
<path d="M23.3335 14.1666C25.3452 15.3141 26.6668 17.5183 26.6668 19.9999C26.6668 21.3185 26.2758 22.6074 25.5433 23.7037C24.8108 24.8 23.7696 25.6545 22.5514 26.1591C21.3332 26.6637 19.9928 26.7957 18.6996 26.5385C17.4064 26.2813 16.2185 25.6463 15.2861 24.714C14.3538 23.7816 13.7188 22.5937 13.4616 21.3005C13.2044 20.0073 13.3364 18.6669 13.841 17.4487C14.3456 16.2305 15.2 15.1893 16.2964 14.4568C17.3927 13.7242 18.6816 13.3333 20.0002 13.3333" stroke="#DDDDE4" stroke-width="1.5" stroke-linecap="round" stroke-linejoin="round"/>
<path d="M23.3335 17.4998V14.1665H26.6668" stroke="#DDDDE4" stroke-width="1.5" stroke-linecap="round" stroke-linejoin="round"/>
</svg>
