<svg  viewBox="0 0 328 275" fill="none" xmlns="http://www.w3.org/2000/svg">
<circle cx="76.249" cy="112.249" r="50.7157" transform="rotate(-91.7596 76.249 112.249)" fill="url(#paint0_linear_1151_8765)"/>
<circle cx="75.5717" cy="175.572" r="42.5634" transform="rotate(-126.756 75.5717 175.572)" fill="url(#paint1_linear_1151_8765)"/>
<path fill-rule="evenodd" clip-rule="evenodd" d="M175.911 216.023C175.717 216.719 175.558 217.429 175.437 218.153C172.963 232.951 187.071 247.642 206.949 250.966C226.827 254.29 244.947 244.988 247.421 230.19C247.723 228.389 247.778 226.589 247.607 224.811C248.567 224.975 249.546 225.107 250.541 225.207C265.079 226.659 277.596 220.506 278.499 211.464C278.906 207.393 276.889 203.431 273.222 200.172C274.662 200.07 276.118 199.903 277.584 199.667C297.482 196.466 311.681 181.862 309.298 167.049C306.915 152.236 288.853 142.823 268.955 146.024C262.736 147.025 257.075 149.138 252.302 152.024C254.019 148.135 254.663 143.98 253.992 139.807C251.609 124.994 233.546 115.581 213.648 118.782C204.733 120.216 196.961 123.94 191.313 128.945L153.03 135.104L166.297 217.569L175.911 216.023Z" fill="url(#paint2_linear_1151_8765)"/>
<path d="M216.388 205.297C216.545 203.981 218.455 203.981 218.612 205.297L219.469 212.462C220.11 217.822 224.165 222.14 229.474 223.116L231.01 223.398C232.233 223.623 232.233 225.377 231.01 225.602L229.474 225.884C224.165 226.86 220.11 231.178 219.469 236.538L218.612 243.703C218.455 245.019 216.545 245.019 216.388 243.703L215.531 236.538C214.89 231.178 210.835 226.86 205.526 225.884L203.99 225.602C202.767 225.377 202.767 223.623 203.99 223.398L205.526 223.116C210.835 222.14 214.89 217.822 215.531 212.462L216.388 205.297Z" fill="white"/>
<path d="M74.888 94.3134C75.0452 92.9973 76.9548 92.9973 77.112 94.3134L77.335 96.1815C77.8422 100.429 81.0548 103.852 85.2617 104.627V104.627C86.2308 104.806 86.2308 106.194 85.2617 106.373V106.373C81.0548 107.148 77.8422 110.571 77.335 114.819L77.112 116.687C76.9548 118.003 75.0452 118.003 74.888 116.687L74.665 114.819C74.1578 110.571 70.9452 107.148 66.7383 106.373V106.373C65.7692 106.194 65.7692 104.806 66.7383 104.627V104.627C70.9452 103.852 74.1578 100.429 74.665 96.1815L74.888 94.3134Z" fill="#FFD027"/>
<circle cx="255.5" cy="84.5" r="5.5" fill="#FFB13C"/>
<path d="M142 131C141.362 118.799 142 109 134.826 83.278C129.588 64.5 120.477 40.6525 127.652 11" stroke="url(#paint3_linear_1151_8765)" stroke-width="34"/>
<path d="M142 131C141.362 118.799 142 109 134.826 83.278C129.588 64.5 120.477 40.6525 127.652 11" stroke="url(#paint4_linear_1151_8765)" stroke-width="10"/>
<circle cx="239.438" cy="93.4381" r="3.43811" fill="white"/>
<circle cx="163.5" cy="240.5" r="2.5" fill="white"/>
<circle cx="179.5" cy="245.5" r="2.5" fill="white"/>
<circle cx="186.5" cy="228.5" r="3.5" fill="#FFD645"/>
<path d="M145.537 132.5C143.704 119.333 147.839 92.9381 167.537 76.5C194.5 54 220.5 54 250.037 11" stroke="url(#paint5_linear_1151_8765)" stroke-width="36"/>
<path d="M145.537 132.5C143.704 119.333 147.839 92.9381 167.537 76.5C194.5 54 220.5 54 250.037 11" stroke="url(#paint6_linear_1151_8765)" stroke-width="10"/>
<path d="M147.523 120.589C146.291 121.396 144.697 121.396 143.464 120.589L126.207 109.279C123.131 107.263 124.559 102.48 128.237 102.48L162.75 102.48C166.429 102.48 167.857 107.263 164.78 109.279L147.523 120.589Z" fill="url(#paint7_linear_1151_8765)"/>
<path d="M230.467 132.748C229.375 130.857 226.957 130.21 225.067 131.301L170.601 162.747L181.097 180.927L224.23 156.024C232.38 151.319 235.172 140.898 230.467 132.748V132.748Z" fill="url(#paint8_linear_1151_8765)"/>
<path d="M182.217 108.68C181.125 106.79 178.707 106.142 176.817 107.233L151.285 121.974L161.781 140.154L175.98 131.957C184.13 127.251 186.922 116.83 182.217 108.68V108.68Z" fill="url(#paint9_linear_1151_8765)"/>
<path d="M110.516 109.711C111.609 107.726 114.104 107.002 116.089 108.095L144.568 123.77L134.061 142.86L117.482 133.734C108.925 129.024 105.806 118.268 110.516 109.711V109.711Z" fill="url(#paint10_linear_1151_8765)"/>
<path d="M226.649 163.283C225.558 161.392 223.14 160.744 221.249 161.836L166.784 193.281L177.28 211.461L220.413 186.559C228.562 181.853 231.355 171.432 226.649 163.283V163.283Z" fill="url(#paint11_linear_1151_8765)"/>
<path d="M60.52 132.748C61.6116 130.857 64.0293 130.209 65.9201 131.301L120.386 162.747L109.89 180.927L66.7568 156.024C58.607 151.319 55.8147 140.898 60.52 132.748V132.748Z" fill="url(#paint12_linear_1151_8765)"/>
<path d="M64.3374 163.282C65.429 161.392 67.8467 160.744 69.7375 161.835L124.203 193.281L113.707 211.461L70.5742 186.559C62.4244 181.853 59.6321 171.432 64.3374 163.282V163.282Z" fill="url(#paint13_linear_1151_8765)"/>
<path d="M142.717 117.968C144.435 116.976 146.552 116.976 148.271 117.968L193.221 143.92C194.939 144.912 195.998 146.746 195.998 148.73V200.634C195.998 202.619 194.939 204.452 193.221 205.444L148.271 231.397C146.552 232.389 144.435 232.389 142.717 231.397L97.7661 205.444C96.0477 204.452 94.9891 202.619 94.9891 200.634V148.73C94.9891 146.746 96.0477 144.912 97.7661 143.92L142.717 117.968Z" fill="#FFE143"/>
<path d="M143.642 130.393C144.788 129.732 146.199 129.732 147.345 130.393L182.923 150.935C184.069 151.596 184.775 152.818 184.775 154.141V195.224C184.775 196.547 184.069 197.769 182.923 198.431L147.345 218.972C146.199 219.633 144.788 219.633 143.642 218.972L108.063 198.431C106.918 197.769 106.212 196.547 106.212 195.224V154.141C106.212 152.818 106.918 151.596 108.063 150.935L143.642 130.393Z" fill="url(#paint14_radial_1151_8765)"/>
<path d="M126.054 165.426H125.129V166.351V186.716C125.129 189.272 127.201 191.345 129.757 191.345H146.419H147.345V190.419V166.351V165.426H146.419H126.054Z" fill="url(#paint15_linear_1151_8765)" stroke="#DC7517" stroke-width="1.85135"/>
<path d="M146.419 165.426H145.493V166.351V190.419V191.345H146.419H161.23C163.786 191.345 165.858 189.272 165.858 186.716V166.351V165.426H164.932H146.419Z" fill="url(#paint16_linear_1151_8765)" stroke="#DC7517" stroke-width="1.85135"/>
<path d="M146.145 150.514L169.353 163.279C169.992 163.63 169.992 164.549 169.353 164.901L146.145 177.666C145.867 177.819 145.53 177.819 145.252 177.666L122.044 164.901C121.405 164.549 121.405 163.63 122.044 163.279L145.252 150.514C145.53 150.361 145.867 150.361 146.145 150.514Z" fill="#FFDA33" stroke="#DC7517" stroke-width="1.85135"/>
<defs>
<linearGradient id="paint0_linear_1151_8765" x1="76.249" y1="68.5556" x2="76.249" y2="162.965" gradientUnits="userSpaceOnUse">
<stop stop-color="#FFC226" stop-opacity="0.35"/>
<stop offset="1" stop-color="#D9D9D9" stop-opacity="0"/>
</linearGradient>
<linearGradient id="paint1_linear_1151_8765" x1="75.5717" y1="138.902" x2="75.5717" y2="218.135" gradientUnits="userSpaceOnUse">
<stop stop-color="#FF9B26" stop-opacity="0.35"/>
<stop offset="1" stop-color="#A06826" stop-opacity="0"/>
</linearGradient>
<linearGradient id="paint2_linear_1151_8765" x1="320.552" y1="166.748" x2="185.737" y2="126.798" gradientUnits="userSpaceOnUse">
<stop stop-color="#E8CD43" stop-opacity="0.78"/>
<stop offset="1" stop-color="#E03E33" stop-opacity="0"/>
</linearGradient>
<linearGradient id="paint3_linear_1151_8765" x1="129.5" y1="16.5" x2="133.5" y2="131" gradientUnits="userSpaceOnUse">
<stop stop-color="#214B9C" stop-opacity="0"/>
<stop offset="0.453458" stop-color="#234076"/>
</linearGradient>
<linearGradient id="paint4_linear_1151_8765" x1="129.5" y1="16.5" x2="133.5" y2="131" gradientUnits="userSpaceOnUse">
<stop stop-color="#2A59B6" stop-opacity="0"/>
<stop offset="0.453458" stop-color="#4274D5"/>
</linearGradient>
<linearGradient id="paint5_linear_1151_8765" x1="194.5" y1="-3.5" x2="162" y2="84" gradientUnits="userSpaceOnUse">
<stop stop-color="#4E6FAE" stop-opacity="0"/>
<stop offset="1" stop-color="#43619B"/>
</linearGradient>
<linearGradient id="paint6_linear_1151_8765" x1="194.5" y1="-3.5" x2="162" y2="84" gradientUnits="userSpaceOnUse">
<stop stop-color="#2D62C8" stop-opacity="0"/>
<stop offset="1" stop-color="#518CFF"/>
</linearGradient>
<linearGradient id="paint7_linear_1151_8765" x1="145.494" y1="121.919" x2="145.494" y2="95.9999" gradientUnits="userSpaceOnUse">
<stop stop-color="#B87A41"/>
<stop offset="1" stop-color="#FFE347"/>
</linearGradient>
<linearGradient id="paint8_linear_1151_8765" x1="231.353" y1="138.867" x2="201.773" y2="163.676" gradientUnits="userSpaceOnUse">
<stop stop-color="#FFDF36"/>
<stop offset="1" stop-color="#EDA333"/>
</linearGradient>
<linearGradient id="paint9_linear_1151_8765" x1="184.095" y1="114.226" x2="168.102" y2="125.439" gradientUnits="userSpaceOnUse">
<stop stop-color="#FFDF36"/>
<stop offset="1" stop-color="#EDA333"/>
</linearGradient>
<linearGradient id="paint10_linear_1151_8765" x1="108.742" y1="115.538" x2="126.436" y2="127.535" gradientUnits="userSpaceOnUse">
<stop stop-color="#FFDF36"/>
<stop offset="1" stop-color="#EDA333"/>
</linearGradient>
<linearGradient id="paint11_linear_1151_8765" x1="227.535" y1="169.401" x2="197.955" y2="194.21" gradientUnits="userSpaceOnUse">
<stop stop-color="#FFDF36"/>
<stop offset="1" stop-color="#EDA333"/>
</linearGradient>
<linearGradient id="paint12_linear_1151_8765" x1="59.634" y1="138.867" x2="89.2143" y2="163.676" gradientUnits="userSpaceOnUse">
<stop stop-color="#FFDF36"/>
<stop offset="1" stop-color="#EDA333"/>
</linearGradient>
<linearGradient id="paint13_linear_1151_8765" x1="63.4514" y1="169.401" x2="93.0317" y2="194.21" gradientUnits="userSpaceOnUse">
<stop stop-color="#FFDF36"/>
<stop offset="1" stop-color="#EDA333"/>
</linearGradient>
<radialGradient id="paint14_radial_1151_8765" cx="0" cy="0" r="1" gradientUnits="userSpaceOnUse" gradientTransform="translate(145.493 174.683) rotate(90) scale(45.3581)">
<stop stop-color="#FFEC88"/>
<stop offset="1" stop-color="#EF9918"/>
</radialGradient>
<linearGradient id="paint15_linear_1151_8765" x1="136.237" y1="166.351" x2="136.237" y2="190.419" gradientUnits="userSpaceOnUse">
<stop stop-color="#DC7517"/>
<stop offset="1" stop-color="#FFD704"/>
</linearGradient>
<linearGradient id="paint16_linear_1151_8765" x1="155.676" y1="166.351" x2="155.676" y2="190.419" gradientUnits="userSpaceOnUse">
<stop stop-color="#DC7517"/>
<stop offset="1" stop-color="#FFD704"/>
</linearGradient>
</defs>
</svg>
