<svg  viewBox="0 0 328 270" fill="none" xmlns="http://www.w3.org/2000/svg">
<path fill-rule="evenodd" clip-rule="evenodd" d="M172.499 209.63C172.134 210.463 171.832 211.327 171.598 212.221C168.162 225.366 180.758 240.043 199.732 245.002C218.706 249.962 236.872 243.327 240.308 230.182C240.385 229.889 240.454 229.595 240.515 229.3C241.257 229.542 242.014 229.766 242.785 229.97C256.528 233.608 269.504 229.628 271.767 221.08C272.546 218.136 271.953 215.033 270.278 212.082C286.836 213.527 301.47 206.322 305.278 193.687C309.591 179.377 298.481 163.198 280.142 156.197C283.097 152.656 284.758 148.663 284.757 144.441C284.753 129.841 264.883 118.011 240.376 118.017C226.052 118.021 213.314 122.067 205.202 128.344L163.003 128.355L163.024 209.633L172.499 209.63Z" fill="url(#paint0_linear_1151_10833)"/>
<path d="M170.927 118.389L130.216 9.00003" stroke="url(#paint1_linear_1151_10833)" stroke-width="36"/>
<path d="M170.927 118.389L130.216 9.00003" stroke="url(#paint2_linear_1151_10833)" stroke-width="15"/>
<path d="M158.912 114.729L206.158 8.00001" stroke="url(#paint3_linear_1151_10833)" stroke-width="36"/>
<path d="M158.912 114.729L206.158 8.00001" stroke="url(#paint4_linear_1151_10833)" stroke-width="15"/>
<circle cx="270.5" cy="78.5" r="5.5" fill="#E86CFF"/>
<circle cx="254.438" cy="87.4381" r="3.43811" fill="white"/>
<circle cx="82.3393" cy="126.339" r="59.5445" transform="rotate(-60 82.3393 126.339)" fill="url(#paint5_linear_1151_10833)"/>
<path d="M75.9747 110.885C77.1246 108.893 79.6714 108.211 81.6631 109.36L139.037 142.485L127.98 161.636L82.5445 135.404C73.9595 130.447 71.0181 119.47 75.9747 110.885V110.885Z" fill="url(#paint6_linear_1151_10833)"/>
<path d="M79.9952 143.05C81.1451 141.058 83.6919 140.376 85.6836 141.525L143.058 174.65L132.001 193.801L86.565 167.569C77.9801 162.612 75.0386 151.635 79.9952 143.05V143.05Z" fill="url(#paint7_linear_1151_10833)"/>
<path d="M252.749 111.673C251.563 109.62 248.938 108.916 246.885 110.101L187.743 144.247L199.14 163.988L245.976 136.947C254.826 131.838 257.858 120.522 252.749 111.673V111.673Z" fill="url(#paint8_linear_1151_10833)"/>
<path d="M248.604 144.829C247.418 142.776 244.793 142.072 242.74 143.258L183.598 177.404L194.995 197.145L241.831 170.104C250.681 164.994 253.713 153.679 248.604 144.829V144.829Z" fill="url(#paint9_linear_1151_10833)"/>
<path d="M161.484 92.9368C163.35 91.8595 165.649 91.8595 167.515 92.9368L216.325 121.117C218.191 122.194 219.341 124.185 219.341 126.34V182.701C219.341 184.856 218.191 186.847 216.325 187.924L167.515 216.104C165.649 217.182 163.35 217.182 161.484 216.104L112.675 187.924C110.809 186.847 109.659 184.856 109.659 182.701V126.34C109.659 124.185 110.809 122.194 112.675 121.117L161.484 92.9368Z" fill="#E1D8E6"/>
<path d="M162.49 106.429C163.734 105.71 165.266 105.71 166.51 106.429L205.144 128.734C206.388 129.452 207.154 130.779 207.154 132.216V176.825C207.154 178.262 206.388 179.589 205.144 180.307L166.51 202.612C165.266 203.331 163.734 203.331 162.49 202.612L123.856 180.307C122.612 179.589 121.846 178.262 121.846 176.825V132.216C121.846 130.779 122.612 129.452 123.856 128.734L162.49 106.429Z" fill="url(#paint10_radial_1151_10833)"/>
<mask id="mask0_1151_10833" style="mask-type:alpha" maskUnits="userSpaceOnUse" x="121" y="105" width="87" height="99">
<path d="M162.49 106.429C163.734 105.71 165.266 105.71 166.51 106.429L205.144 128.734C206.388 129.452 207.154 130.779 207.154 132.216V176.825C207.154 178.262 206.388 179.589 205.144 180.307L166.51 202.612C165.266 203.331 163.734 203.331 162.49 202.612L123.856 180.307C122.612 179.589 121.846 178.262 121.846 176.825V132.216C121.846 130.779 122.612 129.452 123.856 128.734L162.49 106.429Z" fill="url(#paint11_radial_1151_10833)"/>
</mask>
<g mask="url(#mask0_1151_10833)">
<path d="M167.444 156.381C165.854 158.091 163.146 158.091 161.556 156.381L145.543 139.166C143.151 136.594 144.974 132.407 148.487 132.407L180.513 132.407C184.025 132.407 185.849 136.594 183.457 139.166L167.444 156.381Z" fill="url(#paint12_linear_1151_10833)"/>
<mask id="mask1_1151_10833" style="mask-type:alpha" maskUnits="userSpaceOnUse" x="144" y="132" width="41" height="26">
<path d="M167.444 156.381C165.854 158.091 163.146 158.091 161.556 156.381L145.543 139.166C143.151 136.594 144.974 132.407 148.487 132.407L180.513 132.407C184.025 132.407 185.849 136.594 183.457 139.166L167.444 156.381Z" fill="url(#paint13_linear_1151_10833)"/>
</mask>
<g mask="url(#mask1_1151_10833)">
<rect x="107.552" y="145.121" width="61.0547" height="4.21067" transform="rotate(-53.7291 107.552 145.121)" fill="#858BBE"/>
<rect x="114.341" y="150.103" width="61.0547" height="4.21067" transform="rotate(-53.7291 114.341 150.103)" fill="#858BBE"/>
<rect x="121.131" y="155.085" width="61.0547" height="4.21067" transform="rotate(-53.7291 121.131 155.085)" fill="#858BBE"/>
<rect x="127.92" y="160.067" width="61.0547" height="4.21067" transform="rotate(-53.7291 127.92 160.067)" fill="#858BBE"/>
<rect x="134.709" y="165.049" width="61.0547" height="4.21067" transform="rotate(-53.7291 134.709 165.049)" fill="#858BBE"/>
<rect x="141.5" y="170.031" width="61.0547" height="4.21067" transform="rotate(-53.7291 141.5 170.031)" fill="#858BBE"/>
<rect x="148.288" y="175.014" width="61.0547" height="4.21067" transform="rotate(-53.7291 148.288 175.014)" fill="#858BBE"/>
<rect x="155.078" y="179.995" width="61.0547" height="4.21067" transform="rotate(-53.7291 155.078 179.995)" fill="#858BBE"/>
<rect x="161.868" y="184.978" width="61.0547" height="4.21067" transform="rotate(-53.7291 161.868 184.978)" fill="#858BBE"/>
<rect x="168.657" y="189.96" width="61.0547" height="4.21067" transform="rotate(-53.7291 168.657 189.96)" fill="#858BBE"/>
</g>
<path d="M157.464 151.505H171.536L183.598 215.835H145.402L157.464 151.505Z" fill="url(#paint14_linear_1151_10833)"/>
<mask id="mask2_1151_10833" style="mask-type:alpha" maskUnits="userSpaceOnUse" x="145" y="151" width="39" height="65">
<path d="M157.464 151.505H171.536L183.598 215.835H145.402L157.464 151.505Z" fill="url(#paint15_linear_1151_10833)"/>
</mask>
<g mask="url(#mask2_1151_10833)">
<rect x="102.192" y="155.532" width="74.819" height="5.15993" transform="rotate(-29.2819 102.192 155.532)" fill="#B2B1E1"/>
<rect x="107.24" y="164.534" width="74.819" height="5.15993" transform="rotate(-29.2819 107.24 164.534)" fill="#B2B1E1"/>
<rect x="112.287" y="173.535" width="74.819" height="5.15993" transform="rotate(-29.2819 112.287 173.535)" fill="#B2B1E1"/>
<rect x="117.333" y="182.536" width="74.819" height="5.15993" transform="rotate(-29.2819 117.333 182.536)" fill="#B2B1E1"/>
<rect x="122.382" y="191.537" width="74.819" height="5.15993" transform="rotate(-29.2819 122.382 191.537)" fill="#B2B1E1"/>
<rect x="127.429" y="200.539" width="74.819" height="5.15993" transform="rotate(-29.2819 127.429 200.539)" fill="#B2B1E1"/>
<rect x="132.477" y="209.54" width="74.819" height="5.15993" transform="rotate(-29.2819 132.477 209.54)" fill="#B2B1E1"/>
<rect x="137.524" y="218.541" width="74.819" height="5.15993" transform="rotate(-29.2819 137.524 218.541)" fill="#B2B1E1"/>
<rect x="142.572" y="227.542" width="74.819" height="5.15993" transform="rotate(-29.2819 142.572 227.542)" fill="#B2B1E1"/>
<rect x="147.62" y="236.544" width="74.819" height="5.15993" transform="rotate(-29.2819 147.62 236.544)" fill="#B2B1E1"/>
</g>
</g>
<circle cx="96.5" cy="101.5" r="3.5" fill="white"/>
<circle cx="84.5" cy="99.5" r="2.5" fill="white"/>
<path d="M91.8878 192.355C92.0444 191.038 93.9556 191.038 94.1122 192.355L94.6237 196.658C95.238 201.825 99.1433 205.991 104.26 206.938C105.438 207.156 105.438 208.844 104.26 209.062C99.1433 210.009 95.238 214.175 94.6237 219.342L94.1122 223.645C93.9556 224.962 92.0444 224.962 91.8878 223.645L91.3763 219.342C90.762 214.175 86.8567 210.009 81.7399 209.062C80.5617 208.844 80.5617 207.156 81.7399 206.938C86.8567 205.991 90.762 201.825 91.3763 196.658L91.8878 192.355Z" fill="#E240FF"/>
<path d="M226.582 57.7617C226.711 56.674 228.289 56.674 228.418 57.7617L228.6 59.3049C229.015 62.8083 231.66 65.6348 235.128 66.2799C235.927 66.4283 235.927 67.5717 235.128 67.7201C231.66 68.3652 229.015 71.1917 228.6 74.6951L228.418 76.2383C228.289 77.326 226.711 77.326 226.582 76.2383L226.4 74.6951C225.985 71.1917 223.34 68.3652 219.872 67.7201C219.073 67.5717 219.073 66.4283 219.872 66.2799C223.34 65.6348 225.985 62.8083 226.4 59.3049L226.582 57.7617Z" fill="white"/>
<defs>
<linearGradient id="paint0_linear_1151_10833" x1="319.07" y1="184.608" x2="195.708" y2="125.422" gradientUnits="userSpaceOnUse">
<stop stop-color="#7D61EF" stop-opacity="0.78"/>
<stop offset="1" stop-color="#505476" stop-opacity="0"/>
</linearGradient>
<linearGradient id="paint1_linear_1151_10833" x1="101.211" y1="25.23" x2="127.779" y2="92.5948" gradientUnits="userSpaceOnUse">
<stop stop-color="#256EFA" stop-opacity="0"/>
<stop offset="1" stop-color="#2C5FC1"/>
</linearGradient>
<linearGradient id="paint2_linear_1151_10833" x1="101.211" y1="25.23" x2="127.779" y2="92.5948" gradientUnits="userSpaceOnUse">
<stop stop-color="#081020" stop-opacity="0"/>
<stop offset="1" stop-color="#13359A"/>
</linearGradient>
<linearGradient id="paint3_linear_1151_10833" x1="164" y1="0.999999" x2="149.803" y2="52.202" gradientUnits="userSpaceOnUse">
<stop stop-color="#3668C9" stop-opacity="0"/>
<stop offset="1" stop-color="#5992FF"/>
</linearGradient>
<linearGradient id="paint4_linear_1151_10833" x1="164" y1="0.999999" x2="149.803" y2="52.202" gradientUnits="userSpaceOnUse">
<stop stop-color="#25324B" stop-opacity="0"/>
<stop offset="1" stop-color="#2351CF"/>
</linearGradient>
<linearGradient id="paint5_linear_1151_10833" x1="82.3393" y1="75.0394" x2="82.3393" y2="185.884" gradientUnits="userSpaceOnUse">
<stop stop-color="#5D4E7E"/>
<stop offset="1" stop-color="#D9D9D9" stop-opacity="0"/>
<stop offset="1" stop-color="#5F596C" stop-opacity="0"/>
</linearGradient>
<linearGradient id="paint6_linear_1151_10833" x1="75.0413" y1="117.33" x2="106.201" y2="143.464" gradientUnits="userSpaceOnUse">
<stop stop-color="#C9C2D8"/>
<stop offset="1" stop-color="#8F84A6"/>
</linearGradient>
<linearGradient id="paint7_linear_1151_10833" x1="79.0618" y1="149.495" x2="110.222" y2="175.629" gradientUnits="userSpaceOnUse">
<stop stop-color="#C9C2D8"/>
<stop offset="1" stop-color="#8F84A6"/>
</linearGradient>
<linearGradient id="paint8_linear_1151_10833" x1="253.711" y1="118.317" x2="221.591" y2="145.256" gradientUnits="userSpaceOnUse">
<stop stop-color="#C9C2D8"/>
<stop offset="1" stop-color="#8F84A6"/>
</linearGradient>
<linearGradient id="paint9_linear_1151_10833" x1="249.566" y1="151.473" x2="217.446" y2="178.412" gradientUnits="userSpaceOnUse">
<stop stop-color="#C9C2D8"/>
<stop offset="1" stop-color="#8F84A6"/>
</linearGradient>
<radialGradient id="paint10_radial_1151_10833" cx="0" cy="0" r="1" gradientUnits="userSpaceOnUse" gradientTransform="translate(164.5 154.52) rotate(90) scale(49.2525)">
<stop stop-color="#EDE4FF"/>
<stop offset="1" stop-color="#BBB4C9"/>
</radialGradient>
<radialGradient id="paint11_radial_1151_10833" cx="0" cy="0" r="1" gradientUnits="userSpaceOnUse" gradientTransform="translate(164.5 154.52) rotate(90) scale(49.2525)">
<stop stop-color="#EDE4FF"/>
<stop offset="1" stop-color="#BBB4C9"/>
</radialGradient>
<linearGradient id="paint12_linear_1151_10833" x1="164.5" y1="159.546" x2="164.5" y2="123.361" gradientUnits="userSpaceOnUse">
<stop stop-color="#414DB8"/>
<stop offset="1" stop-color="#504F66"/>
</linearGradient>
<linearGradient id="paint13_linear_1151_10833" x1="164.5" y1="159.546" x2="164.5" y2="123.361" gradientUnits="userSpaceOnUse">
<stop stop-color="#414DB8"/>
<stop offset="1" stop-color="#504F66"/>
</linearGradient>
<linearGradient id="paint14_linear_1151_10833" x1="164.5" y1="151.505" x2="164.5" y2="215.835" gradientUnits="userSpaceOnUse">
<stop stop-color="#8D93D3"/>
<stop offset="0.994792" stop-color="#4E57B1"/>
</linearGradient>
<linearGradient id="paint15_linear_1151_10833" x1="164.5" y1="151.505" x2="164.5" y2="215.835" gradientUnits="userSpaceOnUse">
<stop stop-color="#8D93D3"/>
<stop offset="0.994792" stop-color="#4E57B1"/>
</linearGradient>
</defs>
</svg>
