<svg  viewBox="0 0 327 265" fill="none" xmlns="http://www.w3.org/2000/svg">
<g clip-path="url(#clip0_1146_8193)">
<path fill-rule="evenodd" clip-rule="evenodd" d="M131 199C131 203.18 129.461 207.12 126.741 210.583C130.623 208.942 135.157 208 140 208C141.74 208 143.44 208.122 145.084 208.354C145.029 207.908 145 207.456 145 207C145 198.716 154.402 192 166 192C177.598 192 187 198.716 187 207C187 215.284 177.598 222 166 222C165.74 222 165.48 221.997 165.222 221.99C165.73 223.433 166 224.944 166 226.5C166 228.626 165.496 230.668 164.569 232.569C179.962 236.393 191 246.783 191 259C191 274.464 173.315 287 151.5 287C145.586 287 139.975 286.079 134.938 284.427C119.394 291.564 97.6129 296 73.5 296C26.2797 296 -12 278.987 -12 258C-12 247.879 -3.09778 238.683 11.4163 231.872C7.98461 227.563 6 222.464 6 217C6 201.536 21.8939 189 41.5 189C47.2528 189 52.6861 190.079 57.492 191.995C62.0354 181.598 76.4368 174 93.5 174C114.211 174 131 185.193 131 199Z" fill="url(#paint0_linear_1146_8193)"/>
<circle cx="267.546" cy="165.546" r="46.5764" transform="rotate(129.328 267.546 165.546)" fill="url(#paint1_linear_1146_8193)"/>
<circle cx="246.884" cy="43.8841" r="42.7251" transform="rotate(61.6667 246.884 43.8841)" fill="url(#paint2_linear_1146_8193)"/>
<path fill-rule="evenodd" clip-rule="evenodd" d="M164.713 49.8244C165.007 49.1853 165.269 48.5273 165.497 47.8508C170.161 34.0164 158.878 17.722 140.294 11.4562C121.711 5.19043 102.864 11.326 98.1999 25.1604C97.6321 26.8445 97.3006 28.565 97.1899 30.2995C96.2931 29.9942 95.3733 29.7157 94.4327 29.4664C80.6904 25.8244 67.7136 29.8009 65.4484 38.3483C64.668 41.293 65.2607 44.3959 66.9349 47.3476C50.3773 45.8976 35.7414 53.0991 31.93 65.7333C27.3398 80.9488 40.1877 98.2818 60.6265 104.448C66.7085 106.282 72.7774 106.922 78.4233 106.513C78.0915 107.965 77.9187 109.457 77.9187 110.979C77.9187 125.579 93.8169 137.414 113.428 137.414C122.215 137.414 130.257 135.038 136.457 131.102L174.188 131.102L174.188 49.8244L164.713 49.8244Z" fill="url(#paint3_linear_1146_8193)"/>
<path d="M31.4428 230.757L187.433 123.607L194.081 130.656L75.9815 277.986L31.4428 230.757Z" fill="url(#paint4_linear_1146_8193)"/>
<path d="M123.298 308.389L199.8 135.295L209.158 137.804L186 325.2L123.298 308.389Z" fill="url(#paint5_linear_1146_8193)"/>
<path d="M252.385 312.524L214.246 127.16L223.324 123.773L313.207 289.83L252.385 312.524Z" fill="url(#paint6_linear_1146_8193)"/>
<path d="M346.028 221.973L228.943 127.169L233.473 118.604L376.378 164.587L346.028 221.973Z" fill="url(#paint7_linear_1146_8193)"/>
<path d="M-2.99983 122.067L185.561 105.972L187.858 115.385L12.3909 185.134L-2.99983 122.067Z" fill="url(#paint8_linear_1146_8193)"/>
<path d="M34.7084 -2.59066L194.93 98.1233L191.095 107.021L9.01212 57.0246L34.7084 -2.59066Z" fill="url(#paint9_linear_1146_8193)"/>
<path d="M199.3 39.346C200.548 38.5286 202.161 38.5286 203.408 39.346L220.87 50.7903C223.984 52.8307 222.539 57.6709 218.817 57.6709L183.892 57.6709C180.17 57.6709 178.725 52.8307 181.838 50.7903L199.3 39.346Z" fill="url(#paint10_linear_1146_8193)"/>
<path d="M226.098 45.2111C224.993 43.2979 222.547 42.6423 220.634 43.747L194.798 58.6634L205.419 77.0601L219.787 68.7648C228.034 64.0034 230.859 53.4581 226.098 45.2111V45.2111Z" fill="url(#paint11_linear_1146_8193)"/>
<path d="M177.2 46.2541C178.305 44.2451 180.831 43.5129 182.84 44.6187L211.658 60.4808L201.025 79.798L184.249 70.564C175.589 65.7975 172.433 54.9136 177.2 46.2541V46.2541Z" fill="url(#paint12_linear_1146_8193)"/>
<path d="M138.667 48.6822C139.636 46.9212 141.849 46.2794 143.61 47.2487L190.642 73.136L181.322 90.0685L144.846 69.9911C137.255 65.8131 134.489 56.2728 138.667 48.6822V48.6822Z" fill="url(#paint13_linear_1146_8193)"/>
<path d="M110.565 69.2898C111.534 67.5288 113.747 66.887 115.508 67.8563L171.255 98.5405L161.935 115.473L116.744 90.5987C109.153 86.4207 106.387 76.8803 110.565 69.2898V69.2898Z" fill="url(#paint14_linear_1146_8193)"/>
<path d="M115.483 75.7085C115.924 74.9077 116.93 74.6159 117.731 75.0566L168.756 103.142L164.518 110.842L118.293 85.3985C114.841 83.4986 113.583 79.1602 115.483 75.7085V75.7085Z" fill="url(#paint15_linear_1146_8193)"/>
<path d="M116.185 97.3912C117.154 95.6302 119.368 94.9884 121.129 95.9577L176.875 126.642L167.555 143.574L122.364 118.7C114.773 114.522 112.007 104.982 116.185 97.3912V97.3912Z" fill="url(#paint16_linear_1146_8193)"/>
<path d="M292.876 69.376C291.881 67.5674 289.607 66.9082 287.799 67.9037L230.544 99.4179L240.117 116.808L286.53 91.2612C294.326 86.9702 297.167 77.1719 292.876 69.376V69.376Z" fill="url(#paint17_linear_1146_8193)"/>
<path d="M287.104 98.2375C286.109 96.4288 283.835 95.7697 282.027 96.7652L224.772 128.279L234.345 145.67L280.758 120.123C288.554 115.832 291.395 106.033 287.104 98.2375V98.2375Z" fill="url(#paint18_linear_1146_8193)"/>
<path d="M289.206 75.0606C288.757 74.2511 287.737 73.9589 286.927 74.4079L236.013 102.65L240.33 110.433L286.393 84.8831C289.882 82.9476 291.142 78.5499 289.206 75.0606V75.0606Z" fill="url(#paint19_linear_1146_8193)"/>
<path fill-rule="evenodd" clip-rule="evenodd" d="M240.174 137.22C241.983 136.225 244.256 136.884 245.252 138.693C249.543 146.488 246.702 156.287 238.906 160.578L201.056 181.411L200.992 181.294L200.968 181.337L165.454 161.789C157.863 157.611 155.097 148.07 159.275 140.48C160.244 138.719 162.457 138.077 164.218 139.046L200.538 159.037L240.174 137.22Z" fill="url(#paint20_linear_1146_8193)"/>
<path d="M213.313 186C211.364 186 209.785 184.421 209.785 182.472L209.785 150.405L228.519 150.405L228.519 170.794C228.519 179.192 221.711 186 213.313 186V186Z" fill="url(#paint21_linear_1146_8193)"/>
<path d="M187.523 186C189.471 186 191.051 184.421 191.051 182.472L191.051 150.405L172.316 150.405L172.316 170.794C172.316 179.192 179.124 186 187.523 186V186Z" fill="url(#paint22_linear_1146_8193)"/>
<path d="M261.167 48.5029C260.207 46.8409 258.082 46.2715 256.42 47.2311L209.785 74.1561L219.011 90.1363L255.685 68.9627C262.848 64.8267 265.303 55.6666 261.167 48.5029V48.5029Z" fill="url(#paint23_linear_1146_8193)"/>
<path d="M198.544 52.7364C200.283 51.7325 202.426 51.7325 204.165 52.7364L249.651 78.9979C251.39 80.0019 252.461 81.8573 252.461 83.8652V136.388C252.461 138.396 251.39 140.251 249.651 141.255L204.165 167.517C202.426 168.521 200.283 168.521 198.544 167.517L153.058 141.255C151.319 140.251 150.248 138.396 150.248 136.388V83.8652C150.248 81.8573 151.319 80.0019 153.058 78.9979L198.544 52.7364Z" fill="#A7F1CD"/>
<path d="M199.481 65.3095C200.64 64.6402 202.069 64.6402 203.228 65.3095L239.231 86.0957C240.39 86.765 241.104 88.0019 241.104 89.3405V130.913C241.104 132.251 240.39 133.488 239.231 134.158L203.228 154.944C202.069 155.613 200.64 155.613 199.481 154.944L163.478 134.158C162.319 133.488 161.605 132.251 161.605 130.913V89.3405C161.605 88.0019 162.319 86.765 163.478 86.0957L199.481 65.3095Z" fill="url(#paint24_radial_1146_8193)"/>
<mask id="mask0_1146_8193" style="mask-type:alpha" maskUnits="userSpaceOnUse" x="161" y="64" width="81" height="92">
<path d="M199.481 65.3095C200.64 64.6402 202.069 64.6402 203.228 65.3095L239.231 86.0957C240.39 86.765 241.104 88.0019 241.104 89.3405V130.913C241.104 132.251 240.39 133.488 239.231 134.158L203.228 154.944C202.069 155.613 200.64 155.613 199.481 154.944L163.478 134.158C162.319 133.488 161.605 132.251 161.605 130.913V89.3405C161.605 88.0019 162.319 86.765 163.478 86.0957L199.481 65.3095Z" fill="url(#paint25_radial_1146_8193)"/>
</mask>
<g mask="url(#mask0_1146_8193)">
<path d="M219.734 126.746L242.166 148.203" stroke="#CEFFE2" stroke-opacity="0.6" stroke-width="2.43544" stroke-linecap="round"/>
<path d="M225.586 97.407L233.388 95.5356" stroke="#CEFFE2" stroke-opacity="0.6" stroke-width="2.43544" stroke-linecap="round"/>
<path d="M237.289 94.4657L245.092 92.5944" stroke="#CEFFE2" stroke-opacity="0.6" stroke-width="2.43544" stroke-linecap="round"/>
<path d="M215.596 75.1157L219.709 68.2266" stroke="#CEFFE2" stroke-opacity="0.6" stroke-width="2.43544" stroke-linecap="round"/>
<path d="M225.586 118.456L235.339 120.894" stroke="#CEFFE2" stroke-opacity="0.6" stroke-width="2.43544" stroke-linecap="round"/>
<path d="M241.191 122.557L250.944 124.995" stroke="#CEFFE2" stroke-opacity="0.6" stroke-width="2.43544" stroke-linecap="round"/>
<path d="M211.633 136.499L217.783 146.252" stroke="#CEFFE2" stroke-opacity="0.6" stroke-width="2.43544" stroke-linecap="round"/>
<path d="M184.336 79.9305L188.611 87.7331" stroke="#CEFFE2" stroke-opacity="0.6" stroke-width="2.43544" stroke-linecap="round"/>
<path d="M187.488 70.1775L190.127 78.6738" stroke="#CEFFE2" stroke-opacity="0.6" stroke-width="2.43544" stroke-linecap="round"/>
<path d="M225.586 109.447L256.62 108.757" stroke="#CEFFE2" stroke-opacity="0.6" stroke-width="2.43544" stroke-linecap="round"/>
<path d="M184.623 126.746L169.018 142.351" stroke="#CEFFE2" stroke-opacity="0.6" stroke-width="2.43544" stroke-linecap="round"/>
<path d="M179.677 117.837L167.067 120.693" stroke="#CEFFE2" stroke-opacity="0.6" stroke-width="2.43544" stroke-linecap="round"/>
<path d="M177.697 100.829L169.018 98.9531" stroke="#CEFFE2" stroke-opacity="0.6" stroke-width="2.43544" stroke-linecap="round"/>
<path d="M162.092 96.9283L153.413 95.052" stroke="#CEFFE2" stroke-opacity="0.6" stroke-width="2.43544" stroke-linecap="round"/>
<path d="M177.795 110.166H171.944" stroke="#CEFFE2" stroke-opacity="0.6" stroke-width="2.43544" stroke-linecap="round"/>
<path d="M167.067 110.166H157.313" stroke="#CEFFE2" stroke-opacity="0.6" stroke-width="2.43544" stroke-linecap="round"/>
<path d="M202.291 76.395V52.9874" stroke="#CEFFE2" stroke-opacity="0.6" stroke-width="2.43544" stroke-linecap="round"/>
<path d="M200.229 148.203L200.229 142.351" stroke="#CEFFE2" stroke-opacity="0.6" stroke-width="2.43544" stroke-linecap="round"/>
<path d="M200.229 159.906L200.229 152.104" stroke="#CEFFE2" stroke-opacity="0.6" stroke-width="2.43544" stroke-linecap="round"/>
<path d="M221.685 84.7787L238.237 68.2271" stroke="#CEFFE2" stroke-opacity="0.6" stroke-width="2.43544" stroke-linecap="round"/>
<path d="M177.767 86.7291L161.215 70.1775" stroke="#CEFFE2" stroke-opacity="0.6" stroke-width="2.43544" stroke-linecap="round"/>
</g>
<rect x="196.671" y="82.962" width="9.36709" height="54.3291" rx="1.87342" fill="white"/>
<rect x="219.152" y="97.9493" width="9.36709" height="35.5949" rx="1.87342" transform="rotate(90 219.152 97.9493)" fill="white"/>
<path d="M114.388 128.458C114.543 127.139 116.457 127.139 116.612 128.458L117.332 134.576C117.962 139.932 122.002 144.256 127.303 145.247L128.114 145.399C129.333 145.627 129.333 147.373 128.114 147.601L127.303 147.753C122.002 148.744 117.962 153.068 117.332 158.424L116.612 164.542C116.457 165.861 114.543 165.861 114.388 164.542L113.668 158.424C113.038 153.068 108.998 148.744 103.697 147.753L102.886 147.601C101.667 147.373 101.667 145.627 102.886 145.399L103.697 145.247C108.998 144.256 113.038 139.932 113.668 134.576L114.388 128.458Z" fill="white"/>
<circle cx="79.5" cy="114.5" r="5.5" fill="white"/>
<circle cx="68.4381" cy="129.438" r="3.43811" fill="#72FF5B"/>
<circle cx="256.5" cy="207.5" r="3.5" fill="white"/>
<circle cx="271" cy="216" r="5" fill="#80E0FF"/>
</g>
<defs>
<linearGradient id="paint0_linear_1146_8193" x1="117" y1="181.5" x2="100" y2="278" gradientUnits="userSpaceOnUse">
<stop stop-color="#75FFFF" stop-opacity="0.3"/>
<stop offset="1" stop-color="#315555" stop-opacity="0"/>
</linearGradient>
<linearGradient id="paint1_linear_1146_8193" x1="267.546" y1="125.419" x2="267.546" y2="212.123" gradientUnits="userSpaceOnUse">
<stop stop-color="#08BFB4" stop-opacity="0.35"/>
<stop offset="1" stop-color="#D9D9D9" stop-opacity="0"/>
</linearGradient>
<linearGradient id="paint2_linear_1146_8193" x1="246.884" y1="7.07473" x2="246.884" y2="86.6092" gradientUnits="userSpaceOnUse">
<stop stop-color="#26FF63" stop-opacity="0.15"/>
<stop offset="1" stop-color="#D9D9D9" stop-opacity="0"/>
</linearGradient>
<linearGradient id="paint3_linear_1146_8193" x1="18.1357" y1="74.8088" x2="141.482" y2="134.027" gradientUnits="userSpaceOnUse">
<stop stop-color="#61E7EF" stop-opacity="0.78"/>
<stop offset="1" stop-color="#32CE70" stop-opacity="0"/>
</linearGradient>
<linearGradient id="paint4_linear_1146_8193" x1="189.76" y1="126.074" x2="53.7122" y2="254.372" gradientUnits="userSpaceOnUse">
<stop stop-color="#5CC284" stop-opacity="0.78"/>
<stop offset="1" stop-color="#4C6A58" stop-opacity="0"/>
</linearGradient>
<linearGradient id="paint5_linear_1146_8193" x1="203.075" y1="136.173" x2="154.649" y2="316.795" gradientUnits="userSpaceOnUse">
<stop stop-color="#5CC284" stop-opacity="0.78"/>
<stop offset="1" stop-color="#4C6A58" stop-opacity="0"/>
</linearGradient>
<linearGradient id="paint6_linear_1146_8193" x1="217.423" y1="125.975" x2="282.796" y2="301.177" gradientUnits="userSpaceOnUse">
<stop stop-color="#5CC284" stop-opacity="0.78"/>
<stop offset="1" stop-color="#4C6A58" stop-opacity="0"/>
</linearGradient>
<linearGradient id="paint7_linear_1146_8193" x1="230.528" y1="124.171" x2="361.203" y2="193.28" gradientUnits="userSpaceOnUse">
<stop stop-color="#5CC284" stop-opacity="0.78"/>
<stop offset="1" stop-color="#4C6A58" stop-opacity="0"/>
</linearGradient>
<linearGradient id="paint8_linear_1146_8193" x1="186.365" y1="109.266" x2="4.69552" y2="153.601" gradientUnits="userSpaceOnUse">
<stop stop-color="#5CC284" stop-opacity="0.78"/>
<stop offset="1" stop-color="#4C6A58" stop-opacity="0"/>
</linearGradient>
<linearGradient id="paint9_linear_1146_8193" x1="193.588" y1="101.238" x2="21.8603" y2="27.2169" gradientUnits="userSpaceOnUse">
<stop stop-color="#3AFF88" stop-opacity="0.4"/>
<stop offset="1" stop-color="#4C6A58" stop-opacity="0"/>
</linearGradient>
<linearGradient id="paint10_linear_1146_8193" x1="201.354" y1="38" x2="201.354" y2="64.2278" gradientUnits="userSpaceOnUse">
<stop stop-color="#299657"/>
<stop offset="1" stop-color="#48F58C"/>
</linearGradient>
<linearGradient id="paint11_linear_1146_8193" x1="227.999" y1="50.823" x2="211.815" y2="62.1691" gradientUnits="userSpaceOnUse">
<stop stop-color="#7BFFBE"/>
<stop offset="1" stop-color="#17DB66"/>
</linearGradient>
<linearGradient id="paint12_linear_1146_8193" x1="175.404" y1="52.1502" x2="193.31" y2="64.2904" gradientUnits="userSpaceOnUse">
<stop stop-color="#7BFFBF"/>
<stop offset="1" stop-color="#17DB66"/>
</linearGradient>
<linearGradient id="paint13_linear_1146_8193" x1="137.839" y1="54.2614" x2="163.93" y2="74.7514" gradientUnits="userSpaceOnUse">
<stop stop-color="#7BFFBF"/>
<stop offset="1" stop-color="#17DB66"/>
</linearGradient>
<linearGradient id="paint14_linear_1146_8193" x1="110.036" y1="75.0334" x2="139.833" y2="99.7926" gradientUnits="userSpaceOnUse">
<stop stop-color="#7BFFBF"/>
<stop offset="1" stop-color="#17DB66"/>
</linearGradient>
<linearGradient id="paint15_linear_1146_8193" x1="116.123" y1="78.8049" x2="137.48" y2="103.792" gradientUnits="userSpaceOnUse">
<stop stop-color="#3DBA7D"/>
<stop offset="1" stop-color="#23A758"/>
</linearGradient>
<linearGradient id="paint16_linear_1146_8193" x1="115.657" y1="103.135" x2="145.453" y2="127.894" gradientUnits="userSpaceOnUse">
<stop stop-color="#7BFFBF"/>
<stop offset="1" stop-color="#17DB66"/>
</linearGradient>
<linearGradient id="paint17_linear_1146_8193" x1="293.419" y1="75.275" x2="262.816" y2="100.704" gradientUnits="userSpaceOnUse">
<stop stop-color="#7BFFBF"/>
<stop offset="1" stop-color="#17DB66"/>
</linearGradient>
<linearGradient id="paint18_linear_1146_8193" x1="287.647" y1="104.136" x2="257.044" y2="129.565" gradientUnits="userSpaceOnUse">
<stop stop-color="#7BFFBF"/>
<stop offset="1" stop-color="#17DB66"/>
</linearGradient>
<linearGradient id="paint19_linear_1146_8193" x1="288.591" y1="78.1858" x2="267.179" y2="103.193" gradientUnits="userSpaceOnUse">
<stop stop-color="#3DBA7D"/>
<stop offset="1" stop-color="#23A758"/>
</linearGradient>
<linearGradient id="paint20_linear_1146_8193" x1="202.291" y1="179.443" x2="202.759" y2="157.909" gradientUnits="userSpaceOnUse">
<stop stop-color="#4ED995"/>
<stop offset="1" stop-color="#259652"/>
</linearGradient>
<linearGradient id="paint21_linear_1146_8193" x1="218.437" y1="184.78" x2="220.606" y2="164.133" gradientUnits="userSpaceOnUse">
<stop stop-color="#15DB7A"/>
<stop offset="1" stop-color="#70C893"/>
</linearGradient>
<linearGradient id="paint22_linear_1146_8193" x1="182.399" y1="184.78" x2="180.229" y2="164.133" gradientUnits="userSpaceOnUse">
<stop stop-color="#15DB7A"/>
<stop offset="1" stop-color="#70C893"/>
</linearGradient>
<linearGradient id="paint23_linear_1146_8193" x1="261.988" y1="53.8565" x2="236.514" y2="75.0421" gradientUnits="userSpaceOnUse">
<stop stop-color="#7BFFBF"/>
<stop offset="1" stop-color="#17DB66"/>
</linearGradient>
<radialGradient id="paint24_radial_1146_8193" cx="0" cy="0" r="1" gradientUnits="userSpaceOnUse" gradientTransform="translate(201.355 110.127) rotate(90) scale(45.8987)">
<stop stop-color="#1DAE68"/>
<stop offset="1" stop-color="#39CA83"/>
</radialGradient>
<radialGradient id="paint25_radial_1146_8193" cx="0" cy="0" r="1" gradientUnits="userSpaceOnUse" gradientTransform="translate(201.355 110.127) rotate(90) scale(45.8987)">
<stop stop-color="#1DAE68"/>
<stop offset="1" stop-color="#39CA83"/>
</radialGradient>
<clipPath id="clip0_1146_8193">
<rect width="327" height="265" fill="white"/>
</clipPath>
</defs>
</svg>
