<svg width="328" height="270" viewBox="0 0 328 270" fill="none" xmlns="http://www.w3.org/2000/svg">
<circle cx="254.63" cy="194.63" r="50.1695" transform="rotate(110.633 254.63 194.63)" fill="url(#paint0_linear_1151_9577)"/>
<circle cx="252.793" cy="123.793" r="36.1638" transform="rotate(68.8017 252.793 123.793)" fill="url(#paint1_linear_1151_9577)"/>
<path fill-rule="evenodd" clip-rule="evenodd" d="M133.145 93.5002C133.543 93.0706 133.921 92.6175 134.277 92.1412C141.556 82.3986 136.848 66.5744 123.761 56.7968C110.674 47.0192 94.1639 46.9908 86.885 56.7333C85.999 57.9193 85.2906 59.1954 84.7532 60.5397C84.1225 60.0655 83.4665 59.6066 82.7865 59.1654C72.8517 52.7198 61.5481 52.5038 57.5391 58.683C55.7343 61.4649 55.7156 65.0688 57.1473 68.7788C56.0716 68.3171 54.9604 67.8969 53.8166 67.5224C38.2917 62.4385 22.6381 67.6864 18.8534 79.2439C15.0688 90.8013 24.5862 104.292 40.1111 109.376C44.9629 110.965 49.8273 111.544 54.338 111.238C51.6566 113.402 49.6488 116.157 48.5827 119.412C44.7981 130.97 54.3155 144.46 69.8404 149.544C76.7966 151.822 83.7786 152.026 89.7071 150.517L119.576 160.298L140.646 95.9566L133.145 93.5002Z" fill="url(#paint2_linear_1151_9577)"/>
<path d="M170.927 118.389L130.216 9.00003" stroke="url(#paint3_linear_1151_9577)" stroke-width="36"/>
<path d="M170.927 118.389L130.216 9.00003" stroke="url(#paint4_linear_1151_9577)" stroke-width="15"/>
<path d="M158.912 114.729L206.158 8.00001" stroke="url(#paint5_linear_1151_9577)" stroke-width="36"/>
<path d="M158.912 114.729L206.158 8.00001" stroke="url(#paint6_linear_1151_9577)" stroke-width="15"/>
<path d="M75.5338 117.387C76.7474 115.285 79.4352 114.565 81.5372 115.779L142.089 150.738L130.42 170.95L82.4675 143.264C73.4071 138.033 70.3028 126.448 75.5338 117.387Z" fill="url(#paint7_linear_1151_9577)"/>
<path d="M249.237 117.505C247.986 115.338 245.215 114.596 243.048 115.847L180.631 151.883L192.659 172.718L242.089 144.179C251.429 138.787 254.629 126.844 249.237 117.505Z" fill="url(#paint8_linear_1151_9577)"/>
<path d="M159.414 87.8374C161.384 86.7004 163.81 86.7004 165.779 87.8374L217.292 117.578C219.262 118.715 220.475 120.817 220.475 123.091V182.573C220.475 184.847 219.262 186.948 217.292 188.085L165.779 217.826C163.81 218.963 161.384 218.963 159.414 217.826L107.901 188.085C105.932 186.948 104.719 184.847 104.719 182.573V123.091C104.719 120.817 105.932 118.715 107.901 117.578L159.414 87.8374Z" fill="#CA8341"/>
<path d="M160.475 102.076C161.788 101.319 163.406 101.319 164.718 102.076L205.491 125.617C206.804 126.375 207.613 127.776 207.613 129.292V176.372C207.613 177.888 206.804 179.289 205.491 180.047L164.718 203.587C163.406 204.345 161.788 204.345 160.475 203.587L119.702 180.047C118.389 179.289 117.581 177.888 117.581 176.372V129.292C117.581 127.776 118.389 126.375 119.702 125.617L160.475 102.076Z" fill="url(#paint9_radial_1151_9577)"/>
<path fill-rule="evenodd" clip-rule="evenodd" d="M154.45 158.816C148.362 155.301 140.576 157.387 137.061 163.475C133.546 169.564 135.632 177.349 141.72 180.865L147.232 184.047C153.321 187.562 161.107 185.476 164.622 179.388C168.137 173.299 166.051 165.514 159.962 161.998L154.45 158.816ZM151.267 164.328C148.223 162.57 144.33 163.613 142.573 166.658C140.815 169.702 141.858 173.595 144.902 175.352L150.415 178.535C153.459 180.292 157.352 179.249 159.109 176.205C160.867 173.161 159.824 169.268 156.78 167.51L151.267 164.328Z" fill="url(#paint10_linear_1151_9577)"/>
<path d="M141.72 180.865L141.19 181.783L141.72 180.865ZM147.232 184.047L147.763 183.128L147.232 184.047ZM144.902 175.352L144.372 176.271L144.902 175.352ZM150.415 178.535L150.945 177.616L150.415 178.535ZM137.98 164.006C141.202 158.424 148.339 156.512 153.92 159.735L154.981 157.897C148.385 154.089 139.95 156.349 136.142 162.945L137.98 164.006ZM142.251 179.946C136.67 176.724 134.757 169.587 137.98 164.006L136.142 162.945C132.334 169.541 134.594 177.975 141.19 181.783L142.251 179.946ZM147.763 183.128L142.251 179.946L141.19 181.783L146.702 184.966L147.763 183.128ZM163.703 178.857C160.481 184.438 153.344 186.351 147.763 183.128L146.702 184.966C153.298 188.774 161.732 186.514 165.54 179.918L163.703 178.857ZM159.432 162.917C165.013 166.139 166.925 173.276 163.703 178.857L165.54 179.918C169.349 173.322 167.089 164.888 160.493 161.08L159.432 162.917ZM153.92 159.735L159.432 162.917L160.493 161.08L154.981 157.897L153.92 159.735ZM143.491 167.188C144.956 164.651 148.2 163.782 150.737 165.247L151.798 163.409C148.246 161.359 143.705 162.576 141.654 166.127L143.491 167.188ZM145.433 174.434C142.896 172.969 142.027 169.725 143.491 167.188L141.654 166.127C139.603 169.679 140.82 174.22 144.372 176.271L145.433 174.434ZM150.945 177.616L145.433 174.434L144.372 176.271L149.884 179.453L150.945 177.616ZM158.191 175.675C156.726 178.212 153.482 179.081 150.945 177.616L149.884 179.453C153.436 181.504 157.977 180.287 160.028 176.735L158.191 175.675ZM156.249 168.429C158.786 169.894 159.655 173.138 158.191 175.675L160.028 176.735C162.079 173.184 160.862 168.642 157.31 166.592L156.249 168.429ZM150.737 165.247L156.249 168.429L157.31 166.592L151.798 163.409L150.737 165.247Z" fill="url(#paint11_linear_1151_9577)"/>
<circle cx="156.676" cy="161.326" r="9.54738" transform="rotate(30 156.676 161.326)" fill="#9A5A1E"/>
<rect x="146.012" y="133.12" width="46.6761" height="21.2164" rx="10.6082" transform="rotate(30 146.012 133.12)" fill="url(#paint12_linear_1151_9577)" stroke="#9A5A1E" stroke-width="2.12164"/>
<mask id="path-16-inside-1_1151_9577" fill="white">
<path fill-rule="evenodd" clip-rule="evenodd" d="M183.47 142.498C187.278 135.902 185.019 127.467 178.423 123.659C171.827 119.851 163.392 122.111 159.584 128.707C158.629 130.361 158.055 132.132 157.837 133.916C157.402 137.458 157.274 141.193 155.49 144.284L153.711 147.365C151.075 151.932 152.639 157.771 157.206 160.407C161.772 163.043 167.611 161.479 170.248 156.912L172.026 153.832C173.811 150.742 176.982 148.763 179.833 146.616C181.268 145.534 182.515 144.152 183.47 142.498Z"/>
</mask>
<path fill-rule="evenodd" clip-rule="evenodd" d="M183.47 142.498C187.278 135.902 185.019 127.467 178.423 123.659C171.827 119.851 163.392 122.111 159.584 128.707C158.629 130.361 158.055 132.132 157.837 133.916C157.402 137.458 157.274 141.193 155.49 144.284L153.711 147.365C151.075 151.932 152.639 157.771 157.206 160.407C161.772 163.043 167.611 161.479 170.248 156.912L172.026 153.832C173.811 150.742 176.982 148.763 179.833 146.616C181.268 145.534 182.515 144.152 183.47 142.498Z" fill="url(#paint13_linear_1151_9577)"/>
<path d="M159.942 134.174C160.127 132.668 160.611 131.171 161.422 129.768L157.747 127.646C156.646 129.552 155.984 131.596 155.731 133.657L159.942 134.174ZM155.549 148.426L157.327 145.345L153.652 143.224L151.874 146.304L155.549 148.426ZM170.189 152.772L168.41 155.852L172.085 157.973L173.863 154.893L170.189 152.772ZM181.633 141.437C180.823 142.84 179.768 144.008 178.556 144.921L181.109 148.31C182.768 147.06 184.207 145.464 185.308 143.558L181.633 141.437ZM173.863 154.893C174.583 153.647 175.617 152.565 176.892 151.497C178.212 150.391 179.576 149.465 181.109 148.31L178.556 144.921C177.238 145.914 175.591 147.051 174.167 148.244C172.698 149.475 171.254 150.927 170.189 152.772L173.863 154.893ZM151.874 146.304C148.651 151.885 150.564 159.022 156.145 162.244L158.267 158.57C154.715 156.519 153.498 151.978 155.549 148.426L151.874 146.304ZM155.731 133.657C155.497 135.562 155.377 137.206 155.08 138.903C154.792 140.541 154.372 141.977 153.652 143.224L157.327 145.345C158.392 143.5 158.928 141.524 159.259 139.636C159.58 137.806 159.741 135.811 159.942 134.174L155.731 133.657ZM177.362 125.497C182.943 128.719 184.855 135.855 181.633 141.437L185.308 143.558C189.702 135.948 187.094 126.216 179.483 121.822L177.362 125.497ZM156.145 162.244C161.726 165.467 168.863 163.554 172.085 157.973L168.41 155.852C166.36 159.403 161.818 160.62 158.267 158.57L156.145 162.244ZM179.483 121.822C171.873 117.428 162.141 120.035 157.747 127.646L161.422 129.768C164.644 124.186 171.781 122.274 177.362 125.497L179.483 121.822Z" fill="#9A5A1E" mask="url(#path-16-inside-1_1151_9577)"/>
<rect x="147.669" y="145.101" width="31.8246" height="8.48656" transform="rotate(30 147.669 145.101)" fill="url(#paint14_linear_1151_9577)"/>
<path d="M150.425 146.693L172.474 159.422" stroke="#9A5A1E" stroke-width="2.12164"/>
<path d="M226.729 71.7608C226.907 70.2543 229.093 70.2543 229.271 71.7608L229.532 73.9668C230.108 78.8436 233.789 82.7786 238.617 83.6776C239.728 83.8844 239.728 85.4756 238.617 85.6824C233.789 86.5815 230.108 90.5164 229.532 95.3932L229.271 97.5992C229.093 99.1057 226.907 99.1057 226.729 97.5992L226.468 95.3932C225.892 90.5164 222.211 86.5815 217.383 85.6824C216.272 85.4756 216.272 83.8844 217.383 83.6776C222.211 82.7786 225.892 78.8436 226.468 73.9668L226.729 71.7608Z" fill="white"/>
<path d="M85.2287 194.818C85.4059 193.311 87.5941 193.311 87.7713 194.818L88.4944 200.972C89.2136 207.093 93.8298 212.034 99.8873 213.168L100.279 213.242C101.672 213.503 101.672 215.497 100.279 215.758L99.8873 215.832C93.8298 216.966 89.2136 221.907 88.4944 228.028L87.7713 234.182C87.5941 235.689 85.4059 235.689 85.2287 234.182L84.5056 228.028C83.7864 221.907 79.1702 216.966 73.1127 215.832L72.7207 215.758C71.3281 215.497 71.3281 213.503 72.7207 213.242L73.1127 213.168C79.1702 212.034 83.7864 207.093 84.5056 200.972L85.2287 194.818Z" fill="#FF8515"/>
<circle cx="239.5" cy="183.5" r="5.5" fill="#FFB13C"/>
<circle cx="228.438" cy="198.438" r="3.43811" fill="white"/>
<circle cx="65" cy="182" r="2" fill="white"/>
<circle cx="63" cy="167" r="3" fill="#FFCE6F"/>
<circle cx="89" cy="106" r="2" fill="white"/>
<defs>
<linearGradient id="paint0_linear_1151_9577" x1="254.63" y1="151.407" x2="254.63" y2="244.8" gradientUnits="userSpaceOnUse">
<stop stop-color="#AB5337" stop-opacity="0.72"/>
<stop offset="1" stop-color="#715046" stop-opacity="0"/>
</linearGradient>
<linearGradient id="paint1_linear_1151_9577" x1="252.793" y1="92.637" x2="252.793" y2="159.957" gradientUnits="userSpaceOnUse">
<stop stop-color="#B97435" stop-opacity="0.61"/>
<stop offset="1" stop-color="#875342" stop-opacity="0"/>
</linearGradient>
<linearGradient id="paint2_linear_1151_9577" x1="10.6334" y1="75.2813" x2="92.9267" y2="154.135" gradientUnits="userSpaceOnUse">
<stop stop-color="#FF8616" stop-opacity="0.77"/>
<stop offset="1" stop-color="#E03E33" stop-opacity="0"/>
</linearGradient>
<linearGradient id="paint3_linear_1151_9577" x1="101.211" y1="25.23" x2="127.779" y2="92.5948" gradientUnits="userSpaceOnUse">
<stop stop-color="#6384C5" stop-opacity="0"/>
<stop offset="1" stop-color="#3C4A64"/>
</linearGradient>
<linearGradient id="paint4_linear_1151_9577" x1="101.211" y1="25.23" x2="127.779" y2="92.5948" gradientUnits="userSpaceOnUse">
<stop stop-color="#6384C5" stop-opacity="0"/>
<stop offset="1" stop-color="#96B1E4"/>
</linearGradient>
<linearGradient id="paint5_linear_1151_9577" x1="164" y1="0.999999" x2="149.803" y2="52.202" gradientUnits="userSpaceOnUse">
<stop stop-color="#8CA4D1" stop-opacity="0"/>
<stop offset="1" stop-color="#596E96"/>
</linearGradient>
<linearGradient id="paint6_linear_1151_9577" x1="164" y1="0.999999" x2="149.803" y2="52.202" gradientUnits="userSpaceOnUse">
<stop stop-color="#2B3852" stop-opacity="0"/>
<stop offset="1" stop-color="#C6D5F4"/>
</linearGradient>
<linearGradient id="paint7_linear_1151_9577" x1="74.5487" y1="124.19" x2="107.434" y2="151.771" gradientUnits="userSpaceOnUse">
<stop stop-color="#FFC074"/>
<stop offset="1" stop-color="#7C360D"/>
</linearGradient>
<linearGradient id="paint8_linear_1151_9577" x1="250.252" y1="124.517" x2="216.353" y2="152.948" gradientUnits="userSpaceOnUse">
<stop stop-color="#FFC074"/>
<stop offset="1" stop-color="#7C360D"/>
</linearGradient>
<radialGradient id="paint9_radial_1151_9577" cx="0" cy="0" r="1" gradientUnits="userSpaceOnUse" gradientTransform="translate(162.597 152.832) rotate(90) scale(51.9802)">
<stop stop-color="#CB7F39"/>
<stop offset="1" stop-color="#FFC27A"/>
</radialGradient>
<linearGradient id="paint10_linear_1151_9577" x1="140.32" y1="162.379" x2="162.597" y2="181.474" gradientUnits="userSpaceOnUse">
<stop stop-color="#E2832A"/>
<stop offset="1" stop-color="#F78E2D"/>
</linearGradient>
<linearGradient id="paint11_linear_1151_9577" x1="157.206" y1="160.407" x2="144.476" y2="182.456" gradientUnits="userSpaceOnUse">
<stop stop-color="#65401D"/>
<stop offset="1" stop-color="#CD702C"/>
</linearGradient>
<linearGradient id="paint12_linear_1151_9577" x1="149.593" y1="142.789" x2="192.356" y2="142.599" gradientUnits="userSpaceOnUse">
<stop stop-color="#FFE55B"/>
<stop offset="1" stop-color="#FF993C"/>
</linearGradient>
<linearGradient id="paint13_linear_1151_9577" x1="178.423" y1="123.659" x2="157.206" y2="160.407" gradientUnits="userSpaceOnUse">
<stop stop-color="#FF9C40"/>
<stop offset="1" stop-color="#FF5C00"/>
</linearGradient>
<linearGradient id="paint14_linear_1151_9577" x1="150.009" y1="149.002" x2="178.035" y2="148.745" gradientUnits="userSpaceOnUse">
<stop stop-color="#FFDA57"/>
<stop offset="1" stop-color="#FFA742"/>
</linearGradient>
</defs>
</svg>
